G04 #@! TF.FileFunction,Copper,L3,Inr,Signal*
%FSLAX46Y46*%
G04 Gerber Fmt 4.6, Leading zero omitted, Abs format (unit mm)*
G04 Created by KiCad (PCBNEW 0.201505262310+5684~23~ubuntu14.04.1-product) date Mon 01 Jun 2015 21:54:35 CEST*
%MOMM*%
G01*
G04 APERTURE LIST*
%ADD10C,0.100000*%
%ADD11R,2.032000X2.032000*%
%ADD12O,2.032000X2.032000*%
%ADD13R,2.235200X2.235200*%
%ADD14R,1.727200X2.032000*%
%ADD15O,1.727200X2.032000*%
%ADD16C,1.000000*%
%ADD17C,0.889000*%
%ADD18C,0.685800*%
%ADD19C,0.152400*%
G04 APERTURE END LIST*
D10*
D11*
X82804000Y-77978000D03*
D12*
X85344000Y-77978000D03*
D13*
X69977000Y-77978000D03*
X75539600Y-77978000D03*
X79121000Y-77978000D03*
D14*
X82550000Y-133096000D03*
D15*
X80010000Y-133096000D03*
X77470000Y-133096000D03*
X74930000Y-133096000D03*
X72390000Y-133096000D03*
D13*
X69977000Y-91059000D03*
X69977000Y-103632000D03*
X69977000Y-116205000D03*
X69977000Y-128397000D03*
D16*
X83566000Y-123992000D03*
X81066000Y-126392000D03*
X83566000Y-128992000D03*
D13*
X83705700Y-110947200D03*
D17*
X85852000Y-128270000D03*
X83820000Y-93980000D03*
X80772000Y-87249000D03*
X85090000Y-102616000D03*
X77851000Y-117792500D03*
X85788500Y-113792000D03*
X78422500Y-116649500D03*
X75692000Y-102616000D03*
X82003900Y-88226900D03*
X86354920Y-84160360D03*
X85973920Y-89214960D03*
X79603600Y-124754640D03*
X85664040Y-119948960D03*
D18*
X82397600Y-114858800D03*
X81445100Y-107937300D03*
X79717900Y-102006400D03*
X76962000Y-97307400D03*
X74803000Y-84582000D03*
X75692000Y-107340400D03*
X80645000Y-111099600D03*
X75311000Y-96837500D03*
X82842100Y-107873800D03*
X71183500Y-106045000D03*
X76073000Y-109791500D03*
X72072500Y-119761000D03*
X73025000Y-115443000D03*
X78905100Y-108089700D03*
X74104500Y-125857000D03*
X73152000Y-120002300D03*
X85318600Y-100076000D03*
D17*
X76200000Y-89916000D03*
X81089500Y-101346000D03*
X75628500Y-101346000D03*
X72263000Y-101092000D03*
X72390000Y-88646000D03*
X81089500Y-103886000D03*
X75628500Y-103949500D03*
X72834500Y-126809500D03*
X72707500Y-114236500D03*
D18*
X78168500Y-115189000D03*
D19*
G36*
X83756423Y-96469200D02*
X83743877Y-108889800D01*
X83515317Y-108889800D01*
X83515317Y-107740499D01*
X83413059Y-107493017D01*
X83223878Y-107303506D01*
X82976575Y-107200817D01*
X82708799Y-107200583D01*
X82461317Y-107302841D01*
X82271806Y-107492022D01*
X82169117Y-107739325D01*
X82168883Y-108007101D01*
X82271141Y-108254583D01*
X82460322Y-108444094D01*
X82707625Y-108546783D01*
X82975401Y-108547017D01*
X83222883Y-108444759D01*
X83412394Y-108255578D01*
X83515083Y-108008275D01*
X83515317Y-107740499D01*
X83515317Y-108889800D01*
X82118317Y-108889800D01*
X82118317Y-107803999D01*
X82016059Y-107556517D01*
X81826878Y-107367006D01*
X81579575Y-107264317D01*
X81311799Y-107264083D01*
X81064317Y-107366341D01*
X80874806Y-107555522D01*
X80772117Y-107802825D01*
X80771883Y-108070601D01*
X80874141Y-108318083D01*
X81063322Y-108507594D01*
X81310625Y-108610283D01*
X81578401Y-108610517D01*
X81825883Y-108508259D01*
X82015394Y-108319078D01*
X82118083Y-108071775D01*
X82118317Y-107803999D01*
X82118317Y-108889800D01*
X80391117Y-108889800D01*
X80391117Y-101873099D01*
X80288859Y-101625617D01*
X80099678Y-101436106D01*
X79852375Y-101333417D01*
X79584599Y-101333183D01*
X79337117Y-101435441D01*
X79147606Y-101624622D01*
X79044917Y-101871925D01*
X79044683Y-102139701D01*
X79146941Y-102387183D01*
X79336122Y-102576694D01*
X79583425Y-102679383D01*
X79851201Y-102679617D01*
X80098683Y-102577359D01*
X80288194Y-102388178D01*
X80390883Y-102140875D01*
X80391117Y-101873099D01*
X80391117Y-108889800D01*
X79578317Y-108889800D01*
X79578317Y-107956399D01*
X79476059Y-107708917D01*
X79286878Y-107519406D01*
X79039575Y-107416717D01*
X78771799Y-107416483D01*
X78524317Y-107518741D01*
X78334806Y-107707922D01*
X78232117Y-107955225D01*
X78231883Y-108223001D01*
X78334141Y-108470483D01*
X78523322Y-108659994D01*
X78770625Y-108762683D01*
X79038401Y-108762917D01*
X79285883Y-108660659D01*
X79475394Y-108471478D01*
X79578083Y-108224175D01*
X79578317Y-107956399D01*
X79578317Y-108889800D01*
X77635217Y-108889800D01*
X77635217Y-97174099D01*
X77532959Y-96926617D01*
X77343778Y-96737106D01*
X77096475Y-96634417D01*
X76828699Y-96634183D01*
X76581217Y-96736441D01*
X76391706Y-96925622D01*
X76289017Y-97172925D01*
X76288783Y-97440701D01*
X76391041Y-97688183D01*
X76580222Y-97877694D01*
X76827525Y-97980383D01*
X77095301Y-97980617D01*
X77342783Y-97878359D01*
X77532294Y-97689178D01*
X77634983Y-97441875D01*
X77635217Y-97174099D01*
X77635217Y-108889800D01*
X76695082Y-108889800D01*
X76696939Y-109538939D01*
X76643959Y-109410717D01*
X76466834Y-109233283D01*
X76466834Y-102462579D01*
X76349141Y-102177741D01*
X76131405Y-101959624D01*
X75984217Y-101898506D01*
X75984217Y-96704199D01*
X75881959Y-96456717D01*
X75692778Y-96267206D01*
X75476217Y-96177282D01*
X75476217Y-84448699D01*
X75373959Y-84201217D01*
X75184778Y-84011706D01*
X74937475Y-83909017D01*
X74669699Y-83908783D01*
X74422217Y-84011041D01*
X74232706Y-84200222D01*
X74130017Y-84447525D01*
X74129783Y-84715301D01*
X74232041Y-84962783D01*
X74421222Y-85152294D01*
X74668525Y-85254983D01*
X74936301Y-85255217D01*
X75183783Y-85152959D01*
X75373294Y-84963778D01*
X75475983Y-84716475D01*
X75476217Y-84448699D01*
X75476217Y-96177282D01*
X75445475Y-96164517D01*
X75177699Y-96164283D01*
X74930217Y-96266541D01*
X74740706Y-96455722D01*
X74638017Y-96703025D01*
X74637783Y-96970801D01*
X74740041Y-97218283D01*
X74929222Y-97407794D01*
X75176525Y-97510483D01*
X75444301Y-97510717D01*
X75691783Y-97408459D01*
X75881294Y-97219278D01*
X75983983Y-96971975D01*
X75984217Y-96704199D01*
X75984217Y-101898506D01*
X75846773Y-101841435D01*
X75538579Y-101841166D01*
X75253741Y-101958859D01*
X75035624Y-102176595D01*
X74917435Y-102461227D01*
X74917166Y-102769421D01*
X75034859Y-103054259D01*
X75252595Y-103272376D01*
X75537227Y-103390565D01*
X75845421Y-103390834D01*
X76130259Y-103273141D01*
X76348376Y-103055405D01*
X76466565Y-102770773D01*
X76466834Y-102462579D01*
X76466834Y-109233283D01*
X76454778Y-109221206D01*
X76365217Y-109184017D01*
X76365217Y-107207099D01*
X76262959Y-106959617D01*
X76073778Y-106770106D01*
X75826475Y-106667417D01*
X75558699Y-106667183D01*
X75311217Y-106769441D01*
X75121706Y-106958622D01*
X75019017Y-107205925D01*
X75018783Y-107473701D01*
X75121041Y-107721183D01*
X75310222Y-107910694D01*
X75557525Y-108013383D01*
X75825301Y-108013617D01*
X76072783Y-107911359D01*
X76262294Y-107722178D01*
X76364983Y-107474875D01*
X76365217Y-107207099D01*
X76365217Y-109184017D01*
X76207475Y-109118517D01*
X75939699Y-109118283D01*
X75692217Y-109220541D01*
X75502706Y-109409722D01*
X75400017Y-109657025D01*
X75399783Y-109924801D01*
X75502041Y-110172283D01*
X75691222Y-110361794D01*
X75938525Y-110464483D01*
X76206301Y-110464717D01*
X76453783Y-110362459D01*
X76643294Y-110173278D01*
X76698375Y-110040626D01*
X76758582Y-131076700D01*
X74777717Y-131076700D01*
X74777717Y-125723699D01*
X74675459Y-125476217D01*
X74486278Y-125286706D01*
X74238975Y-125184017D01*
X73971199Y-125183783D01*
X73825217Y-125244101D01*
X73825217Y-119868999D01*
X73722959Y-119621517D01*
X73698217Y-119596731D01*
X73698217Y-115309699D01*
X73595959Y-115062217D01*
X73406778Y-114872706D01*
X73159475Y-114770017D01*
X72891699Y-114769783D01*
X72644217Y-114872041D01*
X72454706Y-115061222D01*
X72352017Y-115308525D01*
X72351783Y-115576301D01*
X72454041Y-115823783D01*
X72643222Y-116013294D01*
X72890525Y-116115983D01*
X73158301Y-116116217D01*
X73405783Y-116013959D01*
X73595294Y-115824778D01*
X73697983Y-115577475D01*
X73698217Y-115309699D01*
X73698217Y-119596731D01*
X73533778Y-119432006D01*
X73286475Y-119329317D01*
X73018699Y-119329083D01*
X72771217Y-119431341D01*
X72695722Y-119506703D01*
X72643459Y-119380217D01*
X72454278Y-119190706D01*
X72206975Y-119088017D01*
X71939199Y-119087783D01*
X71856717Y-119121864D01*
X71856717Y-105911699D01*
X71754459Y-105664217D01*
X71565278Y-105474706D01*
X71317975Y-105372017D01*
X71050199Y-105371783D01*
X70802717Y-105474041D01*
X70613206Y-105663222D01*
X70510517Y-105910525D01*
X70510283Y-106178301D01*
X70612541Y-106425783D01*
X70801722Y-106615294D01*
X71049025Y-106717983D01*
X71316801Y-106718217D01*
X71564283Y-106615959D01*
X71753794Y-106426778D01*
X71856483Y-106179475D01*
X71856717Y-105911699D01*
X71856717Y-119121864D01*
X71691717Y-119190041D01*
X71502206Y-119379222D01*
X71399517Y-119626525D01*
X71399283Y-119894301D01*
X71501541Y-120141783D01*
X71690722Y-120331294D01*
X71938025Y-120433983D01*
X72205801Y-120434217D01*
X72453283Y-120331959D01*
X72528777Y-120256596D01*
X72581041Y-120383083D01*
X72770222Y-120572594D01*
X73017525Y-120675283D01*
X73285301Y-120675517D01*
X73532783Y-120573259D01*
X73722294Y-120384078D01*
X73824983Y-120136775D01*
X73825217Y-119868999D01*
X73825217Y-125244101D01*
X73723717Y-125286041D01*
X73534206Y-125475222D01*
X73431517Y-125722525D01*
X73431283Y-125990301D01*
X73533541Y-126237783D01*
X73722722Y-126427294D01*
X73970025Y-126529983D01*
X74237801Y-126530217D01*
X74485283Y-126427959D01*
X74674794Y-126238778D01*
X74777483Y-125991475D01*
X74777717Y-125723699D01*
X74777717Y-131076700D01*
X70497700Y-131076700D01*
X70497700Y-134493800D01*
X68579200Y-134493800D01*
X68579200Y-129689280D01*
X68619850Y-129751162D01*
X68729587Y-129825236D01*
X68859400Y-129851269D01*
X71094600Y-129851269D01*
X71220504Y-129826841D01*
X71331162Y-129754150D01*
X71405236Y-129644413D01*
X71431269Y-129514600D01*
X71431269Y-127279400D01*
X71406841Y-127153496D01*
X71334150Y-127042838D01*
X71224413Y-126968764D01*
X71094600Y-126942731D01*
X68859400Y-126942731D01*
X68733496Y-126967159D01*
X68622838Y-127039850D01*
X68579200Y-127104497D01*
X68579200Y-117497280D01*
X68619850Y-117559162D01*
X68729587Y-117633236D01*
X68859400Y-117659269D01*
X71094600Y-117659269D01*
X71220504Y-117634841D01*
X71331162Y-117562150D01*
X71405236Y-117452413D01*
X71431269Y-117322600D01*
X71431269Y-115087400D01*
X71406841Y-114961496D01*
X71334150Y-114850838D01*
X71224413Y-114776764D01*
X71094600Y-114750731D01*
X68859400Y-114750731D01*
X68733496Y-114775159D01*
X68622838Y-114847850D01*
X68579200Y-114912497D01*
X68579200Y-104924280D01*
X68619850Y-104986162D01*
X68729587Y-105060236D01*
X68859400Y-105086269D01*
X71094600Y-105086269D01*
X71220504Y-105061841D01*
X71331162Y-104989150D01*
X71405236Y-104879413D01*
X71431269Y-104749600D01*
X71431269Y-102514400D01*
X71406841Y-102388496D01*
X71334150Y-102277838D01*
X71224413Y-102203764D01*
X71094600Y-102177731D01*
X68859400Y-102177731D01*
X68733496Y-102202159D01*
X68622838Y-102274850D01*
X68579200Y-102339497D01*
X68579200Y-92351280D01*
X68619850Y-92413162D01*
X68729587Y-92487236D01*
X68859400Y-92513269D01*
X71094600Y-92513269D01*
X71220504Y-92488841D01*
X71331162Y-92416150D01*
X71405236Y-92306413D01*
X71431269Y-92176600D01*
X71431269Y-89941400D01*
X71424800Y-89908058D01*
X71424800Y-79161281D01*
X71424800Y-79029919D01*
X71424800Y-78111350D01*
X71342250Y-78028800D01*
X70027800Y-78028800D01*
X70027800Y-79343250D01*
X70110350Y-79425800D01*
X71160281Y-79425800D01*
X71281643Y-79375530D01*
X71374530Y-79282643D01*
X71424800Y-79161281D01*
X71424800Y-89908058D01*
X71406841Y-89815496D01*
X71334150Y-89704838D01*
X71224413Y-89630764D01*
X71094600Y-89604731D01*
X68859400Y-89604731D01*
X68733496Y-89629159D01*
X68622838Y-89701850D01*
X68579200Y-89766497D01*
X68579200Y-79281991D01*
X68579470Y-79282643D01*
X68672357Y-79375530D01*
X68793719Y-79425800D01*
X69843650Y-79425800D01*
X69926200Y-79343250D01*
X69926200Y-78028800D01*
X69906200Y-78028800D01*
X69906200Y-77927200D01*
X69926200Y-77927200D01*
X69926200Y-77907200D01*
X70027800Y-77907200D01*
X70027800Y-77927200D01*
X71342250Y-77927200D01*
X71424800Y-77844650D01*
X71424800Y-76926081D01*
X71424800Y-76794719D01*
X71374530Y-76673357D01*
X71281643Y-76580470D01*
X71280991Y-76580200D01*
X74247319Y-76580200D01*
X74185438Y-76620850D01*
X74111364Y-76730587D01*
X74085331Y-76860400D01*
X74085331Y-79095600D01*
X74109759Y-79221504D01*
X74182450Y-79332162D01*
X74292187Y-79406236D01*
X74422000Y-79432269D01*
X76657200Y-79432269D01*
X76783104Y-79407841D01*
X76893762Y-79335150D01*
X76967836Y-79225413D01*
X76993869Y-79095600D01*
X76993869Y-76860400D01*
X76969441Y-76734496D01*
X76896750Y-76623838D01*
X76832102Y-76580200D01*
X77291737Y-76580200D01*
X77266704Y-96469200D01*
X83756423Y-96469200D01*
X83756423Y-96469200D01*
G37*
X83756423Y-96469200D02*
X83743877Y-108889800D01*
X83515317Y-108889800D01*
X83515317Y-107740499D01*
X83413059Y-107493017D01*
X83223878Y-107303506D01*
X82976575Y-107200817D01*
X82708799Y-107200583D01*
X82461317Y-107302841D01*
X82271806Y-107492022D01*
X82169117Y-107739325D01*
X82168883Y-108007101D01*
X82271141Y-108254583D01*
X82460322Y-108444094D01*
X82707625Y-108546783D01*
X82975401Y-108547017D01*
X83222883Y-108444759D01*
X83412394Y-108255578D01*
X83515083Y-108008275D01*
X83515317Y-107740499D01*
X83515317Y-108889800D01*
X82118317Y-108889800D01*
X82118317Y-107803999D01*
X82016059Y-107556517D01*
X81826878Y-107367006D01*
X81579575Y-107264317D01*
X81311799Y-107264083D01*
X81064317Y-107366341D01*
X80874806Y-107555522D01*
X80772117Y-107802825D01*
X80771883Y-108070601D01*
X80874141Y-108318083D01*
X81063322Y-108507594D01*
X81310625Y-108610283D01*
X81578401Y-108610517D01*
X81825883Y-108508259D01*
X82015394Y-108319078D01*
X82118083Y-108071775D01*
X82118317Y-107803999D01*
X82118317Y-108889800D01*
X80391117Y-108889800D01*
X80391117Y-101873099D01*
X80288859Y-101625617D01*
X80099678Y-101436106D01*
X79852375Y-101333417D01*
X79584599Y-101333183D01*
X79337117Y-101435441D01*
X79147606Y-101624622D01*
X79044917Y-101871925D01*
X79044683Y-102139701D01*
X79146941Y-102387183D01*
X79336122Y-102576694D01*
X79583425Y-102679383D01*
X79851201Y-102679617D01*
X80098683Y-102577359D01*
X80288194Y-102388178D01*
X80390883Y-102140875D01*
X80391117Y-101873099D01*
X80391117Y-108889800D01*
X79578317Y-108889800D01*
X79578317Y-107956399D01*
X79476059Y-107708917D01*
X79286878Y-107519406D01*
X79039575Y-107416717D01*
X78771799Y-107416483D01*
X78524317Y-107518741D01*
X78334806Y-107707922D01*
X78232117Y-107955225D01*
X78231883Y-108223001D01*
X78334141Y-108470483D01*
X78523322Y-108659994D01*
X78770625Y-108762683D01*
X79038401Y-108762917D01*
X79285883Y-108660659D01*
X79475394Y-108471478D01*
X79578083Y-108224175D01*
X79578317Y-107956399D01*
X79578317Y-108889800D01*
X77635217Y-108889800D01*
X77635217Y-97174099D01*
X77532959Y-96926617D01*
X77343778Y-96737106D01*
X77096475Y-96634417D01*
X76828699Y-96634183D01*
X76581217Y-96736441D01*
X76391706Y-96925622D01*
X76289017Y-97172925D01*
X76288783Y-97440701D01*
X76391041Y-97688183D01*
X76580222Y-97877694D01*
X76827525Y-97980383D01*
X77095301Y-97980617D01*
X77342783Y-97878359D01*
X77532294Y-97689178D01*
X77634983Y-97441875D01*
X77635217Y-97174099D01*
X77635217Y-108889800D01*
X76695082Y-108889800D01*
X76696939Y-109538939D01*
X76643959Y-109410717D01*
X76466834Y-109233283D01*
X76466834Y-102462579D01*
X76349141Y-102177741D01*
X76131405Y-101959624D01*
X75984217Y-101898506D01*
X75984217Y-96704199D01*
X75881959Y-96456717D01*
X75692778Y-96267206D01*
X75476217Y-96177282D01*
X75476217Y-84448699D01*
X75373959Y-84201217D01*
X75184778Y-84011706D01*
X74937475Y-83909017D01*
X74669699Y-83908783D01*
X74422217Y-84011041D01*
X74232706Y-84200222D01*
X74130017Y-84447525D01*
X74129783Y-84715301D01*
X74232041Y-84962783D01*
X74421222Y-85152294D01*
X74668525Y-85254983D01*
X74936301Y-85255217D01*
X75183783Y-85152959D01*
X75373294Y-84963778D01*
X75475983Y-84716475D01*
X75476217Y-84448699D01*
X75476217Y-96177282D01*
X75445475Y-96164517D01*
X75177699Y-96164283D01*
X74930217Y-96266541D01*
X74740706Y-96455722D01*
X74638017Y-96703025D01*
X74637783Y-96970801D01*
X74740041Y-97218283D01*
X74929222Y-97407794D01*
X75176525Y-97510483D01*
X75444301Y-97510717D01*
X75691783Y-97408459D01*
X75881294Y-97219278D01*
X75983983Y-96971975D01*
X75984217Y-96704199D01*
X75984217Y-101898506D01*
X75846773Y-101841435D01*
X75538579Y-101841166D01*
X75253741Y-101958859D01*
X75035624Y-102176595D01*
X74917435Y-102461227D01*
X74917166Y-102769421D01*
X75034859Y-103054259D01*
X75252595Y-103272376D01*
X75537227Y-103390565D01*
X75845421Y-103390834D01*
X76130259Y-103273141D01*
X76348376Y-103055405D01*
X76466565Y-102770773D01*
X76466834Y-102462579D01*
X76466834Y-109233283D01*
X76454778Y-109221206D01*
X76365217Y-109184017D01*
X76365217Y-107207099D01*
X76262959Y-106959617D01*
X76073778Y-106770106D01*
X75826475Y-106667417D01*
X75558699Y-106667183D01*
X75311217Y-106769441D01*
X75121706Y-106958622D01*
X75019017Y-107205925D01*
X75018783Y-107473701D01*
X75121041Y-107721183D01*
X75310222Y-107910694D01*
X75557525Y-108013383D01*
X75825301Y-108013617D01*
X76072783Y-107911359D01*
X76262294Y-107722178D01*
X76364983Y-107474875D01*
X76365217Y-107207099D01*
X76365217Y-109184017D01*
X76207475Y-109118517D01*
X75939699Y-109118283D01*
X75692217Y-109220541D01*
X75502706Y-109409722D01*
X75400017Y-109657025D01*
X75399783Y-109924801D01*
X75502041Y-110172283D01*
X75691222Y-110361794D01*
X75938525Y-110464483D01*
X76206301Y-110464717D01*
X76453783Y-110362459D01*
X76643294Y-110173278D01*
X76698375Y-110040626D01*
X76758582Y-131076700D01*
X74777717Y-131076700D01*
X74777717Y-125723699D01*
X74675459Y-125476217D01*
X74486278Y-125286706D01*
X74238975Y-125184017D01*
X73971199Y-125183783D01*
X73825217Y-125244101D01*
X73825217Y-119868999D01*
X73722959Y-119621517D01*
X73698217Y-119596731D01*
X73698217Y-115309699D01*
X73595959Y-115062217D01*
X73406778Y-114872706D01*
X73159475Y-114770017D01*
X72891699Y-114769783D01*
X72644217Y-114872041D01*
X72454706Y-115061222D01*
X72352017Y-115308525D01*
X72351783Y-115576301D01*
X72454041Y-115823783D01*
X72643222Y-116013294D01*
X72890525Y-116115983D01*
X73158301Y-116116217D01*
X73405783Y-116013959D01*
X73595294Y-115824778D01*
X73697983Y-115577475D01*
X73698217Y-115309699D01*
X73698217Y-119596731D01*
X73533778Y-119432006D01*
X73286475Y-119329317D01*
X73018699Y-119329083D01*
X72771217Y-119431341D01*
X72695722Y-119506703D01*
X72643459Y-119380217D01*
X72454278Y-119190706D01*
X72206975Y-119088017D01*
X71939199Y-119087783D01*
X71856717Y-119121864D01*
X71856717Y-105911699D01*
X71754459Y-105664217D01*
X71565278Y-105474706D01*
X71317975Y-105372017D01*
X71050199Y-105371783D01*
X70802717Y-105474041D01*
X70613206Y-105663222D01*
X70510517Y-105910525D01*
X70510283Y-106178301D01*
X70612541Y-106425783D01*
X70801722Y-106615294D01*
X71049025Y-106717983D01*
X71316801Y-106718217D01*
X71564283Y-106615959D01*
X71753794Y-106426778D01*
X71856483Y-106179475D01*
X71856717Y-105911699D01*
X71856717Y-119121864D01*
X71691717Y-119190041D01*
X71502206Y-119379222D01*
X71399517Y-119626525D01*
X71399283Y-119894301D01*
X71501541Y-120141783D01*
X71690722Y-120331294D01*
X71938025Y-120433983D01*
X72205801Y-120434217D01*
X72453283Y-120331959D01*
X72528777Y-120256596D01*
X72581041Y-120383083D01*
X72770222Y-120572594D01*
X73017525Y-120675283D01*
X73285301Y-120675517D01*
X73532783Y-120573259D01*
X73722294Y-120384078D01*
X73824983Y-120136775D01*
X73825217Y-119868999D01*
X73825217Y-125244101D01*
X73723717Y-125286041D01*
X73534206Y-125475222D01*
X73431517Y-125722525D01*
X73431283Y-125990301D01*
X73533541Y-126237783D01*
X73722722Y-126427294D01*
X73970025Y-126529983D01*
X74237801Y-126530217D01*
X74485283Y-126427959D01*
X74674794Y-126238778D01*
X74777483Y-125991475D01*
X74777717Y-125723699D01*
X74777717Y-131076700D01*
X70497700Y-131076700D01*
X70497700Y-134493800D01*
X68579200Y-134493800D01*
X68579200Y-129689280D01*
X68619850Y-129751162D01*
X68729587Y-129825236D01*
X68859400Y-129851269D01*
X71094600Y-129851269D01*
X71220504Y-129826841D01*
X71331162Y-129754150D01*
X71405236Y-129644413D01*
X71431269Y-129514600D01*
X71431269Y-127279400D01*
X71406841Y-127153496D01*
X71334150Y-127042838D01*
X71224413Y-126968764D01*
X71094600Y-126942731D01*
X68859400Y-126942731D01*
X68733496Y-126967159D01*
X68622838Y-127039850D01*
X68579200Y-127104497D01*
X68579200Y-117497280D01*
X68619850Y-117559162D01*
X68729587Y-117633236D01*
X68859400Y-117659269D01*
X71094600Y-117659269D01*
X71220504Y-117634841D01*
X71331162Y-117562150D01*
X71405236Y-117452413D01*
X71431269Y-117322600D01*
X71431269Y-115087400D01*
X71406841Y-114961496D01*
X71334150Y-114850838D01*
X71224413Y-114776764D01*
X71094600Y-114750731D01*
X68859400Y-114750731D01*
X68733496Y-114775159D01*
X68622838Y-114847850D01*
X68579200Y-114912497D01*
X68579200Y-104924280D01*
X68619850Y-104986162D01*
X68729587Y-105060236D01*
X68859400Y-105086269D01*
X71094600Y-105086269D01*
X71220504Y-105061841D01*
X71331162Y-104989150D01*
X71405236Y-104879413D01*
X71431269Y-104749600D01*
X71431269Y-102514400D01*
X71406841Y-102388496D01*
X71334150Y-102277838D01*
X71224413Y-102203764D01*
X71094600Y-102177731D01*
X68859400Y-102177731D01*
X68733496Y-102202159D01*
X68622838Y-102274850D01*
X68579200Y-102339497D01*
X68579200Y-92351280D01*
X68619850Y-92413162D01*
X68729587Y-92487236D01*
X68859400Y-92513269D01*
X71094600Y-92513269D01*
X71220504Y-92488841D01*
X71331162Y-92416150D01*
X71405236Y-92306413D01*
X71431269Y-92176600D01*
X71431269Y-89941400D01*
X71424800Y-89908058D01*
X71424800Y-79161281D01*
X71424800Y-79029919D01*
X71424800Y-78111350D01*
X71342250Y-78028800D01*
X70027800Y-78028800D01*
X70027800Y-79343250D01*
X70110350Y-79425800D01*
X71160281Y-79425800D01*
X71281643Y-79375530D01*
X71374530Y-79282643D01*
X71424800Y-79161281D01*
X71424800Y-89908058D01*
X71406841Y-89815496D01*
X71334150Y-89704838D01*
X71224413Y-89630764D01*
X71094600Y-89604731D01*
X68859400Y-89604731D01*
X68733496Y-89629159D01*
X68622838Y-89701850D01*
X68579200Y-89766497D01*
X68579200Y-79281991D01*
X68579470Y-79282643D01*
X68672357Y-79375530D01*
X68793719Y-79425800D01*
X69843650Y-79425800D01*
X69926200Y-79343250D01*
X69926200Y-78028800D01*
X69906200Y-78028800D01*
X69906200Y-77927200D01*
X69926200Y-77927200D01*
X69926200Y-77907200D01*
X70027800Y-77907200D01*
X70027800Y-77927200D01*
X71342250Y-77927200D01*
X71424800Y-77844650D01*
X71424800Y-76926081D01*
X71424800Y-76794719D01*
X71374530Y-76673357D01*
X71281643Y-76580470D01*
X71280991Y-76580200D01*
X74247319Y-76580200D01*
X74185438Y-76620850D01*
X74111364Y-76730587D01*
X74085331Y-76860400D01*
X74085331Y-79095600D01*
X74109759Y-79221504D01*
X74182450Y-79332162D01*
X74292187Y-79406236D01*
X74422000Y-79432269D01*
X76657200Y-79432269D01*
X76783104Y-79407841D01*
X76893762Y-79335150D01*
X76967836Y-79225413D01*
X76993869Y-79095600D01*
X76993869Y-76860400D01*
X76969441Y-76734496D01*
X76896750Y-76623838D01*
X76832102Y-76580200D01*
X77291737Y-76580200D01*
X77266704Y-96469200D01*
X83756423Y-96469200D01*
G36*
X86868800Y-134493800D02*
X86748754Y-134493800D01*
X86748754Y-89061539D01*
X86631061Y-88776701D01*
X86413325Y-88558584D01*
X86128693Y-88440395D01*
X85820499Y-88440126D01*
X85535661Y-88557819D01*
X85317544Y-88775555D01*
X85199355Y-89060187D01*
X85199086Y-89368381D01*
X85316779Y-89653219D01*
X85534515Y-89871336D01*
X85819147Y-89989525D01*
X86127341Y-89989794D01*
X86412179Y-89872101D01*
X86630296Y-89654365D01*
X86748485Y-89369733D01*
X86748754Y-89061539D01*
X86748754Y-134493800D01*
X86438874Y-134493800D01*
X86438874Y-119795539D01*
X86321181Y-119510701D01*
X86103445Y-119292584D01*
X85991817Y-119246232D01*
X85991817Y-99942699D01*
X85889559Y-99695217D01*
X85700378Y-99505706D01*
X85453075Y-99403017D01*
X85185299Y-99402783D01*
X84937817Y-99505041D01*
X84748306Y-99694222D01*
X84645617Y-99941525D01*
X84645383Y-100209301D01*
X84747641Y-100456783D01*
X84936822Y-100646294D01*
X85184125Y-100748983D01*
X85451901Y-100749217D01*
X85699383Y-100646959D01*
X85888894Y-100457778D01*
X85991583Y-100210475D01*
X85991817Y-99942699D01*
X85991817Y-119246232D01*
X85818813Y-119174395D01*
X85510619Y-119174126D01*
X85225781Y-119291819D01*
X85159969Y-119357516D01*
X85159969Y-112064800D01*
X85159969Y-109829600D01*
X85135541Y-109703696D01*
X85062850Y-109593038D01*
X84953113Y-109518964D01*
X84823300Y-109492931D01*
X82588100Y-109492931D01*
X82462196Y-109517359D01*
X82351538Y-109590050D01*
X82277464Y-109699787D01*
X82251431Y-109829600D01*
X82251431Y-112064800D01*
X82275859Y-112190704D01*
X82348550Y-112301362D01*
X82458287Y-112375436D01*
X82588100Y-112401469D01*
X84823300Y-112401469D01*
X84949204Y-112377041D01*
X85059862Y-112304350D01*
X85133936Y-112194613D01*
X85159969Y-112064800D01*
X85159969Y-119357516D01*
X85007664Y-119509555D01*
X84889475Y-119794187D01*
X84889206Y-120102381D01*
X85006899Y-120387219D01*
X85224635Y-120605336D01*
X85509267Y-120723525D01*
X85817461Y-120723794D01*
X86102299Y-120606101D01*
X86320416Y-120388365D01*
X86438605Y-120103733D01*
X86438874Y-119795539D01*
X86438874Y-134493800D01*
X84396344Y-134493800D01*
X84396344Y-128827587D01*
X84396344Y-123827587D01*
X84270220Y-123522344D01*
X84036885Y-123288601D01*
X83731862Y-123161944D01*
X83401587Y-123161656D01*
X83096344Y-123287780D01*
X83070817Y-123313262D01*
X83070817Y-114725499D01*
X82968559Y-114478017D01*
X82779378Y-114288506D01*
X82532075Y-114185817D01*
X82264299Y-114185583D01*
X82016817Y-114287841D01*
X81827306Y-114477022D01*
X81724617Y-114724325D01*
X81724383Y-114992101D01*
X81826641Y-115239583D01*
X82015822Y-115429094D01*
X82263125Y-115531783D01*
X82530901Y-115532017D01*
X82778383Y-115429759D01*
X82967894Y-115240578D01*
X83070583Y-114993275D01*
X83070817Y-114725499D01*
X83070817Y-123313262D01*
X82862601Y-123521115D01*
X82735944Y-123826138D01*
X82735656Y-124156413D01*
X82861780Y-124461656D01*
X83095115Y-124695399D01*
X83400138Y-124822056D01*
X83730413Y-124822344D01*
X84035656Y-124696220D01*
X84269399Y-124462885D01*
X84396056Y-124157862D01*
X84396344Y-123827587D01*
X84396344Y-128827587D01*
X84270220Y-128522344D01*
X84036885Y-128288601D01*
X83731862Y-128161944D01*
X83401587Y-128161656D01*
X83096344Y-128287780D01*
X82862601Y-128521115D01*
X82735944Y-128826138D01*
X82735656Y-129156413D01*
X82861780Y-129461656D01*
X83095115Y-129695399D01*
X83400138Y-129822056D01*
X83730413Y-129822344D01*
X84035656Y-129696220D01*
X84269399Y-129462885D01*
X84396056Y-129157862D01*
X84396344Y-128827587D01*
X84396344Y-134493800D01*
X83750269Y-134493800D01*
X83750269Y-134112000D01*
X83750269Y-132080000D01*
X83725841Y-131954096D01*
X83653150Y-131843438D01*
X83543413Y-131769364D01*
X83413600Y-131743331D01*
X81896344Y-131743331D01*
X81896344Y-126227587D01*
X81770220Y-125922344D01*
X81536885Y-125688601D01*
X81318217Y-125597801D01*
X81318217Y-110966299D01*
X81215959Y-110718817D01*
X81026778Y-110529306D01*
X80779475Y-110426617D01*
X80511699Y-110426383D01*
X80264217Y-110528641D01*
X80074706Y-110717822D01*
X79972017Y-110965125D01*
X79971783Y-111232901D01*
X80074041Y-111480383D01*
X80263222Y-111669894D01*
X80510525Y-111772583D01*
X80778301Y-111772817D01*
X81025783Y-111670559D01*
X81215294Y-111481378D01*
X81317983Y-111234075D01*
X81318217Y-110966299D01*
X81318217Y-125597801D01*
X81231862Y-125561944D01*
X80901587Y-125561656D01*
X80596344Y-125687780D01*
X80378434Y-125905309D01*
X80378434Y-124601219D01*
X80260741Y-124316381D01*
X80043005Y-124098264D01*
X79758373Y-123980075D01*
X79450179Y-123979806D01*
X79197334Y-124084279D01*
X79197334Y-116496079D01*
X79079641Y-116211241D01*
X78861905Y-115993124D01*
X78841717Y-115984741D01*
X78841717Y-115055699D01*
X78739459Y-114808217D01*
X78550278Y-114618706D01*
X78302975Y-114516017D01*
X78035199Y-114515783D01*
X77787717Y-114618041D01*
X77598206Y-114807222D01*
X77495517Y-115054525D01*
X77495283Y-115322301D01*
X77597541Y-115569783D01*
X77786722Y-115759294D01*
X78034025Y-115861983D01*
X78301801Y-115862217D01*
X78549283Y-115759959D01*
X78738794Y-115570778D01*
X78841483Y-115323475D01*
X78841717Y-115055699D01*
X78841717Y-115984741D01*
X78577273Y-115874935D01*
X78269079Y-115874666D01*
X77984241Y-115992359D01*
X77766124Y-116210095D01*
X77647935Y-116494727D01*
X77647666Y-116802921D01*
X77765359Y-117087759D01*
X77983095Y-117305876D01*
X78267727Y-117424065D01*
X78575921Y-117424334D01*
X78860759Y-117306641D01*
X79078876Y-117088905D01*
X79197065Y-116804273D01*
X79197334Y-116496079D01*
X79197334Y-124084279D01*
X79165341Y-124097499D01*
X78947224Y-124315235D01*
X78829035Y-124599867D01*
X78828766Y-124908061D01*
X78946459Y-125192899D01*
X79164195Y-125411016D01*
X79448827Y-125529205D01*
X79757021Y-125529474D01*
X80041859Y-125411781D01*
X80259976Y-125194045D01*
X80378165Y-124909413D01*
X80378434Y-124601219D01*
X80378434Y-125905309D01*
X80362601Y-125921115D01*
X80235944Y-126226138D01*
X80235656Y-126556413D01*
X80361780Y-126861656D01*
X80595115Y-127095399D01*
X80900138Y-127222056D01*
X81230413Y-127222344D01*
X81535656Y-127096220D01*
X81769399Y-126862885D01*
X81896056Y-126557862D01*
X81896344Y-126227587D01*
X81896344Y-131743331D01*
X81686400Y-131743331D01*
X81560496Y-131767759D01*
X81449838Y-131840450D01*
X81375764Y-131950187D01*
X81349731Y-132080000D01*
X81349731Y-134112000D01*
X81374159Y-134237904D01*
X81446850Y-134348562D01*
X81556587Y-134422636D01*
X81686400Y-134448669D01*
X83413600Y-134448669D01*
X83539504Y-134424241D01*
X83650162Y-134351550D01*
X83724236Y-134241813D01*
X83750269Y-134112000D01*
X83750269Y-134493800D01*
X81203800Y-134493800D01*
X81203800Y-133274774D01*
X81203800Y-132917226D01*
X81112927Y-132460379D01*
X80854144Y-132073082D01*
X80466847Y-131814299D01*
X80010000Y-131723426D01*
X79553153Y-131814299D01*
X79165856Y-132073082D01*
X78907073Y-132460379D01*
X78816200Y-132917226D01*
X78816200Y-133274774D01*
X78907073Y-133731621D01*
X79165856Y-134118918D01*
X79553153Y-134377701D01*
X80010000Y-134468574D01*
X80466847Y-134377701D01*
X80854144Y-134118918D01*
X81112927Y-133731621D01*
X81203800Y-133274774D01*
X81203800Y-134493800D01*
X78663800Y-134493800D01*
X78663800Y-133274774D01*
X78663800Y-132917226D01*
X78572927Y-132460379D01*
X78314144Y-132073082D01*
X77926847Y-131814299D01*
X77470000Y-131723426D01*
X77013153Y-131814299D01*
X76625856Y-132073082D01*
X76367073Y-132460379D01*
X76276200Y-132917226D01*
X76276200Y-133274774D01*
X76367073Y-133731621D01*
X76625856Y-134118918D01*
X77013153Y-134377701D01*
X77470000Y-134468574D01*
X77926847Y-134377701D01*
X78314144Y-134118918D01*
X78572927Y-133731621D01*
X78663800Y-133274774D01*
X78663800Y-134493800D01*
X76123800Y-134493800D01*
X76123800Y-133274774D01*
X76123800Y-132917226D01*
X76032927Y-132460379D01*
X75774144Y-132073082D01*
X75386847Y-131814299D01*
X74930000Y-131723426D01*
X74473153Y-131814299D01*
X74085856Y-132073082D01*
X73827073Y-132460379D01*
X73736200Y-132917226D01*
X73736200Y-133274774D01*
X73827073Y-133731621D01*
X74085856Y-134118918D01*
X74473153Y-134377701D01*
X74930000Y-134468574D01*
X75386847Y-134377701D01*
X75774144Y-134118918D01*
X76032927Y-133731621D01*
X76123800Y-133274774D01*
X76123800Y-134493800D01*
X73583800Y-134493800D01*
X73583800Y-133299200D01*
X73583800Y-133146800D01*
X73583800Y-133045200D01*
X73583800Y-132892800D01*
X73473487Y-132439819D01*
X73198223Y-132063535D01*
X72799914Y-131821232D01*
X72626757Y-131773512D01*
X72440800Y-131833512D01*
X72440800Y-133045200D01*
X73583800Y-133045200D01*
X73583800Y-133146800D01*
X72440800Y-133146800D01*
X72440800Y-134358488D01*
X72626757Y-134418488D01*
X72799914Y-134370768D01*
X73198223Y-134128465D01*
X73473487Y-133752181D01*
X73583800Y-133299200D01*
X73583800Y-134493800D01*
X72339200Y-134493800D01*
X72339200Y-134358488D01*
X72339200Y-133146800D01*
X72339200Y-133045200D01*
X72339200Y-131833512D01*
X72153243Y-131773512D01*
X71980086Y-131821232D01*
X71581777Y-132063535D01*
X71306513Y-132439819D01*
X71196200Y-132892800D01*
X71196200Y-133045200D01*
X72339200Y-133045200D01*
X72339200Y-133146800D01*
X71196200Y-133146800D01*
X71196200Y-133299200D01*
X71306513Y-133752181D01*
X71581777Y-134128465D01*
X71980086Y-134370768D01*
X72153243Y-134418488D01*
X72339200Y-134358488D01*
X72339200Y-134493800D01*
X70967600Y-134493800D01*
X70967600Y-131633148D01*
X77177944Y-131648387D01*
X77165243Y-109344461D01*
X84251800Y-109344461D01*
X84251800Y-95984182D01*
X82778734Y-95981848D01*
X82778734Y-88073479D01*
X82753200Y-88011682D01*
X82753200Y-79241650D01*
X82753200Y-78028800D01*
X82753200Y-77927200D01*
X82753200Y-76714350D01*
X82670650Y-76631800D01*
X81853681Y-76631800D01*
X81722319Y-76631800D01*
X81600957Y-76682070D01*
X81508070Y-76774957D01*
X81457800Y-76896319D01*
X81457800Y-77844650D01*
X81540350Y-77927200D01*
X82753200Y-77927200D01*
X82753200Y-78028800D01*
X81540350Y-78028800D01*
X81457800Y-78111350D01*
X81457800Y-79059681D01*
X81508070Y-79181043D01*
X81600957Y-79273930D01*
X81722319Y-79324200D01*
X81853681Y-79324200D01*
X82670650Y-79324200D01*
X82753200Y-79241650D01*
X82753200Y-88011682D01*
X82661041Y-87788641D01*
X82443305Y-87570524D01*
X82158673Y-87452335D01*
X81850479Y-87452066D01*
X81565641Y-87569759D01*
X81347524Y-87787495D01*
X81229335Y-88072127D01*
X81229066Y-88380321D01*
X81346759Y-88665159D01*
X81564495Y-88883276D01*
X81849127Y-89001465D01*
X82157321Y-89001734D01*
X82442159Y-88884041D01*
X82660276Y-88666305D01*
X82778465Y-88381673D01*
X82778734Y-88073479D01*
X82778734Y-95981848D01*
X80568800Y-95978347D01*
X80568800Y-79161281D01*
X80568800Y-79029919D01*
X80568800Y-78111350D01*
X80486250Y-78028800D01*
X79171800Y-78028800D01*
X79171800Y-79343250D01*
X79254350Y-79425800D01*
X80304281Y-79425800D01*
X80425643Y-79375530D01*
X80518530Y-79282643D01*
X80568800Y-79161281D01*
X80568800Y-95978347D01*
X77838251Y-95974021D01*
X77827627Y-79380198D01*
X77937719Y-79425800D01*
X78987650Y-79425800D01*
X79070200Y-79343250D01*
X79070200Y-78028800D01*
X79050200Y-78028800D01*
X79050200Y-77927200D01*
X79070200Y-77927200D01*
X79070200Y-77907200D01*
X79171800Y-77907200D01*
X79171800Y-77927200D01*
X80486250Y-77927200D01*
X80568800Y-77844650D01*
X80568800Y-76926081D01*
X80568800Y-76794719D01*
X80518530Y-76673357D01*
X80425643Y-76580470D01*
X80424991Y-76580200D01*
X86868800Y-76580200D01*
X86868800Y-83578589D01*
X86794325Y-83503984D01*
X86690200Y-83460747D01*
X86690200Y-78004374D01*
X86690200Y-77951626D01*
X86587727Y-77436458D01*
X86295907Y-76999719D01*
X85859168Y-76707899D01*
X85344000Y-76605426D01*
X84828832Y-76707899D01*
X84392093Y-76999719D01*
X84150200Y-77361737D01*
X84150200Y-76896319D01*
X84099930Y-76774957D01*
X84007043Y-76682070D01*
X83885681Y-76631800D01*
X83754319Y-76631800D01*
X82937350Y-76631800D01*
X82854800Y-76714350D01*
X82854800Y-77927200D01*
X82874800Y-77927200D01*
X82874800Y-78028800D01*
X82854800Y-78028800D01*
X82854800Y-79241650D01*
X82937350Y-79324200D01*
X83754319Y-79324200D01*
X83885681Y-79324200D01*
X84007043Y-79273930D01*
X84099930Y-79181043D01*
X84150200Y-79059681D01*
X84150200Y-78594262D01*
X84392093Y-78956281D01*
X84828832Y-79248101D01*
X85344000Y-79350574D01*
X85859168Y-79248101D01*
X86295907Y-78956281D01*
X86587727Y-78519542D01*
X86690200Y-78004374D01*
X86690200Y-83460747D01*
X86509693Y-83385795D01*
X86201499Y-83385526D01*
X85916661Y-83503219D01*
X85698544Y-83720955D01*
X85580355Y-84005587D01*
X85580086Y-84313781D01*
X85697779Y-84598619D01*
X85915515Y-84816736D01*
X86200147Y-84934925D01*
X86508341Y-84935194D01*
X86793179Y-84817501D01*
X86868800Y-84742012D01*
X86868800Y-134493800D01*
X86868800Y-134493800D01*
G37*
X86868800Y-134493800D02*
X86748754Y-134493800D01*
X86748754Y-89061539D01*
X86631061Y-88776701D01*
X86413325Y-88558584D01*
X86128693Y-88440395D01*
X85820499Y-88440126D01*
X85535661Y-88557819D01*
X85317544Y-88775555D01*
X85199355Y-89060187D01*
X85199086Y-89368381D01*
X85316779Y-89653219D01*
X85534515Y-89871336D01*
X85819147Y-89989525D01*
X86127341Y-89989794D01*
X86412179Y-89872101D01*
X86630296Y-89654365D01*
X86748485Y-89369733D01*
X86748754Y-89061539D01*
X86748754Y-134493800D01*
X86438874Y-134493800D01*
X86438874Y-119795539D01*
X86321181Y-119510701D01*
X86103445Y-119292584D01*
X85991817Y-119246232D01*
X85991817Y-99942699D01*
X85889559Y-99695217D01*
X85700378Y-99505706D01*
X85453075Y-99403017D01*
X85185299Y-99402783D01*
X84937817Y-99505041D01*
X84748306Y-99694222D01*
X84645617Y-99941525D01*
X84645383Y-100209301D01*
X84747641Y-100456783D01*
X84936822Y-100646294D01*
X85184125Y-100748983D01*
X85451901Y-100749217D01*
X85699383Y-100646959D01*
X85888894Y-100457778D01*
X85991583Y-100210475D01*
X85991817Y-99942699D01*
X85991817Y-119246232D01*
X85818813Y-119174395D01*
X85510619Y-119174126D01*
X85225781Y-119291819D01*
X85159969Y-119357516D01*
X85159969Y-112064800D01*
X85159969Y-109829600D01*
X85135541Y-109703696D01*
X85062850Y-109593038D01*
X84953113Y-109518964D01*
X84823300Y-109492931D01*
X82588100Y-109492931D01*
X82462196Y-109517359D01*
X82351538Y-109590050D01*
X82277464Y-109699787D01*
X82251431Y-109829600D01*
X82251431Y-112064800D01*
X82275859Y-112190704D01*
X82348550Y-112301362D01*
X82458287Y-112375436D01*
X82588100Y-112401469D01*
X84823300Y-112401469D01*
X84949204Y-112377041D01*
X85059862Y-112304350D01*
X85133936Y-112194613D01*
X85159969Y-112064800D01*
X85159969Y-119357516D01*
X85007664Y-119509555D01*
X84889475Y-119794187D01*
X84889206Y-120102381D01*
X85006899Y-120387219D01*
X85224635Y-120605336D01*
X85509267Y-120723525D01*
X85817461Y-120723794D01*
X86102299Y-120606101D01*
X86320416Y-120388365D01*
X86438605Y-120103733D01*
X86438874Y-119795539D01*
X86438874Y-134493800D01*
X84396344Y-134493800D01*
X84396344Y-128827587D01*
X84396344Y-123827587D01*
X84270220Y-123522344D01*
X84036885Y-123288601D01*
X83731862Y-123161944D01*
X83401587Y-123161656D01*
X83096344Y-123287780D01*
X83070817Y-123313262D01*
X83070817Y-114725499D01*
X82968559Y-114478017D01*
X82779378Y-114288506D01*
X82532075Y-114185817D01*
X82264299Y-114185583D01*
X82016817Y-114287841D01*
X81827306Y-114477022D01*
X81724617Y-114724325D01*
X81724383Y-114992101D01*
X81826641Y-115239583D01*
X82015822Y-115429094D01*
X82263125Y-115531783D01*
X82530901Y-115532017D01*
X82778383Y-115429759D01*
X82967894Y-115240578D01*
X83070583Y-114993275D01*
X83070817Y-114725499D01*
X83070817Y-123313262D01*
X82862601Y-123521115D01*
X82735944Y-123826138D01*
X82735656Y-124156413D01*
X82861780Y-124461656D01*
X83095115Y-124695399D01*
X83400138Y-124822056D01*
X83730413Y-124822344D01*
X84035656Y-124696220D01*
X84269399Y-124462885D01*
X84396056Y-124157862D01*
X84396344Y-123827587D01*
X84396344Y-128827587D01*
X84270220Y-128522344D01*
X84036885Y-128288601D01*
X83731862Y-128161944D01*
X83401587Y-128161656D01*
X83096344Y-128287780D01*
X82862601Y-128521115D01*
X82735944Y-128826138D01*
X82735656Y-129156413D01*
X82861780Y-129461656D01*
X83095115Y-129695399D01*
X83400138Y-129822056D01*
X83730413Y-129822344D01*
X84035656Y-129696220D01*
X84269399Y-129462885D01*
X84396056Y-129157862D01*
X84396344Y-128827587D01*
X84396344Y-134493800D01*
X83750269Y-134493800D01*
X83750269Y-134112000D01*
X83750269Y-132080000D01*
X83725841Y-131954096D01*
X83653150Y-131843438D01*
X83543413Y-131769364D01*
X83413600Y-131743331D01*
X81896344Y-131743331D01*
X81896344Y-126227587D01*
X81770220Y-125922344D01*
X81536885Y-125688601D01*
X81318217Y-125597801D01*
X81318217Y-110966299D01*
X81215959Y-110718817D01*
X81026778Y-110529306D01*
X80779475Y-110426617D01*
X80511699Y-110426383D01*
X80264217Y-110528641D01*
X80074706Y-110717822D01*
X79972017Y-110965125D01*
X79971783Y-111232901D01*
X80074041Y-111480383D01*
X80263222Y-111669894D01*
X80510525Y-111772583D01*
X80778301Y-111772817D01*
X81025783Y-111670559D01*
X81215294Y-111481378D01*
X81317983Y-111234075D01*
X81318217Y-110966299D01*
X81318217Y-125597801D01*
X81231862Y-125561944D01*
X80901587Y-125561656D01*
X80596344Y-125687780D01*
X80378434Y-125905309D01*
X80378434Y-124601219D01*
X80260741Y-124316381D01*
X80043005Y-124098264D01*
X79758373Y-123980075D01*
X79450179Y-123979806D01*
X79197334Y-124084279D01*
X79197334Y-116496079D01*
X79079641Y-116211241D01*
X78861905Y-115993124D01*
X78841717Y-115984741D01*
X78841717Y-115055699D01*
X78739459Y-114808217D01*
X78550278Y-114618706D01*
X78302975Y-114516017D01*
X78035199Y-114515783D01*
X77787717Y-114618041D01*
X77598206Y-114807222D01*
X77495517Y-115054525D01*
X77495283Y-115322301D01*
X77597541Y-115569783D01*
X77786722Y-115759294D01*
X78034025Y-115861983D01*
X78301801Y-115862217D01*
X78549283Y-115759959D01*
X78738794Y-115570778D01*
X78841483Y-115323475D01*
X78841717Y-115055699D01*
X78841717Y-115984741D01*
X78577273Y-115874935D01*
X78269079Y-115874666D01*
X77984241Y-115992359D01*
X77766124Y-116210095D01*
X77647935Y-116494727D01*
X77647666Y-116802921D01*
X77765359Y-117087759D01*
X77983095Y-117305876D01*
X78267727Y-117424065D01*
X78575921Y-117424334D01*
X78860759Y-117306641D01*
X79078876Y-117088905D01*
X79197065Y-116804273D01*
X79197334Y-116496079D01*
X79197334Y-124084279D01*
X79165341Y-124097499D01*
X78947224Y-124315235D01*
X78829035Y-124599867D01*
X78828766Y-124908061D01*
X78946459Y-125192899D01*
X79164195Y-125411016D01*
X79448827Y-125529205D01*
X79757021Y-125529474D01*
X80041859Y-125411781D01*
X80259976Y-125194045D01*
X80378165Y-124909413D01*
X80378434Y-124601219D01*
X80378434Y-125905309D01*
X80362601Y-125921115D01*
X80235944Y-126226138D01*
X80235656Y-126556413D01*
X80361780Y-126861656D01*
X80595115Y-127095399D01*
X80900138Y-127222056D01*
X81230413Y-127222344D01*
X81535656Y-127096220D01*
X81769399Y-126862885D01*
X81896056Y-126557862D01*
X81896344Y-126227587D01*
X81896344Y-131743331D01*
X81686400Y-131743331D01*
X81560496Y-131767759D01*
X81449838Y-131840450D01*
X81375764Y-131950187D01*
X81349731Y-132080000D01*
X81349731Y-134112000D01*
X81374159Y-134237904D01*
X81446850Y-134348562D01*
X81556587Y-134422636D01*
X81686400Y-134448669D01*
X83413600Y-134448669D01*
X83539504Y-134424241D01*
X83650162Y-134351550D01*
X83724236Y-134241813D01*
X83750269Y-134112000D01*
X83750269Y-134493800D01*
X81203800Y-134493800D01*
X81203800Y-133274774D01*
X81203800Y-132917226D01*
X81112927Y-132460379D01*
X80854144Y-132073082D01*
X80466847Y-131814299D01*
X80010000Y-131723426D01*
X79553153Y-131814299D01*
X79165856Y-132073082D01*
X78907073Y-132460379D01*
X78816200Y-132917226D01*
X78816200Y-133274774D01*
X78907073Y-133731621D01*
X79165856Y-134118918D01*
X79553153Y-134377701D01*
X80010000Y-134468574D01*
X80466847Y-134377701D01*
X80854144Y-134118918D01*
X81112927Y-133731621D01*
X81203800Y-133274774D01*
X81203800Y-134493800D01*
X78663800Y-134493800D01*
X78663800Y-133274774D01*
X78663800Y-132917226D01*
X78572927Y-132460379D01*
X78314144Y-132073082D01*
X77926847Y-131814299D01*
X77470000Y-131723426D01*
X77013153Y-131814299D01*
X76625856Y-132073082D01*
X76367073Y-132460379D01*
X76276200Y-132917226D01*
X76276200Y-133274774D01*
X76367073Y-133731621D01*
X76625856Y-134118918D01*
X77013153Y-134377701D01*
X77470000Y-134468574D01*
X77926847Y-134377701D01*
X78314144Y-134118918D01*
X78572927Y-133731621D01*
X78663800Y-133274774D01*
X78663800Y-134493800D01*
X76123800Y-134493800D01*
X76123800Y-133274774D01*
X76123800Y-132917226D01*
X76032927Y-132460379D01*
X75774144Y-132073082D01*
X75386847Y-131814299D01*
X74930000Y-131723426D01*
X74473153Y-131814299D01*
X74085856Y-132073082D01*
X73827073Y-132460379D01*
X73736200Y-132917226D01*
X73736200Y-133274774D01*
X73827073Y-133731621D01*
X74085856Y-134118918D01*
X74473153Y-134377701D01*
X74930000Y-134468574D01*
X75386847Y-134377701D01*
X75774144Y-134118918D01*
X76032927Y-133731621D01*
X76123800Y-133274774D01*
X76123800Y-134493800D01*
X73583800Y-134493800D01*
X73583800Y-133299200D01*
X73583800Y-133146800D01*
X73583800Y-133045200D01*
X73583800Y-132892800D01*
X73473487Y-132439819D01*
X73198223Y-132063535D01*
X72799914Y-131821232D01*
X72626757Y-131773512D01*
X72440800Y-131833512D01*
X72440800Y-133045200D01*
X73583800Y-133045200D01*
X73583800Y-133146800D01*
X72440800Y-133146800D01*
X72440800Y-134358488D01*
X72626757Y-134418488D01*
X72799914Y-134370768D01*
X73198223Y-134128465D01*
X73473487Y-133752181D01*
X73583800Y-133299200D01*
X73583800Y-134493800D01*
X72339200Y-134493800D01*
X72339200Y-134358488D01*
X72339200Y-133146800D01*
X72339200Y-133045200D01*
X72339200Y-131833512D01*
X72153243Y-131773512D01*
X71980086Y-131821232D01*
X71581777Y-132063535D01*
X71306513Y-132439819D01*
X71196200Y-132892800D01*
X71196200Y-133045200D01*
X72339200Y-133045200D01*
X72339200Y-133146800D01*
X71196200Y-133146800D01*
X71196200Y-133299200D01*
X71306513Y-133752181D01*
X71581777Y-134128465D01*
X71980086Y-134370768D01*
X72153243Y-134418488D01*
X72339200Y-134358488D01*
X72339200Y-134493800D01*
X70967600Y-134493800D01*
X70967600Y-131633148D01*
X77177944Y-131648387D01*
X77165243Y-109344461D01*
X84251800Y-109344461D01*
X84251800Y-95984182D01*
X82778734Y-95981848D01*
X82778734Y-88073479D01*
X82753200Y-88011682D01*
X82753200Y-79241650D01*
X82753200Y-78028800D01*
X82753200Y-77927200D01*
X82753200Y-76714350D01*
X82670650Y-76631800D01*
X81853681Y-76631800D01*
X81722319Y-76631800D01*
X81600957Y-76682070D01*
X81508070Y-76774957D01*
X81457800Y-76896319D01*
X81457800Y-77844650D01*
X81540350Y-77927200D01*
X82753200Y-77927200D01*
X82753200Y-78028800D01*
X81540350Y-78028800D01*
X81457800Y-78111350D01*
X81457800Y-79059681D01*
X81508070Y-79181043D01*
X81600957Y-79273930D01*
X81722319Y-79324200D01*
X81853681Y-79324200D01*
X82670650Y-79324200D01*
X82753200Y-79241650D01*
X82753200Y-88011682D01*
X82661041Y-87788641D01*
X82443305Y-87570524D01*
X82158673Y-87452335D01*
X81850479Y-87452066D01*
X81565641Y-87569759D01*
X81347524Y-87787495D01*
X81229335Y-88072127D01*
X81229066Y-88380321D01*
X81346759Y-88665159D01*
X81564495Y-88883276D01*
X81849127Y-89001465D01*
X82157321Y-89001734D01*
X82442159Y-88884041D01*
X82660276Y-88666305D01*
X82778465Y-88381673D01*
X82778734Y-88073479D01*
X82778734Y-95981848D01*
X80568800Y-95978347D01*
X80568800Y-79161281D01*
X80568800Y-79029919D01*
X80568800Y-78111350D01*
X80486250Y-78028800D01*
X79171800Y-78028800D01*
X79171800Y-79343250D01*
X79254350Y-79425800D01*
X80304281Y-79425800D01*
X80425643Y-79375530D01*
X80518530Y-79282643D01*
X80568800Y-79161281D01*
X80568800Y-95978347D01*
X77838251Y-95974021D01*
X77827627Y-79380198D01*
X77937719Y-79425800D01*
X78987650Y-79425800D01*
X79070200Y-79343250D01*
X79070200Y-78028800D01*
X79050200Y-78028800D01*
X79050200Y-77927200D01*
X79070200Y-77927200D01*
X79070200Y-77907200D01*
X79171800Y-77907200D01*
X79171800Y-77927200D01*
X80486250Y-77927200D01*
X80568800Y-77844650D01*
X80568800Y-76926081D01*
X80568800Y-76794719D01*
X80518530Y-76673357D01*
X80425643Y-76580470D01*
X80424991Y-76580200D01*
X86868800Y-76580200D01*
X86868800Y-83578589D01*
X86794325Y-83503984D01*
X86690200Y-83460747D01*
X86690200Y-78004374D01*
X86690200Y-77951626D01*
X86587727Y-77436458D01*
X86295907Y-76999719D01*
X85859168Y-76707899D01*
X85344000Y-76605426D01*
X84828832Y-76707899D01*
X84392093Y-76999719D01*
X84150200Y-77361737D01*
X84150200Y-76896319D01*
X84099930Y-76774957D01*
X84007043Y-76682070D01*
X83885681Y-76631800D01*
X83754319Y-76631800D01*
X82937350Y-76631800D01*
X82854800Y-76714350D01*
X82854800Y-77927200D01*
X82874800Y-77927200D01*
X82874800Y-78028800D01*
X82854800Y-78028800D01*
X82854800Y-79241650D01*
X82937350Y-79324200D01*
X83754319Y-79324200D01*
X83885681Y-79324200D01*
X84007043Y-79273930D01*
X84099930Y-79181043D01*
X84150200Y-79059681D01*
X84150200Y-78594262D01*
X84392093Y-78956281D01*
X84828832Y-79248101D01*
X85344000Y-79350574D01*
X85859168Y-79248101D01*
X86295907Y-78956281D01*
X86587727Y-78519542D01*
X86690200Y-78004374D01*
X86690200Y-83460747D01*
X86509693Y-83385795D01*
X86201499Y-83385526D01*
X85916661Y-83503219D01*
X85698544Y-83720955D01*
X85580355Y-84005587D01*
X85580086Y-84313781D01*
X85697779Y-84598619D01*
X85915515Y-84816736D01*
X86200147Y-84934925D01*
X86508341Y-84935194D01*
X86793179Y-84817501D01*
X86868800Y-84742012D01*
X86868800Y-134493800D01*
M02*
