G04 #@! TF.FileFunction,Copper,L2,Inr,Signal*
%FSLAX46Y46*%
G04 Gerber Fmt 4.6, Leading zero omitted, Abs format (unit mm)*
G04 Created by KiCad (PCBNEW 0.201505262310+5684~23~ubuntu14.04.1-product) date Mon 01 Jun 2015 21:54:35 CEST*
%MOMM*%
G01*
G04 APERTURE LIST*
%ADD10C,0.100000*%
%ADD11R,2.032000X2.032000*%
%ADD12O,2.032000X2.032000*%
%ADD13R,2.235200X2.235200*%
%ADD14R,1.727200X2.032000*%
%ADD15O,1.727200X2.032000*%
%ADD16C,1.000000*%
%ADD17C,0.889000*%
%ADD18C,0.685800*%
%ADD19C,0.152400*%
G04 APERTURE END LIST*
D10*
D11*
X82804000Y-77978000D03*
D12*
X85344000Y-77978000D03*
D13*
X69977000Y-77978000D03*
X75539600Y-77978000D03*
X79121000Y-77978000D03*
D14*
X82550000Y-133096000D03*
D15*
X80010000Y-133096000D03*
X77470000Y-133096000D03*
X74930000Y-133096000D03*
X72390000Y-133096000D03*
D13*
X69977000Y-91059000D03*
X69977000Y-103632000D03*
X69977000Y-116205000D03*
X69977000Y-128397000D03*
D16*
X83566000Y-123992000D03*
X81066000Y-126392000D03*
X83566000Y-128992000D03*
D13*
X83705700Y-110947200D03*
D17*
X85852000Y-128270000D03*
X83820000Y-93980000D03*
X80772000Y-87249000D03*
X85090000Y-102616000D03*
X77851000Y-117792500D03*
X85788500Y-113792000D03*
X78422500Y-116649500D03*
X75692000Y-102616000D03*
X82003900Y-88226900D03*
X86354920Y-84160360D03*
X85973920Y-89214960D03*
X79603600Y-124754640D03*
X85664040Y-119948960D03*
D18*
X82397600Y-114858800D03*
X81445100Y-107937300D03*
X79717900Y-102006400D03*
X76962000Y-97307400D03*
X74803000Y-84582000D03*
X75692000Y-107340400D03*
X80645000Y-111099600D03*
X75311000Y-96837500D03*
X82842100Y-107873800D03*
X71183500Y-106045000D03*
X76073000Y-109791500D03*
X72072500Y-119761000D03*
X73025000Y-115443000D03*
X78905100Y-108089700D03*
X74104500Y-125857000D03*
X73152000Y-120002300D03*
X85318600Y-100076000D03*
D17*
X76200000Y-89916000D03*
X81089500Y-101346000D03*
X75628500Y-101346000D03*
X72263000Y-101092000D03*
X72390000Y-88646000D03*
X81089500Y-103886000D03*
X75628500Y-103949500D03*
X72834500Y-126809500D03*
X72707500Y-114236500D03*
D18*
X78168500Y-115189000D03*
D19*
G36*
X86868800Y-134493800D02*
X86690200Y-134493800D01*
X86690200Y-78004374D01*
X86690200Y-77951626D01*
X86587727Y-77436458D01*
X86295907Y-76999719D01*
X85859168Y-76707899D01*
X85344000Y-76605426D01*
X84828832Y-76707899D01*
X84392093Y-76999719D01*
X84156669Y-77352055D01*
X84156669Y-76962000D01*
X84132241Y-76836096D01*
X84059550Y-76725438D01*
X83949813Y-76651364D01*
X83820000Y-76625331D01*
X81788000Y-76625331D01*
X81662096Y-76649759D01*
X81551438Y-76722450D01*
X81477364Y-76832187D01*
X81451331Y-76962000D01*
X81451331Y-78994000D01*
X81475759Y-79119904D01*
X81548450Y-79230562D01*
X81658187Y-79304636D01*
X81788000Y-79330669D01*
X83820000Y-79330669D01*
X83945904Y-79306241D01*
X84056562Y-79233550D01*
X84130636Y-79123813D01*
X84156669Y-78994000D01*
X84156669Y-78603944D01*
X84392093Y-78956281D01*
X84828832Y-79248101D01*
X85344000Y-79350574D01*
X85859168Y-79248101D01*
X86295907Y-78956281D01*
X86587727Y-78519542D01*
X86690200Y-78004374D01*
X86690200Y-134493800D01*
X86626834Y-134493800D01*
X86626834Y-128116579D01*
X86563334Y-127962897D01*
X86563334Y-113638579D01*
X86445641Y-113353741D01*
X86227905Y-113135624D01*
X85991817Y-113037592D01*
X85991817Y-99942699D01*
X85889559Y-99695217D01*
X85700378Y-99505706D01*
X85453075Y-99403017D01*
X85185299Y-99402783D01*
X84937817Y-99505041D01*
X84748306Y-99694222D01*
X84645617Y-99941525D01*
X84645383Y-100209301D01*
X84747641Y-100456783D01*
X84936822Y-100646294D01*
X85184125Y-100748983D01*
X85451901Y-100749217D01*
X85699383Y-100646959D01*
X85888894Y-100457778D01*
X85991583Y-100210475D01*
X85991817Y-99942699D01*
X85991817Y-113037592D01*
X85943273Y-113017435D01*
X85864834Y-113017366D01*
X85864834Y-102462579D01*
X85747141Y-102177741D01*
X85529405Y-101959624D01*
X85244773Y-101841435D01*
X84936579Y-101841166D01*
X84651741Y-101958859D01*
X84594834Y-102015666D01*
X84594834Y-93826579D01*
X84477141Y-93541741D01*
X84259405Y-93323624D01*
X83974773Y-93205435D01*
X83666579Y-93205166D01*
X83381741Y-93322859D01*
X83163624Y-93540595D01*
X83045435Y-93825227D01*
X83045166Y-94133421D01*
X83162859Y-94418259D01*
X83380595Y-94636376D01*
X83665227Y-94754565D01*
X83973421Y-94754834D01*
X84258259Y-94637141D01*
X84476376Y-94419405D01*
X84594565Y-94134773D01*
X84594834Y-93826579D01*
X84594834Y-102015666D01*
X84433624Y-102176595D01*
X84315435Y-102461227D01*
X84315166Y-102769421D01*
X84432859Y-103054259D01*
X84650595Y-103272376D01*
X84935227Y-103390565D01*
X85243421Y-103390834D01*
X85528259Y-103273141D01*
X85746376Y-103055405D01*
X85864565Y-102770773D01*
X85864834Y-102462579D01*
X85864834Y-113017366D01*
X85635079Y-113017166D01*
X85350241Y-113134859D01*
X85159969Y-113324798D01*
X85159969Y-112064800D01*
X85159969Y-109829600D01*
X85135541Y-109703696D01*
X85062850Y-109593038D01*
X84953113Y-109518964D01*
X84823300Y-109492931D01*
X83515317Y-109492931D01*
X83515317Y-107740499D01*
X83413059Y-107493017D01*
X83223878Y-107303506D01*
X82976575Y-107200817D01*
X82708799Y-107200583D01*
X82461317Y-107302841D01*
X82271806Y-107492022D01*
X82169117Y-107739325D01*
X82168883Y-108007101D01*
X82271141Y-108254583D01*
X82460322Y-108444094D01*
X82707625Y-108546783D01*
X82975401Y-108547017D01*
X83222883Y-108444759D01*
X83412394Y-108255578D01*
X83515083Y-108008275D01*
X83515317Y-107740499D01*
X83515317Y-109492931D01*
X82588100Y-109492931D01*
X82462196Y-109517359D01*
X82351538Y-109590050D01*
X82277464Y-109699787D01*
X82251431Y-109829600D01*
X82251431Y-112064800D01*
X82275859Y-112190704D01*
X82348550Y-112301362D01*
X82458287Y-112375436D01*
X82588100Y-112401469D01*
X84823300Y-112401469D01*
X84949204Y-112377041D01*
X85059862Y-112304350D01*
X85133936Y-112194613D01*
X85159969Y-112064800D01*
X85159969Y-113324798D01*
X85132124Y-113352595D01*
X85013935Y-113637227D01*
X85013666Y-113945421D01*
X85131359Y-114230259D01*
X85349095Y-114448376D01*
X85633727Y-114566565D01*
X85941921Y-114566834D01*
X86226759Y-114449141D01*
X86444876Y-114231405D01*
X86563065Y-113946773D01*
X86563334Y-113638579D01*
X86563334Y-127962897D01*
X86509141Y-127831741D01*
X86291405Y-127613624D01*
X86006773Y-127495435D01*
X85698579Y-127495166D01*
X85413741Y-127612859D01*
X85195624Y-127830595D01*
X85077435Y-128115227D01*
X85077166Y-128423421D01*
X85194859Y-128708259D01*
X85412595Y-128926376D01*
X85697227Y-129044565D01*
X86005421Y-129044834D01*
X86290259Y-128927141D01*
X86508376Y-128709405D01*
X86626565Y-128424773D01*
X86626834Y-128116579D01*
X86626834Y-134493800D01*
X84396344Y-134493800D01*
X84396344Y-128827587D01*
X84396344Y-123827587D01*
X84270220Y-123522344D01*
X84036885Y-123288601D01*
X83731862Y-123161944D01*
X83401587Y-123161656D01*
X83096344Y-123287780D01*
X83070817Y-123313262D01*
X83070817Y-114725499D01*
X82968559Y-114478017D01*
X82779378Y-114288506D01*
X82532075Y-114185817D01*
X82264299Y-114185583D01*
X82118317Y-114245901D01*
X82118317Y-107803999D01*
X82016059Y-107556517D01*
X81864334Y-107404527D01*
X81864334Y-103732579D01*
X81864334Y-101192579D01*
X81746641Y-100907741D01*
X81546834Y-100707584D01*
X81546834Y-87095579D01*
X81429141Y-86810741D01*
X81211405Y-86592624D01*
X80926773Y-86474435D01*
X80618579Y-86474166D01*
X80333741Y-86591859D01*
X80115624Y-86809595D01*
X79997435Y-87094227D01*
X79997166Y-87402421D01*
X80114859Y-87687259D01*
X80332595Y-87905376D01*
X80617227Y-88023565D01*
X80925421Y-88023834D01*
X81210259Y-87906141D01*
X81428376Y-87688405D01*
X81546565Y-87403773D01*
X81546834Y-87095579D01*
X81546834Y-100707584D01*
X81528905Y-100689624D01*
X81244273Y-100571435D01*
X80936079Y-100571166D01*
X80651241Y-100688859D01*
X80433124Y-100906595D01*
X80314935Y-101191227D01*
X80314666Y-101499421D01*
X80432359Y-101784259D01*
X80650095Y-102002376D01*
X80934727Y-102120565D01*
X81242921Y-102120834D01*
X81527759Y-102003141D01*
X81745876Y-101785405D01*
X81864065Y-101500773D01*
X81864334Y-101192579D01*
X81864334Y-103732579D01*
X81746641Y-103447741D01*
X81528905Y-103229624D01*
X81244273Y-103111435D01*
X80936079Y-103111166D01*
X80651241Y-103228859D01*
X80433124Y-103446595D01*
X80391117Y-103547759D01*
X80391117Y-101873099D01*
X80288859Y-101625617D01*
X80099678Y-101436106D01*
X79852375Y-101333417D01*
X79584599Y-101333183D01*
X79337117Y-101435441D01*
X79147606Y-101624622D01*
X79044917Y-101871925D01*
X79044683Y-102139701D01*
X79146941Y-102387183D01*
X79336122Y-102576694D01*
X79583425Y-102679383D01*
X79851201Y-102679617D01*
X80098683Y-102577359D01*
X80288194Y-102388178D01*
X80390883Y-102140875D01*
X80391117Y-101873099D01*
X80391117Y-103547759D01*
X80314935Y-103731227D01*
X80314666Y-104039421D01*
X80432359Y-104324259D01*
X80650095Y-104542376D01*
X80934727Y-104660565D01*
X81242921Y-104660834D01*
X81527759Y-104543141D01*
X81745876Y-104325405D01*
X81864065Y-104040773D01*
X81864334Y-103732579D01*
X81864334Y-107404527D01*
X81826878Y-107367006D01*
X81579575Y-107264317D01*
X81311799Y-107264083D01*
X81064317Y-107366341D01*
X80874806Y-107555522D01*
X80772117Y-107802825D01*
X80771883Y-108070601D01*
X80874141Y-108318083D01*
X81063322Y-108507594D01*
X81310625Y-108610283D01*
X81578401Y-108610517D01*
X81825883Y-108508259D01*
X82015394Y-108319078D01*
X82118083Y-108071775D01*
X82118317Y-107803999D01*
X82118317Y-114245901D01*
X82016817Y-114287841D01*
X81827306Y-114477022D01*
X81724617Y-114724325D01*
X81724383Y-114992101D01*
X81826641Y-115239583D01*
X82015822Y-115429094D01*
X82263125Y-115531783D01*
X82530901Y-115532017D01*
X82778383Y-115429759D01*
X82967894Y-115240578D01*
X83070583Y-114993275D01*
X83070817Y-114725499D01*
X83070817Y-123313262D01*
X82862601Y-123521115D01*
X82735944Y-123826138D01*
X82735656Y-124156413D01*
X82861780Y-124461656D01*
X83095115Y-124695399D01*
X83400138Y-124822056D01*
X83730413Y-124822344D01*
X84035656Y-124696220D01*
X84269399Y-124462885D01*
X84396056Y-124157862D01*
X84396344Y-123827587D01*
X84396344Y-128827587D01*
X84270220Y-128522344D01*
X84036885Y-128288601D01*
X83731862Y-128161944D01*
X83401587Y-128161656D01*
X83096344Y-128287780D01*
X82862601Y-128521115D01*
X82735944Y-128826138D01*
X82735656Y-129156413D01*
X82861780Y-129461656D01*
X83095115Y-129695399D01*
X83400138Y-129822056D01*
X83730413Y-129822344D01*
X84035656Y-129696220D01*
X84269399Y-129462885D01*
X84396056Y-129157862D01*
X84396344Y-128827587D01*
X84396344Y-134493800D01*
X83750269Y-134493800D01*
X83750269Y-134112000D01*
X83750269Y-132080000D01*
X83725841Y-131954096D01*
X83653150Y-131843438D01*
X83543413Y-131769364D01*
X83413600Y-131743331D01*
X81896344Y-131743331D01*
X81896344Y-126227587D01*
X81770220Y-125922344D01*
X81536885Y-125688601D01*
X81318217Y-125597801D01*
X81318217Y-110966299D01*
X81215959Y-110718817D01*
X81026778Y-110529306D01*
X80779475Y-110426617D01*
X80511699Y-110426383D01*
X80264217Y-110528641D01*
X80074706Y-110717822D01*
X79972017Y-110965125D01*
X79971783Y-111232901D01*
X80074041Y-111480383D01*
X80263222Y-111669894D01*
X80510525Y-111772583D01*
X80778301Y-111772817D01*
X81025783Y-111670559D01*
X81215294Y-111481378D01*
X81317983Y-111234075D01*
X81318217Y-110966299D01*
X81318217Y-125597801D01*
X81231862Y-125561944D01*
X80901587Y-125561656D01*
X80596344Y-125687780D01*
X80362601Y-125921115D01*
X80235944Y-126226138D01*
X80235656Y-126556413D01*
X80361780Y-126861656D01*
X80595115Y-127095399D01*
X80900138Y-127222056D01*
X81230413Y-127222344D01*
X81535656Y-127096220D01*
X81769399Y-126862885D01*
X81896056Y-126557862D01*
X81896344Y-126227587D01*
X81896344Y-131743331D01*
X81686400Y-131743331D01*
X81560496Y-131767759D01*
X81449838Y-131840450D01*
X81375764Y-131950187D01*
X81349731Y-132080000D01*
X81349731Y-134112000D01*
X81374159Y-134237904D01*
X81446850Y-134348562D01*
X81556587Y-134422636D01*
X81686400Y-134448669D01*
X83413600Y-134448669D01*
X83539504Y-134424241D01*
X83650162Y-134351550D01*
X83724236Y-134241813D01*
X83750269Y-134112000D01*
X83750269Y-134493800D01*
X81203800Y-134493800D01*
X81203800Y-133274774D01*
X81203800Y-132917226D01*
X81112927Y-132460379D01*
X80854144Y-132073082D01*
X80466847Y-131814299D01*
X80010000Y-131723426D01*
X79578317Y-131809293D01*
X79578317Y-107956399D01*
X79476059Y-107708917D01*
X79286878Y-107519406D01*
X79039575Y-107416717D01*
X78771799Y-107416483D01*
X78524317Y-107518741D01*
X78334806Y-107707922D01*
X78232117Y-107955225D01*
X78231883Y-108223001D01*
X78334141Y-108470483D01*
X78523322Y-108659994D01*
X78770625Y-108762683D01*
X79038401Y-108762917D01*
X79285883Y-108660659D01*
X79475394Y-108471478D01*
X79578083Y-108224175D01*
X79578317Y-107956399D01*
X79578317Y-131809293D01*
X79553153Y-131814299D01*
X79165856Y-132073082D01*
X78907073Y-132460379D01*
X78841717Y-132788944D01*
X78841717Y-115055699D01*
X78739459Y-114808217D01*
X78550278Y-114618706D01*
X78302975Y-114516017D01*
X78035199Y-114515783D01*
X77787717Y-114618041D01*
X77635217Y-114770275D01*
X77635217Y-97174099D01*
X77532959Y-96926617D01*
X77343778Y-96737106D01*
X77096475Y-96634417D01*
X76987400Y-96634321D01*
X76987400Y-79161281D01*
X76987400Y-79029919D01*
X76987400Y-78111350D01*
X76904850Y-78028800D01*
X75590400Y-78028800D01*
X75590400Y-79343250D01*
X75672950Y-79425800D01*
X76722881Y-79425800D01*
X76844243Y-79375530D01*
X76937130Y-79282643D01*
X76987400Y-79161281D01*
X76987400Y-96634321D01*
X76974834Y-96634310D01*
X76974834Y-89762579D01*
X76857141Y-89477741D01*
X76639405Y-89259624D01*
X76354773Y-89141435D01*
X76046579Y-89141166D01*
X75761741Y-89258859D01*
X75543624Y-89476595D01*
X75488800Y-89608626D01*
X75488800Y-79343250D01*
X75488800Y-78028800D01*
X74174350Y-78028800D01*
X74091800Y-78111350D01*
X74091800Y-79029919D01*
X74091800Y-79161281D01*
X74142070Y-79282643D01*
X74234957Y-79375530D01*
X74356319Y-79425800D01*
X75406250Y-79425800D01*
X75488800Y-79343250D01*
X75488800Y-89608626D01*
X75476217Y-89638929D01*
X75476217Y-84448699D01*
X75373959Y-84201217D01*
X75184778Y-84011706D01*
X74937475Y-83909017D01*
X74669699Y-83908783D01*
X74422217Y-84011041D01*
X74232706Y-84200222D01*
X74130017Y-84447525D01*
X74129783Y-84715301D01*
X74232041Y-84962783D01*
X74421222Y-85152294D01*
X74668525Y-85254983D01*
X74936301Y-85255217D01*
X75183783Y-85152959D01*
X75373294Y-84963778D01*
X75475983Y-84716475D01*
X75476217Y-84448699D01*
X75476217Y-89638929D01*
X75425435Y-89761227D01*
X75425166Y-90069421D01*
X75542859Y-90354259D01*
X75760595Y-90572376D01*
X76045227Y-90690565D01*
X76353421Y-90690834D01*
X76638259Y-90573141D01*
X76856376Y-90355405D01*
X76974565Y-90070773D01*
X76974834Y-89762579D01*
X76974834Y-96634310D01*
X76828699Y-96634183D01*
X76581217Y-96736441D01*
X76391706Y-96925622D01*
X76289017Y-97172925D01*
X76288783Y-97440701D01*
X76391041Y-97688183D01*
X76580222Y-97877694D01*
X76827525Y-97980383D01*
X77095301Y-97980617D01*
X77342783Y-97878359D01*
X77532294Y-97689178D01*
X77634983Y-97441875D01*
X77635217Y-97174099D01*
X77635217Y-114770275D01*
X77598206Y-114807222D01*
X77495517Y-115054525D01*
X77495283Y-115322301D01*
X77597541Y-115569783D01*
X77786722Y-115759294D01*
X78034025Y-115861983D01*
X78301801Y-115862217D01*
X78549283Y-115759959D01*
X78738794Y-115570778D01*
X78841483Y-115323475D01*
X78841717Y-115055699D01*
X78841717Y-132788944D01*
X78816200Y-132917226D01*
X78816200Y-133274774D01*
X78907073Y-133731621D01*
X79165856Y-134118918D01*
X79553153Y-134377701D01*
X80010000Y-134468574D01*
X80466847Y-134377701D01*
X80854144Y-134118918D01*
X81112927Y-133731621D01*
X81203800Y-133274774D01*
X81203800Y-134493800D01*
X78663800Y-134493800D01*
X78663800Y-133274774D01*
X78663800Y-132917226D01*
X78625834Y-132726359D01*
X78625834Y-117639079D01*
X78508141Y-117354241D01*
X78290405Y-117136124D01*
X78005773Y-117017935D01*
X77697579Y-117017666D01*
X77412741Y-117135359D01*
X77194624Y-117353095D01*
X77076435Y-117637727D01*
X77076166Y-117945921D01*
X77193859Y-118230759D01*
X77411595Y-118448876D01*
X77696227Y-118567065D01*
X78004421Y-118567334D01*
X78289259Y-118449641D01*
X78507376Y-118231905D01*
X78625565Y-117947273D01*
X78625834Y-117639079D01*
X78625834Y-132726359D01*
X78572927Y-132460379D01*
X78314144Y-132073082D01*
X77926847Y-131814299D01*
X77470000Y-131723426D01*
X77013153Y-131814299D01*
X76746217Y-131992659D01*
X76746217Y-109658199D01*
X76643959Y-109410717D01*
X76454778Y-109221206D01*
X76403334Y-109199844D01*
X76403334Y-103796079D01*
X76403334Y-101192579D01*
X76285641Y-100907741D01*
X76067905Y-100689624D01*
X75984217Y-100654873D01*
X75984217Y-96704199D01*
X75881959Y-96456717D01*
X75692778Y-96267206D01*
X75445475Y-96164517D01*
X75177699Y-96164283D01*
X74930217Y-96266541D01*
X74740706Y-96455722D01*
X74638017Y-96703025D01*
X74637783Y-96970801D01*
X74740041Y-97218283D01*
X74929222Y-97407794D01*
X75176525Y-97510483D01*
X75444301Y-97510717D01*
X75691783Y-97408459D01*
X75881294Y-97219278D01*
X75983983Y-96971975D01*
X75984217Y-96704199D01*
X75984217Y-100654873D01*
X75783273Y-100571435D01*
X75475079Y-100571166D01*
X75190241Y-100688859D01*
X74972124Y-100906595D01*
X74853935Y-101191227D01*
X74853666Y-101499421D01*
X74971359Y-101784259D01*
X75189095Y-102002376D01*
X75473727Y-102120565D01*
X75781921Y-102120834D01*
X76066759Y-102003141D01*
X76284876Y-101785405D01*
X76403065Y-101500773D01*
X76403334Y-101192579D01*
X76403334Y-103796079D01*
X76285641Y-103511241D01*
X76067905Y-103293124D01*
X75783273Y-103174935D01*
X75475079Y-103174666D01*
X75190241Y-103292359D01*
X74972124Y-103510095D01*
X74853935Y-103794727D01*
X74853666Y-104102921D01*
X74971359Y-104387759D01*
X75189095Y-104605876D01*
X75473727Y-104724065D01*
X75781921Y-104724334D01*
X76066759Y-104606641D01*
X76284876Y-104388905D01*
X76403065Y-104104273D01*
X76403334Y-103796079D01*
X76403334Y-109199844D01*
X76365217Y-109184017D01*
X76365217Y-107207099D01*
X76262959Y-106959617D01*
X76073778Y-106770106D01*
X75826475Y-106667417D01*
X75558699Y-106667183D01*
X75311217Y-106769441D01*
X75121706Y-106958622D01*
X75019017Y-107205925D01*
X75018783Y-107473701D01*
X75121041Y-107721183D01*
X75310222Y-107910694D01*
X75557525Y-108013383D01*
X75825301Y-108013617D01*
X76072783Y-107911359D01*
X76262294Y-107722178D01*
X76364983Y-107474875D01*
X76365217Y-107207099D01*
X76365217Y-109184017D01*
X76207475Y-109118517D01*
X75939699Y-109118283D01*
X75692217Y-109220541D01*
X75502706Y-109409722D01*
X75400017Y-109657025D01*
X75399783Y-109924801D01*
X75502041Y-110172283D01*
X75691222Y-110361794D01*
X75938525Y-110464483D01*
X76206301Y-110464717D01*
X76453783Y-110362459D01*
X76643294Y-110173278D01*
X76745983Y-109925975D01*
X76746217Y-109658199D01*
X76746217Y-131992659D01*
X76625856Y-132073082D01*
X76367073Y-132460379D01*
X76276200Y-132917226D01*
X76276200Y-133274774D01*
X76367073Y-133731621D01*
X76625856Y-134118918D01*
X77013153Y-134377701D01*
X77470000Y-134468574D01*
X77926847Y-134377701D01*
X78314144Y-134118918D01*
X78572927Y-133731621D01*
X78663800Y-133274774D01*
X78663800Y-134493800D01*
X76123800Y-134493800D01*
X76123800Y-133274774D01*
X76123800Y-132917226D01*
X76032927Y-132460379D01*
X75774144Y-132073082D01*
X75386847Y-131814299D01*
X74930000Y-131723426D01*
X74777717Y-131753717D01*
X74777717Y-125723699D01*
X74675459Y-125476217D01*
X74486278Y-125286706D01*
X74238975Y-125184017D01*
X73971199Y-125183783D01*
X73825217Y-125244101D01*
X73825217Y-119868999D01*
X73722959Y-119621517D01*
X73698217Y-119596731D01*
X73698217Y-115309699D01*
X73595959Y-115062217D01*
X73406778Y-114872706D01*
X73237248Y-114802311D01*
X73363876Y-114675905D01*
X73482065Y-114391273D01*
X73482334Y-114083079D01*
X73364641Y-113798241D01*
X73164834Y-113598084D01*
X73164834Y-88492579D01*
X73047141Y-88207741D01*
X72829405Y-87989624D01*
X72544773Y-87871435D01*
X72236579Y-87871166D01*
X71951741Y-87988859D01*
X71733624Y-88206595D01*
X71615435Y-88491227D01*
X71615166Y-88799421D01*
X71732859Y-89084259D01*
X71950595Y-89302376D01*
X72235227Y-89420565D01*
X72543421Y-89420834D01*
X72828259Y-89303141D01*
X73046376Y-89085405D01*
X73164565Y-88800773D01*
X73164834Y-88492579D01*
X73164834Y-113598084D01*
X73146905Y-113580124D01*
X73037834Y-113534833D01*
X73037834Y-100938579D01*
X72920141Y-100653741D01*
X72702405Y-100435624D01*
X72417773Y-100317435D01*
X72109579Y-100317166D01*
X71824741Y-100434859D01*
X71606624Y-100652595D01*
X71488435Y-100937227D01*
X71488166Y-101245421D01*
X71605859Y-101530259D01*
X71823595Y-101748376D01*
X72108227Y-101866565D01*
X72416421Y-101866834D01*
X72701259Y-101749141D01*
X72919376Y-101531405D01*
X73037565Y-101246773D01*
X73037834Y-100938579D01*
X73037834Y-113534833D01*
X72862273Y-113461935D01*
X72554079Y-113461666D01*
X72269241Y-113579359D01*
X72051124Y-113797095D01*
X71932935Y-114081727D01*
X71932666Y-114389921D01*
X72050359Y-114674759D01*
X72268095Y-114892876D01*
X72518985Y-114997054D01*
X72454706Y-115061222D01*
X72352017Y-115308525D01*
X72351783Y-115576301D01*
X72454041Y-115823783D01*
X72643222Y-116013294D01*
X72890525Y-116115983D01*
X73158301Y-116116217D01*
X73405783Y-116013959D01*
X73595294Y-115824778D01*
X73697983Y-115577475D01*
X73698217Y-115309699D01*
X73698217Y-119596731D01*
X73533778Y-119432006D01*
X73286475Y-119329317D01*
X73018699Y-119329083D01*
X72771217Y-119431341D01*
X72695722Y-119506703D01*
X72643459Y-119380217D01*
X72454278Y-119190706D01*
X72206975Y-119088017D01*
X71939199Y-119087783D01*
X71856717Y-119121864D01*
X71856717Y-105911699D01*
X71754459Y-105664217D01*
X71565278Y-105474706D01*
X71317975Y-105372017D01*
X71050199Y-105371783D01*
X70802717Y-105474041D01*
X70613206Y-105663222D01*
X70510517Y-105910525D01*
X70510283Y-106178301D01*
X70612541Y-106425783D01*
X70801722Y-106615294D01*
X71049025Y-106717983D01*
X71316801Y-106718217D01*
X71564283Y-106615959D01*
X71753794Y-106426778D01*
X71856483Y-106179475D01*
X71856717Y-105911699D01*
X71856717Y-119121864D01*
X71691717Y-119190041D01*
X71502206Y-119379222D01*
X71399517Y-119626525D01*
X71399283Y-119894301D01*
X71501541Y-120141783D01*
X71690722Y-120331294D01*
X71938025Y-120433983D01*
X72205801Y-120434217D01*
X72453283Y-120331959D01*
X72528777Y-120256596D01*
X72581041Y-120383083D01*
X72770222Y-120572594D01*
X73017525Y-120675283D01*
X73285301Y-120675517D01*
X73532783Y-120573259D01*
X73722294Y-120384078D01*
X73824983Y-120136775D01*
X73825217Y-119868999D01*
X73825217Y-125244101D01*
X73723717Y-125286041D01*
X73534206Y-125475222D01*
X73431517Y-125722525D01*
X73431283Y-125990301D01*
X73533541Y-126237783D01*
X73722722Y-126427294D01*
X73970025Y-126529983D01*
X74237801Y-126530217D01*
X74485283Y-126427959D01*
X74674794Y-126238778D01*
X74777483Y-125991475D01*
X74777717Y-125723699D01*
X74777717Y-131753717D01*
X74473153Y-131814299D01*
X74085856Y-132073082D01*
X73827073Y-132460379D01*
X73736200Y-132917226D01*
X73736200Y-133274774D01*
X73827073Y-133731621D01*
X74085856Y-134118918D01*
X74473153Y-134377701D01*
X74930000Y-134468574D01*
X75386847Y-134377701D01*
X75774144Y-134118918D01*
X76032927Y-133731621D01*
X76123800Y-133274774D01*
X76123800Y-134493800D01*
X73609334Y-134493800D01*
X73609334Y-126656079D01*
X73491641Y-126371241D01*
X73273905Y-126153124D01*
X72989273Y-126034935D01*
X72681079Y-126034666D01*
X72396241Y-126152359D01*
X72178124Y-126370095D01*
X72059935Y-126654727D01*
X72059666Y-126962921D01*
X72177359Y-127247759D01*
X72395095Y-127465876D01*
X72679727Y-127584065D01*
X72987921Y-127584334D01*
X73272759Y-127466641D01*
X73490876Y-127248905D01*
X73609065Y-126964273D01*
X73609334Y-126656079D01*
X73609334Y-134493800D01*
X73583800Y-134493800D01*
X73583800Y-133274774D01*
X73583800Y-132917226D01*
X73492927Y-132460379D01*
X73234144Y-132073082D01*
X72846847Y-131814299D01*
X72390000Y-131723426D01*
X71933153Y-131814299D01*
X71545856Y-132073082D01*
X71287073Y-132460379D01*
X71196200Y-132917226D01*
X71196200Y-133274774D01*
X71287073Y-133731621D01*
X71545856Y-134118918D01*
X71933153Y-134377701D01*
X72390000Y-134468574D01*
X72846847Y-134377701D01*
X73234144Y-134118918D01*
X73492927Y-133731621D01*
X73583800Y-133274774D01*
X73583800Y-134493800D01*
X68579200Y-134493800D01*
X68579200Y-129689280D01*
X68619850Y-129751162D01*
X68729587Y-129825236D01*
X68859400Y-129851269D01*
X71094600Y-129851269D01*
X71220504Y-129826841D01*
X71331162Y-129754150D01*
X71405236Y-129644413D01*
X71431269Y-129514600D01*
X71431269Y-127279400D01*
X71406841Y-127153496D01*
X71334150Y-127042838D01*
X71224413Y-126968764D01*
X71094600Y-126942731D01*
X68859400Y-126942731D01*
X68733496Y-126967159D01*
X68622838Y-127039850D01*
X68579200Y-127104497D01*
X68579200Y-117497280D01*
X68619850Y-117559162D01*
X68729587Y-117633236D01*
X68859400Y-117659269D01*
X71094600Y-117659269D01*
X71220504Y-117634841D01*
X71331162Y-117562150D01*
X71405236Y-117452413D01*
X71431269Y-117322600D01*
X71431269Y-115087400D01*
X71406841Y-114961496D01*
X71334150Y-114850838D01*
X71224413Y-114776764D01*
X71094600Y-114750731D01*
X68859400Y-114750731D01*
X68733496Y-114775159D01*
X68622838Y-114847850D01*
X68579200Y-114912497D01*
X68579200Y-104924280D01*
X68619850Y-104986162D01*
X68729587Y-105060236D01*
X68859400Y-105086269D01*
X71094600Y-105086269D01*
X71220504Y-105061841D01*
X71331162Y-104989150D01*
X71405236Y-104879413D01*
X71431269Y-104749600D01*
X71431269Y-102514400D01*
X71406841Y-102388496D01*
X71334150Y-102277838D01*
X71224413Y-102203764D01*
X71094600Y-102177731D01*
X68859400Y-102177731D01*
X68733496Y-102202159D01*
X68622838Y-102274850D01*
X68579200Y-102339497D01*
X68579200Y-92351280D01*
X68619850Y-92413162D01*
X68729587Y-92487236D01*
X68859400Y-92513269D01*
X71094600Y-92513269D01*
X71220504Y-92488841D01*
X71331162Y-92416150D01*
X71405236Y-92306413D01*
X71431269Y-92176600D01*
X71431269Y-89941400D01*
X71406841Y-89815496D01*
X71334150Y-89704838D01*
X71224413Y-89630764D01*
X71094600Y-89604731D01*
X68859400Y-89604731D01*
X68733496Y-89629159D01*
X68622838Y-89701850D01*
X68579200Y-89766497D01*
X68579200Y-79270280D01*
X68619850Y-79332162D01*
X68729587Y-79406236D01*
X68859400Y-79432269D01*
X71094600Y-79432269D01*
X71220504Y-79407841D01*
X71331162Y-79335150D01*
X71405236Y-79225413D01*
X71431269Y-79095600D01*
X71431269Y-76860400D01*
X71406841Y-76734496D01*
X71334150Y-76623838D01*
X71269502Y-76580200D01*
X74235608Y-76580200D01*
X74234957Y-76580470D01*
X74142070Y-76673357D01*
X74091800Y-76794719D01*
X74091800Y-76926081D01*
X74091800Y-77844650D01*
X74174350Y-77927200D01*
X75488800Y-77927200D01*
X75488800Y-77907200D01*
X75590400Y-77907200D01*
X75590400Y-77927200D01*
X76904850Y-77927200D01*
X76987400Y-77844650D01*
X76987400Y-76926081D01*
X76987400Y-76794719D01*
X76937130Y-76673357D01*
X76844243Y-76580470D01*
X76843591Y-76580200D01*
X77828719Y-76580200D01*
X77766838Y-76620850D01*
X77692764Y-76730587D01*
X77666731Y-76860400D01*
X77666731Y-79095600D01*
X77691159Y-79221504D01*
X77763850Y-79332162D01*
X77873587Y-79406236D01*
X78003400Y-79432269D01*
X80238600Y-79432269D01*
X80364504Y-79407841D01*
X80475162Y-79335150D01*
X80549236Y-79225413D01*
X80575269Y-79095600D01*
X80575269Y-76860400D01*
X80550841Y-76734496D01*
X80478150Y-76623838D01*
X80413502Y-76580200D01*
X86868800Y-76580200D01*
X86868800Y-134493800D01*
X86868800Y-134493800D01*
G37*
X86868800Y-134493800D02*
X86690200Y-134493800D01*
X86690200Y-78004374D01*
X86690200Y-77951626D01*
X86587727Y-77436458D01*
X86295907Y-76999719D01*
X85859168Y-76707899D01*
X85344000Y-76605426D01*
X84828832Y-76707899D01*
X84392093Y-76999719D01*
X84156669Y-77352055D01*
X84156669Y-76962000D01*
X84132241Y-76836096D01*
X84059550Y-76725438D01*
X83949813Y-76651364D01*
X83820000Y-76625331D01*
X81788000Y-76625331D01*
X81662096Y-76649759D01*
X81551438Y-76722450D01*
X81477364Y-76832187D01*
X81451331Y-76962000D01*
X81451331Y-78994000D01*
X81475759Y-79119904D01*
X81548450Y-79230562D01*
X81658187Y-79304636D01*
X81788000Y-79330669D01*
X83820000Y-79330669D01*
X83945904Y-79306241D01*
X84056562Y-79233550D01*
X84130636Y-79123813D01*
X84156669Y-78994000D01*
X84156669Y-78603944D01*
X84392093Y-78956281D01*
X84828832Y-79248101D01*
X85344000Y-79350574D01*
X85859168Y-79248101D01*
X86295907Y-78956281D01*
X86587727Y-78519542D01*
X86690200Y-78004374D01*
X86690200Y-134493800D01*
X86626834Y-134493800D01*
X86626834Y-128116579D01*
X86563334Y-127962897D01*
X86563334Y-113638579D01*
X86445641Y-113353741D01*
X86227905Y-113135624D01*
X85991817Y-113037592D01*
X85991817Y-99942699D01*
X85889559Y-99695217D01*
X85700378Y-99505706D01*
X85453075Y-99403017D01*
X85185299Y-99402783D01*
X84937817Y-99505041D01*
X84748306Y-99694222D01*
X84645617Y-99941525D01*
X84645383Y-100209301D01*
X84747641Y-100456783D01*
X84936822Y-100646294D01*
X85184125Y-100748983D01*
X85451901Y-100749217D01*
X85699383Y-100646959D01*
X85888894Y-100457778D01*
X85991583Y-100210475D01*
X85991817Y-99942699D01*
X85991817Y-113037592D01*
X85943273Y-113017435D01*
X85864834Y-113017366D01*
X85864834Y-102462579D01*
X85747141Y-102177741D01*
X85529405Y-101959624D01*
X85244773Y-101841435D01*
X84936579Y-101841166D01*
X84651741Y-101958859D01*
X84594834Y-102015666D01*
X84594834Y-93826579D01*
X84477141Y-93541741D01*
X84259405Y-93323624D01*
X83974773Y-93205435D01*
X83666579Y-93205166D01*
X83381741Y-93322859D01*
X83163624Y-93540595D01*
X83045435Y-93825227D01*
X83045166Y-94133421D01*
X83162859Y-94418259D01*
X83380595Y-94636376D01*
X83665227Y-94754565D01*
X83973421Y-94754834D01*
X84258259Y-94637141D01*
X84476376Y-94419405D01*
X84594565Y-94134773D01*
X84594834Y-93826579D01*
X84594834Y-102015666D01*
X84433624Y-102176595D01*
X84315435Y-102461227D01*
X84315166Y-102769421D01*
X84432859Y-103054259D01*
X84650595Y-103272376D01*
X84935227Y-103390565D01*
X85243421Y-103390834D01*
X85528259Y-103273141D01*
X85746376Y-103055405D01*
X85864565Y-102770773D01*
X85864834Y-102462579D01*
X85864834Y-113017366D01*
X85635079Y-113017166D01*
X85350241Y-113134859D01*
X85159969Y-113324798D01*
X85159969Y-112064800D01*
X85159969Y-109829600D01*
X85135541Y-109703696D01*
X85062850Y-109593038D01*
X84953113Y-109518964D01*
X84823300Y-109492931D01*
X83515317Y-109492931D01*
X83515317Y-107740499D01*
X83413059Y-107493017D01*
X83223878Y-107303506D01*
X82976575Y-107200817D01*
X82708799Y-107200583D01*
X82461317Y-107302841D01*
X82271806Y-107492022D01*
X82169117Y-107739325D01*
X82168883Y-108007101D01*
X82271141Y-108254583D01*
X82460322Y-108444094D01*
X82707625Y-108546783D01*
X82975401Y-108547017D01*
X83222883Y-108444759D01*
X83412394Y-108255578D01*
X83515083Y-108008275D01*
X83515317Y-107740499D01*
X83515317Y-109492931D01*
X82588100Y-109492931D01*
X82462196Y-109517359D01*
X82351538Y-109590050D01*
X82277464Y-109699787D01*
X82251431Y-109829600D01*
X82251431Y-112064800D01*
X82275859Y-112190704D01*
X82348550Y-112301362D01*
X82458287Y-112375436D01*
X82588100Y-112401469D01*
X84823300Y-112401469D01*
X84949204Y-112377041D01*
X85059862Y-112304350D01*
X85133936Y-112194613D01*
X85159969Y-112064800D01*
X85159969Y-113324798D01*
X85132124Y-113352595D01*
X85013935Y-113637227D01*
X85013666Y-113945421D01*
X85131359Y-114230259D01*
X85349095Y-114448376D01*
X85633727Y-114566565D01*
X85941921Y-114566834D01*
X86226759Y-114449141D01*
X86444876Y-114231405D01*
X86563065Y-113946773D01*
X86563334Y-113638579D01*
X86563334Y-127962897D01*
X86509141Y-127831741D01*
X86291405Y-127613624D01*
X86006773Y-127495435D01*
X85698579Y-127495166D01*
X85413741Y-127612859D01*
X85195624Y-127830595D01*
X85077435Y-128115227D01*
X85077166Y-128423421D01*
X85194859Y-128708259D01*
X85412595Y-128926376D01*
X85697227Y-129044565D01*
X86005421Y-129044834D01*
X86290259Y-128927141D01*
X86508376Y-128709405D01*
X86626565Y-128424773D01*
X86626834Y-128116579D01*
X86626834Y-134493800D01*
X84396344Y-134493800D01*
X84396344Y-128827587D01*
X84396344Y-123827587D01*
X84270220Y-123522344D01*
X84036885Y-123288601D01*
X83731862Y-123161944D01*
X83401587Y-123161656D01*
X83096344Y-123287780D01*
X83070817Y-123313262D01*
X83070817Y-114725499D01*
X82968559Y-114478017D01*
X82779378Y-114288506D01*
X82532075Y-114185817D01*
X82264299Y-114185583D01*
X82118317Y-114245901D01*
X82118317Y-107803999D01*
X82016059Y-107556517D01*
X81864334Y-107404527D01*
X81864334Y-103732579D01*
X81864334Y-101192579D01*
X81746641Y-100907741D01*
X81546834Y-100707584D01*
X81546834Y-87095579D01*
X81429141Y-86810741D01*
X81211405Y-86592624D01*
X80926773Y-86474435D01*
X80618579Y-86474166D01*
X80333741Y-86591859D01*
X80115624Y-86809595D01*
X79997435Y-87094227D01*
X79997166Y-87402421D01*
X80114859Y-87687259D01*
X80332595Y-87905376D01*
X80617227Y-88023565D01*
X80925421Y-88023834D01*
X81210259Y-87906141D01*
X81428376Y-87688405D01*
X81546565Y-87403773D01*
X81546834Y-87095579D01*
X81546834Y-100707584D01*
X81528905Y-100689624D01*
X81244273Y-100571435D01*
X80936079Y-100571166D01*
X80651241Y-100688859D01*
X80433124Y-100906595D01*
X80314935Y-101191227D01*
X80314666Y-101499421D01*
X80432359Y-101784259D01*
X80650095Y-102002376D01*
X80934727Y-102120565D01*
X81242921Y-102120834D01*
X81527759Y-102003141D01*
X81745876Y-101785405D01*
X81864065Y-101500773D01*
X81864334Y-101192579D01*
X81864334Y-103732579D01*
X81746641Y-103447741D01*
X81528905Y-103229624D01*
X81244273Y-103111435D01*
X80936079Y-103111166D01*
X80651241Y-103228859D01*
X80433124Y-103446595D01*
X80391117Y-103547759D01*
X80391117Y-101873099D01*
X80288859Y-101625617D01*
X80099678Y-101436106D01*
X79852375Y-101333417D01*
X79584599Y-101333183D01*
X79337117Y-101435441D01*
X79147606Y-101624622D01*
X79044917Y-101871925D01*
X79044683Y-102139701D01*
X79146941Y-102387183D01*
X79336122Y-102576694D01*
X79583425Y-102679383D01*
X79851201Y-102679617D01*
X80098683Y-102577359D01*
X80288194Y-102388178D01*
X80390883Y-102140875D01*
X80391117Y-101873099D01*
X80391117Y-103547759D01*
X80314935Y-103731227D01*
X80314666Y-104039421D01*
X80432359Y-104324259D01*
X80650095Y-104542376D01*
X80934727Y-104660565D01*
X81242921Y-104660834D01*
X81527759Y-104543141D01*
X81745876Y-104325405D01*
X81864065Y-104040773D01*
X81864334Y-103732579D01*
X81864334Y-107404527D01*
X81826878Y-107367006D01*
X81579575Y-107264317D01*
X81311799Y-107264083D01*
X81064317Y-107366341D01*
X80874806Y-107555522D01*
X80772117Y-107802825D01*
X80771883Y-108070601D01*
X80874141Y-108318083D01*
X81063322Y-108507594D01*
X81310625Y-108610283D01*
X81578401Y-108610517D01*
X81825883Y-108508259D01*
X82015394Y-108319078D01*
X82118083Y-108071775D01*
X82118317Y-107803999D01*
X82118317Y-114245901D01*
X82016817Y-114287841D01*
X81827306Y-114477022D01*
X81724617Y-114724325D01*
X81724383Y-114992101D01*
X81826641Y-115239583D01*
X82015822Y-115429094D01*
X82263125Y-115531783D01*
X82530901Y-115532017D01*
X82778383Y-115429759D01*
X82967894Y-115240578D01*
X83070583Y-114993275D01*
X83070817Y-114725499D01*
X83070817Y-123313262D01*
X82862601Y-123521115D01*
X82735944Y-123826138D01*
X82735656Y-124156413D01*
X82861780Y-124461656D01*
X83095115Y-124695399D01*
X83400138Y-124822056D01*
X83730413Y-124822344D01*
X84035656Y-124696220D01*
X84269399Y-124462885D01*
X84396056Y-124157862D01*
X84396344Y-123827587D01*
X84396344Y-128827587D01*
X84270220Y-128522344D01*
X84036885Y-128288601D01*
X83731862Y-128161944D01*
X83401587Y-128161656D01*
X83096344Y-128287780D01*
X82862601Y-128521115D01*
X82735944Y-128826138D01*
X82735656Y-129156413D01*
X82861780Y-129461656D01*
X83095115Y-129695399D01*
X83400138Y-129822056D01*
X83730413Y-129822344D01*
X84035656Y-129696220D01*
X84269399Y-129462885D01*
X84396056Y-129157862D01*
X84396344Y-128827587D01*
X84396344Y-134493800D01*
X83750269Y-134493800D01*
X83750269Y-134112000D01*
X83750269Y-132080000D01*
X83725841Y-131954096D01*
X83653150Y-131843438D01*
X83543413Y-131769364D01*
X83413600Y-131743331D01*
X81896344Y-131743331D01*
X81896344Y-126227587D01*
X81770220Y-125922344D01*
X81536885Y-125688601D01*
X81318217Y-125597801D01*
X81318217Y-110966299D01*
X81215959Y-110718817D01*
X81026778Y-110529306D01*
X80779475Y-110426617D01*
X80511699Y-110426383D01*
X80264217Y-110528641D01*
X80074706Y-110717822D01*
X79972017Y-110965125D01*
X79971783Y-111232901D01*
X80074041Y-111480383D01*
X80263222Y-111669894D01*
X80510525Y-111772583D01*
X80778301Y-111772817D01*
X81025783Y-111670559D01*
X81215294Y-111481378D01*
X81317983Y-111234075D01*
X81318217Y-110966299D01*
X81318217Y-125597801D01*
X81231862Y-125561944D01*
X80901587Y-125561656D01*
X80596344Y-125687780D01*
X80362601Y-125921115D01*
X80235944Y-126226138D01*
X80235656Y-126556413D01*
X80361780Y-126861656D01*
X80595115Y-127095399D01*
X80900138Y-127222056D01*
X81230413Y-127222344D01*
X81535656Y-127096220D01*
X81769399Y-126862885D01*
X81896056Y-126557862D01*
X81896344Y-126227587D01*
X81896344Y-131743331D01*
X81686400Y-131743331D01*
X81560496Y-131767759D01*
X81449838Y-131840450D01*
X81375764Y-131950187D01*
X81349731Y-132080000D01*
X81349731Y-134112000D01*
X81374159Y-134237904D01*
X81446850Y-134348562D01*
X81556587Y-134422636D01*
X81686400Y-134448669D01*
X83413600Y-134448669D01*
X83539504Y-134424241D01*
X83650162Y-134351550D01*
X83724236Y-134241813D01*
X83750269Y-134112000D01*
X83750269Y-134493800D01*
X81203800Y-134493800D01*
X81203800Y-133274774D01*
X81203800Y-132917226D01*
X81112927Y-132460379D01*
X80854144Y-132073082D01*
X80466847Y-131814299D01*
X80010000Y-131723426D01*
X79578317Y-131809293D01*
X79578317Y-107956399D01*
X79476059Y-107708917D01*
X79286878Y-107519406D01*
X79039575Y-107416717D01*
X78771799Y-107416483D01*
X78524317Y-107518741D01*
X78334806Y-107707922D01*
X78232117Y-107955225D01*
X78231883Y-108223001D01*
X78334141Y-108470483D01*
X78523322Y-108659994D01*
X78770625Y-108762683D01*
X79038401Y-108762917D01*
X79285883Y-108660659D01*
X79475394Y-108471478D01*
X79578083Y-108224175D01*
X79578317Y-107956399D01*
X79578317Y-131809293D01*
X79553153Y-131814299D01*
X79165856Y-132073082D01*
X78907073Y-132460379D01*
X78841717Y-132788944D01*
X78841717Y-115055699D01*
X78739459Y-114808217D01*
X78550278Y-114618706D01*
X78302975Y-114516017D01*
X78035199Y-114515783D01*
X77787717Y-114618041D01*
X77635217Y-114770275D01*
X77635217Y-97174099D01*
X77532959Y-96926617D01*
X77343778Y-96737106D01*
X77096475Y-96634417D01*
X76987400Y-96634321D01*
X76987400Y-79161281D01*
X76987400Y-79029919D01*
X76987400Y-78111350D01*
X76904850Y-78028800D01*
X75590400Y-78028800D01*
X75590400Y-79343250D01*
X75672950Y-79425800D01*
X76722881Y-79425800D01*
X76844243Y-79375530D01*
X76937130Y-79282643D01*
X76987400Y-79161281D01*
X76987400Y-96634321D01*
X76974834Y-96634310D01*
X76974834Y-89762579D01*
X76857141Y-89477741D01*
X76639405Y-89259624D01*
X76354773Y-89141435D01*
X76046579Y-89141166D01*
X75761741Y-89258859D01*
X75543624Y-89476595D01*
X75488800Y-89608626D01*
X75488800Y-79343250D01*
X75488800Y-78028800D01*
X74174350Y-78028800D01*
X74091800Y-78111350D01*
X74091800Y-79029919D01*
X74091800Y-79161281D01*
X74142070Y-79282643D01*
X74234957Y-79375530D01*
X74356319Y-79425800D01*
X75406250Y-79425800D01*
X75488800Y-79343250D01*
X75488800Y-89608626D01*
X75476217Y-89638929D01*
X75476217Y-84448699D01*
X75373959Y-84201217D01*
X75184778Y-84011706D01*
X74937475Y-83909017D01*
X74669699Y-83908783D01*
X74422217Y-84011041D01*
X74232706Y-84200222D01*
X74130017Y-84447525D01*
X74129783Y-84715301D01*
X74232041Y-84962783D01*
X74421222Y-85152294D01*
X74668525Y-85254983D01*
X74936301Y-85255217D01*
X75183783Y-85152959D01*
X75373294Y-84963778D01*
X75475983Y-84716475D01*
X75476217Y-84448699D01*
X75476217Y-89638929D01*
X75425435Y-89761227D01*
X75425166Y-90069421D01*
X75542859Y-90354259D01*
X75760595Y-90572376D01*
X76045227Y-90690565D01*
X76353421Y-90690834D01*
X76638259Y-90573141D01*
X76856376Y-90355405D01*
X76974565Y-90070773D01*
X76974834Y-89762579D01*
X76974834Y-96634310D01*
X76828699Y-96634183D01*
X76581217Y-96736441D01*
X76391706Y-96925622D01*
X76289017Y-97172925D01*
X76288783Y-97440701D01*
X76391041Y-97688183D01*
X76580222Y-97877694D01*
X76827525Y-97980383D01*
X77095301Y-97980617D01*
X77342783Y-97878359D01*
X77532294Y-97689178D01*
X77634983Y-97441875D01*
X77635217Y-97174099D01*
X77635217Y-114770275D01*
X77598206Y-114807222D01*
X77495517Y-115054525D01*
X77495283Y-115322301D01*
X77597541Y-115569783D01*
X77786722Y-115759294D01*
X78034025Y-115861983D01*
X78301801Y-115862217D01*
X78549283Y-115759959D01*
X78738794Y-115570778D01*
X78841483Y-115323475D01*
X78841717Y-115055699D01*
X78841717Y-132788944D01*
X78816200Y-132917226D01*
X78816200Y-133274774D01*
X78907073Y-133731621D01*
X79165856Y-134118918D01*
X79553153Y-134377701D01*
X80010000Y-134468574D01*
X80466847Y-134377701D01*
X80854144Y-134118918D01*
X81112927Y-133731621D01*
X81203800Y-133274774D01*
X81203800Y-134493800D01*
X78663800Y-134493800D01*
X78663800Y-133274774D01*
X78663800Y-132917226D01*
X78625834Y-132726359D01*
X78625834Y-117639079D01*
X78508141Y-117354241D01*
X78290405Y-117136124D01*
X78005773Y-117017935D01*
X77697579Y-117017666D01*
X77412741Y-117135359D01*
X77194624Y-117353095D01*
X77076435Y-117637727D01*
X77076166Y-117945921D01*
X77193859Y-118230759D01*
X77411595Y-118448876D01*
X77696227Y-118567065D01*
X78004421Y-118567334D01*
X78289259Y-118449641D01*
X78507376Y-118231905D01*
X78625565Y-117947273D01*
X78625834Y-117639079D01*
X78625834Y-132726359D01*
X78572927Y-132460379D01*
X78314144Y-132073082D01*
X77926847Y-131814299D01*
X77470000Y-131723426D01*
X77013153Y-131814299D01*
X76746217Y-131992659D01*
X76746217Y-109658199D01*
X76643959Y-109410717D01*
X76454778Y-109221206D01*
X76403334Y-109199844D01*
X76403334Y-103796079D01*
X76403334Y-101192579D01*
X76285641Y-100907741D01*
X76067905Y-100689624D01*
X75984217Y-100654873D01*
X75984217Y-96704199D01*
X75881959Y-96456717D01*
X75692778Y-96267206D01*
X75445475Y-96164517D01*
X75177699Y-96164283D01*
X74930217Y-96266541D01*
X74740706Y-96455722D01*
X74638017Y-96703025D01*
X74637783Y-96970801D01*
X74740041Y-97218283D01*
X74929222Y-97407794D01*
X75176525Y-97510483D01*
X75444301Y-97510717D01*
X75691783Y-97408459D01*
X75881294Y-97219278D01*
X75983983Y-96971975D01*
X75984217Y-96704199D01*
X75984217Y-100654873D01*
X75783273Y-100571435D01*
X75475079Y-100571166D01*
X75190241Y-100688859D01*
X74972124Y-100906595D01*
X74853935Y-101191227D01*
X74853666Y-101499421D01*
X74971359Y-101784259D01*
X75189095Y-102002376D01*
X75473727Y-102120565D01*
X75781921Y-102120834D01*
X76066759Y-102003141D01*
X76284876Y-101785405D01*
X76403065Y-101500773D01*
X76403334Y-101192579D01*
X76403334Y-103796079D01*
X76285641Y-103511241D01*
X76067905Y-103293124D01*
X75783273Y-103174935D01*
X75475079Y-103174666D01*
X75190241Y-103292359D01*
X74972124Y-103510095D01*
X74853935Y-103794727D01*
X74853666Y-104102921D01*
X74971359Y-104387759D01*
X75189095Y-104605876D01*
X75473727Y-104724065D01*
X75781921Y-104724334D01*
X76066759Y-104606641D01*
X76284876Y-104388905D01*
X76403065Y-104104273D01*
X76403334Y-103796079D01*
X76403334Y-109199844D01*
X76365217Y-109184017D01*
X76365217Y-107207099D01*
X76262959Y-106959617D01*
X76073778Y-106770106D01*
X75826475Y-106667417D01*
X75558699Y-106667183D01*
X75311217Y-106769441D01*
X75121706Y-106958622D01*
X75019017Y-107205925D01*
X75018783Y-107473701D01*
X75121041Y-107721183D01*
X75310222Y-107910694D01*
X75557525Y-108013383D01*
X75825301Y-108013617D01*
X76072783Y-107911359D01*
X76262294Y-107722178D01*
X76364983Y-107474875D01*
X76365217Y-107207099D01*
X76365217Y-109184017D01*
X76207475Y-109118517D01*
X75939699Y-109118283D01*
X75692217Y-109220541D01*
X75502706Y-109409722D01*
X75400017Y-109657025D01*
X75399783Y-109924801D01*
X75502041Y-110172283D01*
X75691222Y-110361794D01*
X75938525Y-110464483D01*
X76206301Y-110464717D01*
X76453783Y-110362459D01*
X76643294Y-110173278D01*
X76745983Y-109925975D01*
X76746217Y-109658199D01*
X76746217Y-131992659D01*
X76625856Y-132073082D01*
X76367073Y-132460379D01*
X76276200Y-132917226D01*
X76276200Y-133274774D01*
X76367073Y-133731621D01*
X76625856Y-134118918D01*
X77013153Y-134377701D01*
X77470000Y-134468574D01*
X77926847Y-134377701D01*
X78314144Y-134118918D01*
X78572927Y-133731621D01*
X78663800Y-133274774D01*
X78663800Y-134493800D01*
X76123800Y-134493800D01*
X76123800Y-133274774D01*
X76123800Y-132917226D01*
X76032927Y-132460379D01*
X75774144Y-132073082D01*
X75386847Y-131814299D01*
X74930000Y-131723426D01*
X74777717Y-131753717D01*
X74777717Y-125723699D01*
X74675459Y-125476217D01*
X74486278Y-125286706D01*
X74238975Y-125184017D01*
X73971199Y-125183783D01*
X73825217Y-125244101D01*
X73825217Y-119868999D01*
X73722959Y-119621517D01*
X73698217Y-119596731D01*
X73698217Y-115309699D01*
X73595959Y-115062217D01*
X73406778Y-114872706D01*
X73237248Y-114802311D01*
X73363876Y-114675905D01*
X73482065Y-114391273D01*
X73482334Y-114083079D01*
X73364641Y-113798241D01*
X73164834Y-113598084D01*
X73164834Y-88492579D01*
X73047141Y-88207741D01*
X72829405Y-87989624D01*
X72544773Y-87871435D01*
X72236579Y-87871166D01*
X71951741Y-87988859D01*
X71733624Y-88206595D01*
X71615435Y-88491227D01*
X71615166Y-88799421D01*
X71732859Y-89084259D01*
X71950595Y-89302376D01*
X72235227Y-89420565D01*
X72543421Y-89420834D01*
X72828259Y-89303141D01*
X73046376Y-89085405D01*
X73164565Y-88800773D01*
X73164834Y-88492579D01*
X73164834Y-113598084D01*
X73146905Y-113580124D01*
X73037834Y-113534833D01*
X73037834Y-100938579D01*
X72920141Y-100653741D01*
X72702405Y-100435624D01*
X72417773Y-100317435D01*
X72109579Y-100317166D01*
X71824741Y-100434859D01*
X71606624Y-100652595D01*
X71488435Y-100937227D01*
X71488166Y-101245421D01*
X71605859Y-101530259D01*
X71823595Y-101748376D01*
X72108227Y-101866565D01*
X72416421Y-101866834D01*
X72701259Y-101749141D01*
X72919376Y-101531405D01*
X73037565Y-101246773D01*
X73037834Y-100938579D01*
X73037834Y-113534833D01*
X72862273Y-113461935D01*
X72554079Y-113461666D01*
X72269241Y-113579359D01*
X72051124Y-113797095D01*
X71932935Y-114081727D01*
X71932666Y-114389921D01*
X72050359Y-114674759D01*
X72268095Y-114892876D01*
X72518985Y-114997054D01*
X72454706Y-115061222D01*
X72352017Y-115308525D01*
X72351783Y-115576301D01*
X72454041Y-115823783D01*
X72643222Y-116013294D01*
X72890525Y-116115983D01*
X73158301Y-116116217D01*
X73405783Y-116013959D01*
X73595294Y-115824778D01*
X73697983Y-115577475D01*
X73698217Y-115309699D01*
X73698217Y-119596731D01*
X73533778Y-119432006D01*
X73286475Y-119329317D01*
X73018699Y-119329083D01*
X72771217Y-119431341D01*
X72695722Y-119506703D01*
X72643459Y-119380217D01*
X72454278Y-119190706D01*
X72206975Y-119088017D01*
X71939199Y-119087783D01*
X71856717Y-119121864D01*
X71856717Y-105911699D01*
X71754459Y-105664217D01*
X71565278Y-105474706D01*
X71317975Y-105372017D01*
X71050199Y-105371783D01*
X70802717Y-105474041D01*
X70613206Y-105663222D01*
X70510517Y-105910525D01*
X70510283Y-106178301D01*
X70612541Y-106425783D01*
X70801722Y-106615294D01*
X71049025Y-106717983D01*
X71316801Y-106718217D01*
X71564283Y-106615959D01*
X71753794Y-106426778D01*
X71856483Y-106179475D01*
X71856717Y-105911699D01*
X71856717Y-119121864D01*
X71691717Y-119190041D01*
X71502206Y-119379222D01*
X71399517Y-119626525D01*
X71399283Y-119894301D01*
X71501541Y-120141783D01*
X71690722Y-120331294D01*
X71938025Y-120433983D01*
X72205801Y-120434217D01*
X72453283Y-120331959D01*
X72528777Y-120256596D01*
X72581041Y-120383083D01*
X72770222Y-120572594D01*
X73017525Y-120675283D01*
X73285301Y-120675517D01*
X73532783Y-120573259D01*
X73722294Y-120384078D01*
X73824983Y-120136775D01*
X73825217Y-119868999D01*
X73825217Y-125244101D01*
X73723717Y-125286041D01*
X73534206Y-125475222D01*
X73431517Y-125722525D01*
X73431283Y-125990301D01*
X73533541Y-126237783D01*
X73722722Y-126427294D01*
X73970025Y-126529983D01*
X74237801Y-126530217D01*
X74485283Y-126427959D01*
X74674794Y-126238778D01*
X74777483Y-125991475D01*
X74777717Y-125723699D01*
X74777717Y-131753717D01*
X74473153Y-131814299D01*
X74085856Y-132073082D01*
X73827073Y-132460379D01*
X73736200Y-132917226D01*
X73736200Y-133274774D01*
X73827073Y-133731621D01*
X74085856Y-134118918D01*
X74473153Y-134377701D01*
X74930000Y-134468574D01*
X75386847Y-134377701D01*
X75774144Y-134118918D01*
X76032927Y-133731621D01*
X76123800Y-133274774D01*
X76123800Y-134493800D01*
X73609334Y-134493800D01*
X73609334Y-126656079D01*
X73491641Y-126371241D01*
X73273905Y-126153124D01*
X72989273Y-126034935D01*
X72681079Y-126034666D01*
X72396241Y-126152359D01*
X72178124Y-126370095D01*
X72059935Y-126654727D01*
X72059666Y-126962921D01*
X72177359Y-127247759D01*
X72395095Y-127465876D01*
X72679727Y-127584065D01*
X72987921Y-127584334D01*
X73272759Y-127466641D01*
X73490876Y-127248905D01*
X73609065Y-126964273D01*
X73609334Y-126656079D01*
X73609334Y-134493800D01*
X73583800Y-134493800D01*
X73583800Y-133274774D01*
X73583800Y-132917226D01*
X73492927Y-132460379D01*
X73234144Y-132073082D01*
X72846847Y-131814299D01*
X72390000Y-131723426D01*
X71933153Y-131814299D01*
X71545856Y-132073082D01*
X71287073Y-132460379D01*
X71196200Y-132917226D01*
X71196200Y-133274774D01*
X71287073Y-133731621D01*
X71545856Y-134118918D01*
X71933153Y-134377701D01*
X72390000Y-134468574D01*
X72846847Y-134377701D01*
X73234144Y-134118918D01*
X73492927Y-133731621D01*
X73583800Y-133274774D01*
X73583800Y-134493800D01*
X68579200Y-134493800D01*
X68579200Y-129689280D01*
X68619850Y-129751162D01*
X68729587Y-129825236D01*
X68859400Y-129851269D01*
X71094600Y-129851269D01*
X71220504Y-129826841D01*
X71331162Y-129754150D01*
X71405236Y-129644413D01*
X71431269Y-129514600D01*
X71431269Y-127279400D01*
X71406841Y-127153496D01*
X71334150Y-127042838D01*
X71224413Y-126968764D01*
X71094600Y-126942731D01*
X68859400Y-126942731D01*
X68733496Y-126967159D01*
X68622838Y-127039850D01*
X68579200Y-127104497D01*
X68579200Y-117497280D01*
X68619850Y-117559162D01*
X68729587Y-117633236D01*
X68859400Y-117659269D01*
X71094600Y-117659269D01*
X71220504Y-117634841D01*
X71331162Y-117562150D01*
X71405236Y-117452413D01*
X71431269Y-117322600D01*
X71431269Y-115087400D01*
X71406841Y-114961496D01*
X71334150Y-114850838D01*
X71224413Y-114776764D01*
X71094600Y-114750731D01*
X68859400Y-114750731D01*
X68733496Y-114775159D01*
X68622838Y-114847850D01*
X68579200Y-114912497D01*
X68579200Y-104924280D01*
X68619850Y-104986162D01*
X68729587Y-105060236D01*
X68859400Y-105086269D01*
X71094600Y-105086269D01*
X71220504Y-105061841D01*
X71331162Y-104989150D01*
X71405236Y-104879413D01*
X71431269Y-104749600D01*
X71431269Y-102514400D01*
X71406841Y-102388496D01*
X71334150Y-102277838D01*
X71224413Y-102203764D01*
X71094600Y-102177731D01*
X68859400Y-102177731D01*
X68733496Y-102202159D01*
X68622838Y-102274850D01*
X68579200Y-102339497D01*
X68579200Y-92351280D01*
X68619850Y-92413162D01*
X68729587Y-92487236D01*
X68859400Y-92513269D01*
X71094600Y-92513269D01*
X71220504Y-92488841D01*
X71331162Y-92416150D01*
X71405236Y-92306413D01*
X71431269Y-92176600D01*
X71431269Y-89941400D01*
X71406841Y-89815496D01*
X71334150Y-89704838D01*
X71224413Y-89630764D01*
X71094600Y-89604731D01*
X68859400Y-89604731D01*
X68733496Y-89629159D01*
X68622838Y-89701850D01*
X68579200Y-89766497D01*
X68579200Y-79270280D01*
X68619850Y-79332162D01*
X68729587Y-79406236D01*
X68859400Y-79432269D01*
X71094600Y-79432269D01*
X71220504Y-79407841D01*
X71331162Y-79335150D01*
X71405236Y-79225413D01*
X71431269Y-79095600D01*
X71431269Y-76860400D01*
X71406841Y-76734496D01*
X71334150Y-76623838D01*
X71269502Y-76580200D01*
X74235608Y-76580200D01*
X74234957Y-76580470D01*
X74142070Y-76673357D01*
X74091800Y-76794719D01*
X74091800Y-76926081D01*
X74091800Y-77844650D01*
X74174350Y-77927200D01*
X75488800Y-77927200D01*
X75488800Y-77907200D01*
X75590400Y-77907200D01*
X75590400Y-77927200D01*
X76904850Y-77927200D01*
X76987400Y-77844650D01*
X76987400Y-76926081D01*
X76987400Y-76794719D01*
X76937130Y-76673357D01*
X76844243Y-76580470D01*
X76843591Y-76580200D01*
X77828719Y-76580200D01*
X77766838Y-76620850D01*
X77692764Y-76730587D01*
X77666731Y-76860400D01*
X77666731Y-79095600D01*
X77691159Y-79221504D01*
X77763850Y-79332162D01*
X77873587Y-79406236D01*
X78003400Y-79432269D01*
X80238600Y-79432269D01*
X80364504Y-79407841D01*
X80475162Y-79335150D01*
X80549236Y-79225413D01*
X80575269Y-79095600D01*
X80575269Y-76860400D01*
X80550841Y-76734496D01*
X80478150Y-76623838D01*
X80413502Y-76580200D01*
X86868800Y-76580200D01*
X86868800Y-134493800D01*
M02*
