G04 #@! TF.FileFunction,Legend,Bot*
%FSLAX46Y46*%
G04 Gerber Fmt 4.6, Leading zero omitted, Abs format (unit mm)*
G04 Created by KiCad (PCBNEW 0.201505262310+5684~23~ubuntu14.04.1-product) date Mon 01 Jun 2015 21:54:35 CEST*
%MOMM*%
G01*
G04 APERTURE LIST*
%ADD10C,0.100000*%
%ADD11C,0.127000*%
%ADD12C,0.150000*%
%ADD13R,1.500000X1.250000*%
%ADD14R,2.032000X2.032000*%
%ADD15O,2.032000X2.032000*%
%ADD16R,2.235200X2.235200*%
%ADD17R,1.727200X2.032000*%
%ADD18O,1.727200X2.032000*%
%ADD19R,4.200000X1.800000*%
%ADD20R,1.500000X1.300000*%
%ADD21R,1.300000X1.500000*%
%ADD22C,1.000000*%
G04 APERTURE END LIST*
D10*
D11*
X80046286Y-100828929D02*
X80808286Y-100828929D01*
X80808286Y-100647501D01*
X80772000Y-100538644D01*
X80699429Y-100466072D01*
X80626857Y-100429787D01*
X80481714Y-100393501D01*
X80372857Y-100393501D01*
X80227714Y-100429787D01*
X80155143Y-100466072D01*
X80082571Y-100538644D01*
X80046286Y-100647501D01*
X80046286Y-100828929D01*
X80046286Y-99740358D02*
X80445429Y-99740358D01*
X80518000Y-99776644D01*
X80554286Y-99849215D01*
X80554286Y-99994358D01*
X80518000Y-100066929D01*
X80082571Y-99740358D02*
X80046286Y-99812929D01*
X80046286Y-99994358D01*
X80082571Y-100066929D01*
X80155143Y-100103215D01*
X80227714Y-100103215D01*
X80300286Y-100066929D01*
X80336571Y-99994358D01*
X80336571Y-99812929D01*
X80372857Y-99740358D01*
X80082571Y-99413786D02*
X80046286Y-99341215D01*
X80046286Y-99196072D01*
X80082571Y-99123500D01*
X80155143Y-99087215D01*
X80191429Y-99087215D01*
X80264000Y-99123500D01*
X80300286Y-99196072D01*
X80300286Y-99304929D01*
X80336571Y-99377500D01*
X80409143Y-99413786D01*
X80445429Y-99413786D01*
X80518000Y-99377500D01*
X80554286Y-99304929D01*
X80554286Y-99196072D01*
X80518000Y-99123500D01*
X80445429Y-97926072D02*
X80409143Y-97817215D01*
X80372857Y-97780930D01*
X80300286Y-97744644D01*
X80191429Y-97744644D01*
X80118857Y-97780930D01*
X80082571Y-97817215D01*
X80046286Y-97889787D01*
X80046286Y-98180072D01*
X80808286Y-98180072D01*
X80808286Y-97926072D01*
X80772000Y-97853501D01*
X80735714Y-97817215D01*
X80663143Y-97780930D01*
X80590571Y-97780930D01*
X80518000Y-97817215D01*
X80481714Y-97853501D01*
X80445429Y-97926072D01*
X80445429Y-98180072D01*
X80046286Y-97309215D02*
X80082571Y-97381787D01*
X80155143Y-97418072D01*
X80808286Y-97418072D01*
X80046286Y-97018929D02*
X80554286Y-97018929D01*
X80808286Y-97018929D02*
X80772000Y-97055215D01*
X80735714Y-97018929D01*
X80772000Y-96982644D01*
X80808286Y-97018929D01*
X80735714Y-97018929D01*
X80554286Y-96656072D02*
X80046286Y-96656072D01*
X80481714Y-96656072D02*
X80518000Y-96619787D01*
X80554286Y-96547215D01*
X80554286Y-96438358D01*
X80518000Y-96365787D01*
X80445429Y-96329501D01*
X80046286Y-96329501D01*
X80046286Y-95966643D02*
X80808286Y-95966643D01*
X80336571Y-95894072D02*
X80046286Y-95676358D01*
X80554286Y-95676358D02*
X80264000Y-95966643D01*
X80046286Y-95349786D02*
X80808286Y-95349786D01*
X80554286Y-94986929D02*
X80046286Y-94986929D01*
X80481714Y-94986929D02*
X80518000Y-94950644D01*
X80554286Y-94878072D01*
X80554286Y-94769215D01*
X80518000Y-94696644D01*
X80445429Y-94660358D01*
X80046286Y-94660358D01*
X80554286Y-94297500D02*
X79792286Y-94297500D01*
X80518000Y-94297500D02*
X80554286Y-94224929D01*
X80554286Y-94079786D01*
X80518000Y-94007215D01*
X80481714Y-93970929D01*
X80409143Y-93934643D01*
X80191429Y-93934643D01*
X80118857Y-93970929D01*
X80082571Y-94007215D01*
X80046286Y-94079786D01*
X80046286Y-94224929D01*
X80082571Y-94297500D01*
X80554286Y-93281500D02*
X80046286Y-93281500D01*
X80554286Y-93608071D02*
X80155143Y-93608071D01*
X80082571Y-93571786D01*
X80046286Y-93499214D01*
X80046286Y-93390357D01*
X80082571Y-93317786D01*
X80118857Y-93281500D01*
X80554286Y-93027500D02*
X80554286Y-92737214D01*
X80808286Y-92918642D02*
X80155143Y-92918642D01*
X80082571Y-92882357D01*
X80046286Y-92809785D01*
X80046286Y-92737214D01*
D12*
X83574000Y-80430000D02*
X84574000Y-80430000D01*
X84574000Y-82130000D02*
X83574000Y-82130000D01*
D11*
X71533000Y-88941000D02*
X71533000Y-84541000D01*
X71533000Y-84541000D02*
X75533000Y-84541000D01*
X75533000Y-88941000D02*
X75533000Y-84541000D01*
X71533000Y-88941000D02*
X75533000Y-88941000D01*
X71533000Y-101387000D02*
X71533000Y-96987000D01*
X71533000Y-96987000D02*
X75533000Y-96987000D01*
X75533000Y-101387000D02*
X75533000Y-96987000D01*
X71533000Y-101387000D02*
X75533000Y-101387000D01*
X71533000Y-113833000D02*
X71533000Y-109433000D01*
X71533000Y-109433000D02*
X75533000Y-109433000D01*
X75533000Y-113833000D02*
X75533000Y-109433000D01*
X71533000Y-113833000D02*
X75533000Y-113833000D01*
X71533000Y-126279000D02*
X71533000Y-121879000D01*
X71533000Y-121879000D02*
X75533000Y-121879000D01*
X75533000Y-126279000D02*
X75533000Y-121879000D01*
X71533000Y-126279000D02*
X75533000Y-126279000D01*
D12*
X83982000Y-127367000D02*
X85182000Y-127367000D01*
X85182000Y-125617000D02*
X83982000Y-125617000D01*
X78027560Y-127786840D02*
X78027560Y-128986840D01*
X79777560Y-128986840D02*
X79777560Y-127786840D01*
D10*
G36*
X79912892Y-102362000D02*
X79940279Y-103081864D01*
X79967666Y-103801728D01*
X78888166Y-103801531D01*
X78443869Y-103802936D01*
X78141654Y-103810190D01*
X77954279Y-103827561D01*
X77854501Y-103859317D01*
X77815075Y-103909727D01*
X77808666Y-103970666D01*
X77815473Y-104028902D01*
X77850646Y-104071991D01*
X77936317Y-104102210D01*
X78094618Y-104121837D01*
X78347678Y-104133149D01*
X78717630Y-104138423D01*
X79226604Y-104139937D01*
X79454302Y-104140000D01*
X81099938Y-104140000D01*
X81126469Y-104410829D01*
X81153000Y-104681659D01*
X81470500Y-104402059D01*
X81689852Y-104169802D01*
X81781128Y-103957552D01*
X81788000Y-103871606D01*
X81788000Y-103620754D01*
X80939253Y-103647543D01*
X80547135Y-103655462D01*
X80307142Y-103648273D01*
X80202610Y-103624420D01*
X80216874Y-103582348D01*
X80219586Y-103580333D01*
X80329341Y-103454538D01*
X80348666Y-103389833D01*
X80412903Y-103347627D01*
X80612676Y-103318061D01*
X80958579Y-103300289D01*
X81461207Y-103293465D01*
X81558393Y-103293333D01*
X82048969Y-103295817D01*
X82405481Y-103306088D01*
X82663160Y-103328375D01*
X82857237Y-103366909D01*
X83022946Y-103425919D01*
X83145210Y-103483833D01*
X83543763Y-103760434D01*
X83793655Y-104116096D01*
X83899934Y-104558840D01*
X83904667Y-104690333D01*
X83835205Y-105157237D01*
X83623456Y-105534955D01*
X83264368Y-105831509D01*
X83145210Y-105896833D01*
X82978050Y-105973312D01*
X82808036Y-106026251D01*
X82599934Y-106059882D01*
X82318513Y-106078432D01*
X81928541Y-106086133D01*
X81558393Y-106087333D01*
X81029301Y-106082209D01*
X80658655Y-106066273D01*
X80435860Y-106038681D01*
X80350323Y-105998586D01*
X80348666Y-105990834D01*
X80287314Y-105864102D01*
X80219586Y-105800334D01*
X80201059Y-105757525D01*
X80300683Y-105732997D01*
X80535123Y-105725192D01*
X80921044Y-105732554D01*
X80939253Y-105733123D01*
X81788000Y-105759913D01*
X81788000Y-105119290D01*
X81782174Y-104814261D01*
X81766752Y-104588056D01*
X81744821Y-104481875D01*
X81740017Y-104478666D01*
X81605766Y-104537404D01*
X81424673Y-104680151D01*
X81249154Y-104856712D01*
X81131622Y-105016892D01*
X81110666Y-105081382D01*
X81100754Y-105140247D01*
X81055084Y-105182530D01*
X80949760Y-105210956D01*
X80760884Y-105228249D01*
X80464559Y-105237135D01*
X80036887Y-105240339D01*
X79713666Y-105240666D01*
X79198125Y-105241602D01*
X78827914Y-105246350D01*
X78579035Y-105257817D01*
X78427488Y-105278914D01*
X78349273Y-105312549D01*
X78320391Y-105361632D01*
X78316666Y-105410000D01*
X78328533Y-105487869D01*
X78384817Y-105537360D01*
X78516540Y-105564832D01*
X78754728Y-105576638D01*
X79130404Y-105579137D01*
X79142166Y-105579136D01*
X79967666Y-105578938D01*
X79940279Y-106298802D01*
X79912892Y-107018666D01*
X80130779Y-107018666D01*
X80286205Y-106992514D01*
X80343175Y-106879472D01*
X80348666Y-106764666D01*
X80348666Y-106510666D01*
X81663719Y-106510666D01*
X82267474Y-106504070D01*
X82731535Y-106480195D01*
X83085174Y-106432911D01*
X83357663Y-106356091D01*
X83578275Y-106243605D01*
X83776280Y-106089323D01*
X83805917Y-106062126D01*
X84119621Y-105660575D01*
X84306127Y-105184928D01*
X84365435Y-104672869D01*
X84297546Y-104162082D01*
X84102458Y-103690249D01*
X83805917Y-103318541D01*
X83608779Y-103157443D01*
X83393437Y-103039063D01*
X83130620Y-102957271D01*
X82791055Y-102905937D01*
X82345470Y-102878933D01*
X81764593Y-102870129D01*
X81663719Y-102870000D01*
X80348666Y-102870000D01*
X80348666Y-102616000D01*
X80326232Y-102434814D01*
X80229262Y-102368402D01*
X80130779Y-102362000D01*
X79912892Y-102362000D01*
X79912892Y-102362000D01*
X79912892Y-102362000D01*
G37*
X79912892Y-102362000D02*
X79940279Y-103081864D01*
X79967666Y-103801728D01*
X78888166Y-103801531D01*
X78443869Y-103802936D01*
X78141654Y-103810190D01*
X77954279Y-103827561D01*
X77854501Y-103859317D01*
X77815075Y-103909727D01*
X77808666Y-103970666D01*
X77815473Y-104028902D01*
X77850646Y-104071991D01*
X77936317Y-104102210D01*
X78094618Y-104121837D01*
X78347678Y-104133149D01*
X78717630Y-104138423D01*
X79226604Y-104139937D01*
X79454302Y-104140000D01*
X81099938Y-104140000D01*
X81126469Y-104410829D01*
X81153000Y-104681659D01*
X81470500Y-104402059D01*
X81689852Y-104169802D01*
X81781128Y-103957552D01*
X81788000Y-103871606D01*
X81788000Y-103620754D01*
X80939253Y-103647543D01*
X80547135Y-103655462D01*
X80307142Y-103648273D01*
X80202610Y-103624420D01*
X80216874Y-103582348D01*
X80219586Y-103580333D01*
X80329341Y-103454538D01*
X80348666Y-103389833D01*
X80412903Y-103347627D01*
X80612676Y-103318061D01*
X80958579Y-103300289D01*
X81461207Y-103293465D01*
X81558393Y-103293333D01*
X82048969Y-103295817D01*
X82405481Y-103306088D01*
X82663160Y-103328375D01*
X82857237Y-103366909D01*
X83022946Y-103425919D01*
X83145210Y-103483833D01*
X83543763Y-103760434D01*
X83793655Y-104116096D01*
X83899934Y-104558840D01*
X83904667Y-104690333D01*
X83835205Y-105157237D01*
X83623456Y-105534955D01*
X83264368Y-105831509D01*
X83145210Y-105896833D01*
X82978050Y-105973312D01*
X82808036Y-106026251D01*
X82599934Y-106059882D01*
X82318513Y-106078432D01*
X81928541Y-106086133D01*
X81558393Y-106087333D01*
X81029301Y-106082209D01*
X80658655Y-106066273D01*
X80435860Y-106038681D01*
X80350323Y-105998586D01*
X80348666Y-105990834D01*
X80287314Y-105864102D01*
X80219586Y-105800334D01*
X80201059Y-105757525D01*
X80300683Y-105732997D01*
X80535123Y-105725192D01*
X80921044Y-105732554D01*
X80939253Y-105733123D01*
X81788000Y-105759913D01*
X81788000Y-105119290D01*
X81782174Y-104814261D01*
X81766752Y-104588056D01*
X81744821Y-104481875D01*
X81740017Y-104478666D01*
X81605766Y-104537404D01*
X81424673Y-104680151D01*
X81249154Y-104856712D01*
X81131622Y-105016892D01*
X81110666Y-105081382D01*
X81100754Y-105140247D01*
X81055084Y-105182530D01*
X80949760Y-105210956D01*
X80760884Y-105228249D01*
X80464559Y-105237135D01*
X80036887Y-105240339D01*
X79713666Y-105240666D01*
X79198125Y-105241602D01*
X78827914Y-105246350D01*
X78579035Y-105257817D01*
X78427488Y-105278914D01*
X78349273Y-105312549D01*
X78320391Y-105361632D01*
X78316666Y-105410000D01*
X78328533Y-105487869D01*
X78384817Y-105537360D01*
X78516540Y-105564832D01*
X78754728Y-105576638D01*
X79130404Y-105579137D01*
X79142166Y-105579136D01*
X79967666Y-105578938D01*
X79940279Y-106298802D01*
X79912892Y-107018666D01*
X80130779Y-107018666D01*
X80286205Y-106992514D01*
X80343175Y-106879472D01*
X80348666Y-106764666D01*
X80348666Y-106510666D01*
X81663719Y-106510666D01*
X82267474Y-106504070D01*
X82731535Y-106480195D01*
X83085174Y-106432911D01*
X83357663Y-106356091D01*
X83578275Y-106243605D01*
X83776280Y-106089323D01*
X83805917Y-106062126D01*
X84119621Y-105660575D01*
X84306127Y-105184928D01*
X84365435Y-104672869D01*
X84297546Y-104162082D01*
X84102458Y-103690249D01*
X83805917Y-103318541D01*
X83608779Y-103157443D01*
X83393437Y-103039063D01*
X83130620Y-102957271D01*
X82791055Y-102905937D01*
X82345470Y-102878933D01*
X81764593Y-102870129D01*
X81663719Y-102870000D01*
X80348666Y-102870000D01*
X80348666Y-102616000D01*
X80326232Y-102434814D01*
X80229262Y-102368402D01*
X80130779Y-102362000D01*
X79912892Y-102362000D01*
X79912892Y-102362000D01*
G36*
X80137000Y-104224666D02*
X80015774Y-104236754D01*
X79952653Y-104300643D01*
X79928801Y-104457770D01*
X79925333Y-104690333D01*
X79930828Y-104957030D01*
X79959868Y-105095897D01*
X80031289Y-105148371D01*
X80137000Y-105156000D01*
X80258226Y-105143912D01*
X80321347Y-105080023D01*
X80345199Y-104922896D01*
X80348666Y-104690333D01*
X80343172Y-104423636D01*
X80314132Y-104284769D01*
X80242710Y-104232295D01*
X80137000Y-104224666D01*
X80137000Y-104224666D01*
X80137000Y-104224666D01*
G37*
X80137000Y-104224666D02*
X80015774Y-104236754D01*
X79952653Y-104300643D01*
X79928801Y-104457770D01*
X79925333Y-104690333D01*
X79930828Y-104957030D01*
X79959868Y-105095897D01*
X80031289Y-105148371D01*
X80137000Y-105156000D01*
X80258226Y-105143912D01*
X80321347Y-105080023D01*
X80345199Y-104922896D01*
X80348666Y-104690333D01*
X80343172Y-104423636D01*
X80314132Y-104284769D01*
X80242710Y-104232295D01*
X80137000Y-104224666D01*
X80137000Y-104224666D01*
G36*
X81915000Y-106934000D02*
X81807337Y-106941914D01*
X81744228Y-106989434D01*
X81713783Y-107112228D01*
X81704111Y-107345966D01*
X81703333Y-107569000D01*
X81705971Y-107891987D01*
X81721811Y-108081315D01*
X81762743Y-108172652D01*
X81840655Y-108201666D01*
X81915000Y-108204000D01*
X82022662Y-108196086D01*
X82085772Y-108148566D01*
X82116217Y-108025771D01*
X82125888Y-107792033D01*
X82126666Y-107569000D01*
X82124029Y-107246012D01*
X82108189Y-107056684D01*
X82067257Y-106965348D01*
X81989344Y-106936334D01*
X81915000Y-106934000D01*
X81915000Y-106934000D01*
X81915000Y-106934000D01*
G37*
X81915000Y-106934000D02*
X81807337Y-106941914D01*
X81744228Y-106989434D01*
X81713783Y-107112228D01*
X81704111Y-107345966D01*
X81703333Y-107569000D01*
X81705971Y-107891987D01*
X81721811Y-108081315D01*
X81762743Y-108172652D01*
X81840655Y-108201666D01*
X81915000Y-108204000D01*
X82022662Y-108196086D01*
X82085772Y-108148566D01*
X82116217Y-108025771D01*
X82125888Y-107792033D01*
X82126666Y-107569000D01*
X82124029Y-107246012D01*
X82108189Y-107056684D01*
X82067257Y-106965348D01*
X81989344Y-106936334D01*
X81915000Y-106934000D01*
X81915000Y-106934000D01*
G36*
X81915000Y-101176666D02*
X81807337Y-101184580D01*
X81744228Y-101232100D01*
X81713783Y-101354895D01*
X81704111Y-101588633D01*
X81703333Y-101811666D01*
X81705971Y-102134654D01*
X81721811Y-102323982D01*
X81762743Y-102415318D01*
X81840655Y-102444332D01*
X81915000Y-102446666D01*
X82022662Y-102438753D01*
X82085772Y-102391233D01*
X82116217Y-102268438D01*
X82125888Y-102034700D01*
X82126666Y-101811666D01*
X82124029Y-101488679D01*
X82108189Y-101299351D01*
X82067257Y-101208015D01*
X81989344Y-101179001D01*
X81915000Y-101176666D01*
X81915000Y-101176666D01*
X81915000Y-101176666D01*
G37*
X81915000Y-101176666D02*
X81807337Y-101184580D01*
X81744228Y-101232100D01*
X81713783Y-101354895D01*
X81704111Y-101588633D01*
X81703333Y-101811666D01*
X81705971Y-102134654D01*
X81721811Y-102323982D01*
X81762743Y-102415318D01*
X81840655Y-102444332D01*
X81915000Y-102446666D01*
X82022662Y-102438753D01*
X82085772Y-102391233D01*
X82116217Y-102268438D01*
X82125888Y-102034700D01*
X82126666Y-101811666D01*
X82124029Y-101488679D01*
X82108189Y-101299351D01*
X82067257Y-101208015D01*
X81989344Y-101179001D01*
X81915000Y-101176666D01*
X81915000Y-101176666D01*
G36*
X82230691Y-105262100D02*
X82063373Y-105262631D01*
X81929370Y-105380498D01*
X81888911Y-105508565D01*
X81907151Y-105695199D01*
X82041156Y-105790625D01*
X82051793Y-105794108D01*
X82251630Y-105789223D01*
X82382339Y-105667544D01*
X82404032Y-105479070D01*
X82371657Y-105393166D01*
X82230691Y-105262100D01*
X82230691Y-105262100D01*
X82230691Y-105262100D01*
G37*
X82230691Y-105262100D02*
X82063373Y-105262631D01*
X81929370Y-105380498D01*
X81888911Y-105508565D01*
X81907151Y-105695199D01*
X82041156Y-105790625D01*
X82051793Y-105794108D01*
X82251630Y-105789223D01*
X82382339Y-105667544D01*
X82404032Y-105479070D01*
X82371657Y-105393166D01*
X82230691Y-105262100D01*
X82230691Y-105262100D01*
G36*
X82140538Y-103570599D02*
X82056715Y-103584996D01*
X81919936Y-103702761D01*
X81864893Y-103891271D01*
X81913323Y-104065600D01*
X81929111Y-104083555D01*
X82088541Y-104141260D01*
X82270880Y-104088588D01*
X82374407Y-103982362D01*
X82406500Y-103784922D01*
X82314705Y-103630358D01*
X82140538Y-103570599D01*
X82140538Y-103570599D01*
X82140538Y-103570599D01*
G37*
X82140538Y-103570599D02*
X82056715Y-103584996D01*
X81919936Y-103702761D01*
X81864893Y-103891271D01*
X81913323Y-104065600D01*
X81929111Y-104083555D01*
X82088541Y-104141260D01*
X82270880Y-104088588D01*
X82374407Y-103982362D01*
X82406500Y-103784922D01*
X82314705Y-103630358D01*
X82140538Y-103570599D01*
X82140538Y-103570599D01*
G36*
X82550000Y-106934000D02*
X82475893Y-106944717D01*
X82427249Y-106996384D01*
X82398747Y-107118273D01*
X82385062Y-107339656D01*
X82380875Y-107689807D01*
X82380666Y-107865333D01*
X82382615Y-108272921D01*
X82392009Y-108540461D01*
X82414171Y-108697226D01*
X82454422Y-108772489D01*
X82518086Y-108795520D01*
X82550000Y-108796666D01*
X82624107Y-108785949D01*
X82672750Y-108734282D01*
X82701253Y-108612393D01*
X82714937Y-108391010D01*
X82719125Y-108040860D01*
X82719333Y-107865333D01*
X82717385Y-107457745D01*
X82707991Y-107190205D01*
X82685829Y-107033440D01*
X82645577Y-106958178D01*
X82581914Y-106935146D01*
X82550000Y-106934000D01*
X82550000Y-106934000D01*
X82550000Y-106934000D01*
G37*
X82550000Y-106934000D02*
X82475893Y-106944717D01*
X82427249Y-106996384D01*
X82398747Y-107118273D01*
X82385062Y-107339656D01*
X82380875Y-107689807D01*
X82380666Y-107865333D01*
X82382615Y-108272921D01*
X82392009Y-108540461D01*
X82414171Y-108697226D01*
X82454422Y-108772489D01*
X82518086Y-108795520D01*
X82550000Y-108796666D01*
X82624107Y-108785949D01*
X82672750Y-108734282D01*
X82701253Y-108612393D01*
X82714937Y-108391010D01*
X82719125Y-108040860D01*
X82719333Y-107865333D01*
X82717385Y-107457745D01*
X82707991Y-107190205D01*
X82685829Y-107033440D01*
X82645577Y-106958178D01*
X82581914Y-106935146D01*
X82550000Y-106934000D01*
X82550000Y-106934000D01*
G36*
X82550000Y-100584000D02*
X82475893Y-100594717D01*
X82427249Y-100646384D01*
X82398747Y-100768273D01*
X82385062Y-100989656D01*
X82380875Y-101339807D01*
X82380666Y-101515333D01*
X82382615Y-101922921D01*
X82392009Y-102190461D01*
X82414171Y-102347226D01*
X82454422Y-102422489D01*
X82518086Y-102445520D01*
X82550000Y-102446666D01*
X82624107Y-102435949D01*
X82672750Y-102384282D01*
X82701253Y-102262393D01*
X82714937Y-102041010D01*
X82719125Y-101690860D01*
X82719333Y-101515333D01*
X82717385Y-101107745D01*
X82707991Y-100840205D01*
X82685829Y-100683440D01*
X82645577Y-100608178D01*
X82581914Y-100585146D01*
X82550000Y-100584000D01*
X82550000Y-100584000D01*
X82550000Y-100584000D01*
G37*
X82550000Y-100584000D02*
X82475893Y-100594717D01*
X82427249Y-100646384D01*
X82398747Y-100768273D01*
X82385062Y-100989656D01*
X82380875Y-101339807D01*
X82380666Y-101515333D01*
X82382615Y-101922921D01*
X82392009Y-102190461D01*
X82414171Y-102347226D01*
X82454422Y-102422489D01*
X82518086Y-102445520D01*
X82550000Y-102446666D01*
X82624107Y-102435949D01*
X82672750Y-102384282D01*
X82701253Y-102262393D01*
X82714937Y-102041010D01*
X82719125Y-101690860D01*
X82719333Y-101515333D01*
X82717385Y-101107745D01*
X82707991Y-100840205D01*
X82685829Y-100683440D01*
X82645577Y-100608178D01*
X82581914Y-100585146D01*
X82550000Y-100584000D01*
X82550000Y-100584000D01*
G36*
X83158680Y-106864611D02*
X83010769Y-106889826D01*
X82984834Y-107029419D01*
X83017790Y-107145666D01*
X83056805Y-107275068D01*
X83117487Y-107498387D01*
X83141369Y-107590166D01*
X83231967Y-107834047D01*
X83337319Y-107946088D01*
X83360254Y-107950000D01*
X83484525Y-107904480D01*
X83527896Y-107754766D01*
X83493270Y-107481129D01*
X83453715Y-107315000D01*
X83366811Y-107046542D01*
X83268799Y-106908331D01*
X83158680Y-106864611D01*
X83158680Y-106864611D01*
X83158680Y-106864611D01*
G37*
X83158680Y-106864611D02*
X83010769Y-106889826D01*
X82984834Y-107029419D01*
X83017790Y-107145666D01*
X83056805Y-107275068D01*
X83117487Y-107498387D01*
X83141369Y-107590166D01*
X83231967Y-107834047D01*
X83337319Y-107946088D01*
X83360254Y-107950000D01*
X83484525Y-107904480D01*
X83527896Y-107754766D01*
X83493270Y-107481129D01*
X83453715Y-107315000D01*
X83366811Y-107046542D01*
X83268799Y-106908331D01*
X83158680Y-106864611D01*
X83158680Y-106864611D01*
G36*
X83294097Y-101431963D02*
X83246920Y-101479371D01*
X83185940Y-101636588D01*
X83104686Y-101923365D01*
X83014070Y-102286981D01*
X83001426Y-102460114D01*
X83095585Y-102541931D01*
X83135324Y-102553945D01*
X83253228Y-102557081D01*
X83331782Y-102464636D01*
X83400651Y-102247964D01*
X83469043Y-101987791D01*
X83526769Y-101776067D01*
X83537766Y-101737596D01*
X83513842Y-101566373D01*
X83377563Y-101448697D01*
X83294097Y-101431963D01*
X83294097Y-101431963D01*
X83294097Y-101431963D01*
G37*
X83294097Y-101431963D02*
X83246920Y-101479371D01*
X83185940Y-101636588D01*
X83104686Y-101923365D01*
X83014070Y-102286981D01*
X83001426Y-102460114D01*
X83095585Y-102541931D01*
X83135324Y-102553945D01*
X83253228Y-102557081D01*
X83331782Y-102464636D01*
X83400651Y-102247964D01*
X83469043Y-101987791D01*
X83526769Y-101776067D01*
X83537766Y-101737596D01*
X83513842Y-101566373D01*
X83377563Y-101448697D01*
X83294097Y-101431963D01*
X83294097Y-101431963D01*
G36*
X83770253Y-106549087D02*
X83720033Y-106573439D01*
X83687336Y-106600034D01*
X83611625Y-106678646D01*
X83586628Y-106771624D01*
X83621581Y-106908656D01*
X83725721Y-107119426D01*
X83908284Y-107433619D01*
X83987907Y-107566041D01*
X84197980Y-107907539D01*
X84345982Y-108123051D01*
X84453704Y-108233700D01*
X84542938Y-108260609D01*
X84635477Y-108224899D01*
X84655183Y-108212809D01*
X84696226Y-108145988D01*
X84670770Y-108017179D01*
X84569223Y-107798882D01*
X84412045Y-107515685D01*
X84178292Y-107109903D01*
X84013227Y-106830557D01*
X83900859Y-106657441D01*
X83825199Y-106570353D01*
X83770253Y-106549087D01*
X83770253Y-106549087D01*
X83770253Y-106549087D01*
G37*
X83770253Y-106549087D02*
X83720033Y-106573439D01*
X83687336Y-106600034D01*
X83611625Y-106678646D01*
X83586628Y-106771624D01*
X83621581Y-106908656D01*
X83725721Y-107119426D01*
X83908284Y-107433619D01*
X83987907Y-107566041D01*
X84197980Y-107907539D01*
X84345982Y-108123051D01*
X84453704Y-108233700D01*
X84542938Y-108260609D01*
X84635477Y-108224899D01*
X84655183Y-108212809D01*
X84696226Y-108145988D01*
X84670770Y-108017179D01*
X84569223Y-107798882D01*
X84412045Y-107515685D01*
X84178292Y-107109903D01*
X84013227Y-106830557D01*
X83900859Y-106657441D01*
X83825199Y-106570353D01*
X83770253Y-106549087D01*
X83770253Y-106549087D01*
G36*
X84509871Y-101115974D02*
X84462750Y-101119015D01*
X84395293Y-101196377D01*
X84269439Y-101383254D01*
X84108313Y-101640745D01*
X83935042Y-101929947D01*
X83772750Y-102211959D01*
X83644564Y-102447878D01*
X83573609Y-102598802D01*
X83566431Y-102626800D01*
X83622905Y-102718921D01*
X83687336Y-102780632D01*
X83742030Y-102821968D01*
X83792319Y-102829221D01*
X83854195Y-102782185D01*
X83943648Y-102660657D01*
X84076669Y-102444432D01*
X84269250Y-102113306D01*
X84412045Y-101864981D01*
X84587379Y-101546764D01*
X84678301Y-101341893D01*
X84694404Y-101222869D01*
X84655183Y-101167857D01*
X84509871Y-101115974D01*
X84509871Y-101115974D01*
X84509871Y-101115974D01*
G37*
X84509871Y-101115974D02*
X84462750Y-101119015D01*
X84395293Y-101196377D01*
X84269439Y-101383254D01*
X84108313Y-101640745D01*
X83935042Y-101929947D01*
X83772750Y-102211959D01*
X83644564Y-102447878D01*
X83573609Y-102598802D01*
X83566431Y-102626800D01*
X83622905Y-102718921D01*
X83687336Y-102780632D01*
X83742030Y-102821968D01*
X83792319Y-102829221D01*
X83854195Y-102782185D01*
X83943648Y-102660657D01*
X84076669Y-102444432D01*
X84269250Y-102113306D01*
X84412045Y-101864981D01*
X84587379Y-101546764D01*
X84678301Y-101341893D01*
X84694404Y-101222869D01*
X84655183Y-101167857D01*
X84509871Y-101115974D01*
X84509871Y-101115974D01*
G36*
X84194057Y-106206862D02*
X84117208Y-106261839D01*
X84061590Y-106342435D01*
X84078013Y-106435341D01*
X84184340Y-106574282D01*
X84398437Y-106792985D01*
X84398670Y-106793214D01*
X84619863Y-107003616D01*
X84758443Y-107107246D01*
X84847487Y-107120984D01*
X84920075Y-107061706D01*
X84921510Y-107059984D01*
X84967925Y-106970858D01*
X84939896Y-106866963D01*
X84818957Y-106713441D01*
X84640048Y-106528609D01*
X84423312Y-106320018D01*
X84286207Y-106218666D01*
X84194057Y-106206862D01*
X84194057Y-106206862D01*
X84194057Y-106206862D01*
G37*
X84194057Y-106206862D02*
X84117208Y-106261839D01*
X84061590Y-106342435D01*
X84078013Y-106435341D01*
X84184340Y-106574282D01*
X84398437Y-106792985D01*
X84398670Y-106793214D01*
X84619863Y-107003616D01*
X84758443Y-107107246D01*
X84847487Y-107120984D01*
X84920075Y-107061706D01*
X84921510Y-107059984D01*
X84967925Y-106970858D01*
X84939896Y-106866963D01*
X84818957Y-106713441D01*
X84640048Y-106528609D01*
X84423312Y-106320018D01*
X84286207Y-106218666D01*
X84194057Y-106206862D01*
X84194057Y-106206862D01*
G36*
X84834898Y-102264923D02*
X84741992Y-102281346D01*
X84603051Y-102387674D01*
X84384348Y-102601771D01*
X84384119Y-102602003D01*
X84173717Y-102823196D01*
X84070087Y-102961776D01*
X84056349Y-103050820D01*
X84115627Y-103123409D01*
X84117349Y-103124843D01*
X84206475Y-103171259D01*
X84310370Y-103143229D01*
X84463892Y-103022290D01*
X84648724Y-102843381D01*
X84857315Y-102626646D01*
X84958667Y-102489540D01*
X84970471Y-102397390D01*
X84915494Y-102320541D01*
X84834898Y-102264923D01*
X84834898Y-102264923D01*
X84834898Y-102264923D01*
G37*
X84834898Y-102264923D02*
X84741992Y-102281346D01*
X84603051Y-102387674D01*
X84384348Y-102601771D01*
X84384119Y-102602003D01*
X84173717Y-102823196D01*
X84070087Y-102961776D01*
X84056349Y-103050820D01*
X84115627Y-103123409D01*
X84117349Y-103124843D01*
X84206475Y-103171259D01*
X84310370Y-103143229D01*
X84463892Y-103022290D01*
X84648724Y-102843381D01*
X84857315Y-102626646D01*
X84958667Y-102489540D01*
X84970471Y-102397390D01*
X84915494Y-102320541D01*
X84834898Y-102264923D01*
X84834898Y-102264923D01*
G36*
X84599794Y-105715923D02*
X84515502Y-105729345D01*
X84491505Y-105755198D01*
X84423690Y-105891395D01*
X84413963Y-105932804D01*
X84482236Y-105996009D01*
X84667514Y-106121238D01*
X84938750Y-106288328D01*
X85163548Y-106419637D01*
X85486503Y-106599847D01*
X85758116Y-106742865D01*
X85943037Y-106830557D01*
X86001156Y-106849333D01*
X86085522Y-106790225D01*
X86161340Y-106668306D01*
X86180582Y-106566686D01*
X86171493Y-106554585D01*
X86093093Y-106508444D01*
X85898835Y-106396348D01*
X85619935Y-106236264D01*
X85358042Y-106086401D01*
X84995927Y-105884843D01*
X84751557Y-105764553D01*
X84599794Y-105715923D01*
X84599794Y-105715923D01*
X84599794Y-105715923D01*
G37*
X84599794Y-105715923D02*
X84515502Y-105729345D01*
X84491505Y-105755198D01*
X84423690Y-105891395D01*
X84413963Y-105932804D01*
X84482236Y-105996009D01*
X84667514Y-106121238D01*
X84938750Y-106288328D01*
X85163548Y-106419637D01*
X85486503Y-106599847D01*
X85758116Y-106742865D01*
X85943037Y-106830557D01*
X86001156Y-106849333D01*
X86085522Y-106790225D01*
X86161340Y-106668306D01*
X86180582Y-106566686D01*
X86171493Y-106554585D01*
X86093093Y-106508444D01*
X85898835Y-106396348D01*
X85619935Y-106236264D01*
X85358042Y-106086401D01*
X84995927Y-105884843D01*
X84751557Y-105764553D01*
X84599794Y-105715923D01*
X84599794Y-105715923D01*
G36*
X86002019Y-102531333D02*
X85894116Y-102570985D01*
X85686064Y-102675540D01*
X85415125Y-102823396D01*
X85118557Y-102992951D01*
X84833620Y-103162603D01*
X84597574Y-103310751D01*
X84447679Y-103415793D01*
X84413963Y-103452024D01*
X84455100Y-103561865D01*
X84491026Y-103624694D01*
X84552198Y-103664206D01*
X84669914Y-103646088D01*
X84869234Y-103560859D01*
X85175217Y-103399043D01*
X85357563Y-103296914D01*
X85682079Y-103112682D01*
X85946610Y-102961375D01*
X86119816Y-102860990D01*
X86171493Y-102829504D01*
X86171336Y-102739340D01*
X86103260Y-102612154D01*
X86015989Y-102533672D01*
X86002019Y-102531333D01*
X86002019Y-102531333D01*
X86002019Y-102531333D01*
G37*
X86002019Y-102531333D02*
X85894116Y-102570985D01*
X85686064Y-102675540D01*
X85415125Y-102823396D01*
X85118557Y-102992951D01*
X84833620Y-103162603D01*
X84597574Y-103310751D01*
X84447679Y-103415793D01*
X84413963Y-103452024D01*
X84455100Y-103561865D01*
X84491026Y-103624694D01*
X84552198Y-103664206D01*
X84669914Y-103646088D01*
X84869234Y-103560859D01*
X85175217Y-103399043D01*
X85357563Y-103296914D01*
X85682079Y-103112682D01*
X85946610Y-102961375D01*
X86119816Y-102860990D01*
X86171493Y-102829504D01*
X86171336Y-102739340D01*
X86103260Y-102612154D01*
X86015989Y-102533672D01*
X86002019Y-102531333D01*
X86002019Y-102531333D01*
G36*
X84821792Y-105136264D02*
X84742645Y-105166596D01*
X84713952Y-105215959D01*
X84676114Y-105357261D01*
X84720278Y-105445446D01*
X84878014Y-105511017D01*
X85068833Y-105558851D01*
X85339305Y-105626180D01*
X85557992Y-105688530D01*
X85619166Y-105709451D01*
X85730461Y-105717763D01*
X85766495Y-105598821D01*
X85767333Y-105556478D01*
X85748616Y-105434512D01*
X85667218Y-105350479D01*
X85485271Y-105279008D01*
X85264285Y-105219454D01*
X84982163Y-105153798D01*
X84821792Y-105136264D01*
X84821792Y-105136264D01*
X84821792Y-105136264D01*
G37*
X84821792Y-105136264D02*
X84742645Y-105166596D01*
X84713952Y-105215959D01*
X84676114Y-105357261D01*
X84720278Y-105445446D01*
X84878014Y-105511017D01*
X85068833Y-105558851D01*
X85339305Y-105626180D01*
X85557992Y-105688530D01*
X85619166Y-105709451D01*
X85730461Y-105717763D01*
X85766495Y-105598821D01*
X85767333Y-105556478D01*
X85748616Y-105434512D01*
X85667218Y-105350479D01*
X85485271Y-105279008D01*
X85264285Y-105219454D01*
X84982163Y-105153798D01*
X84821792Y-105136264D01*
X84821792Y-105136264D01*
G36*
X85649227Y-103660773D02*
X85619166Y-103671215D01*
X85449874Y-103724229D01*
X85193266Y-103791944D01*
X85068833Y-103821815D01*
X84810909Y-103898044D01*
X84694968Y-103989005D01*
X84694219Y-104123157D01*
X84719286Y-104193138D01*
X84798400Y-104236802D01*
X84991741Y-104221614D01*
X85262935Y-104161552D01*
X85543844Y-104083008D01*
X85696216Y-104010764D01*
X85757872Y-103919523D01*
X85767333Y-103824188D01*
X85742849Y-103675694D01*
X85649227Y-103660773D01*
X85649227Y-103660773D01*
X85649227Y-103660773D01*
G37*
X85649227Y-103660773D02*
X85619166Y-103671215D01*
X85449874Y-103724229D01*
X85193266Y-103791944D01*
X85068833Y-103821815D01*
X84810909Y-103898044D01*
X84694968Y-103989005D01*
X84694219Y-104123157D01*
X84719286Y-104193138D01*
X84798400Y-104236802D01*
X84991741Y-104221614D01*
X85262935Y-104161552D01*
X85543844Y-104083008D01*
X85696216Y-104010764D01*
X85757872Y-103919523D01*
X85767333Y-103824188D01*
X85742849Y-103675694D01*
X85649227Y-103660773D01*
X85649227Y-103660773D01*
G36*
X84751333Y-104473121D02*
X84751333Y-104690333D01*
X84751333Y-104907546D01*
X85703833Y-104883606D01*
X86117140Y-104871185D01*
X86390014Y-104854803D01*
X86551346Y-104828598D01*
X86630027Y-104786707D01*
X86654947Y-104723269D01*
X86656333Y-104690333D01*
X86644896Y-104616569D01*
X86591324Y-104566712D01*
X86466728Y-104534899D01*
X86242216Y-104515268D01*
X85888899Y-104501958D01*
X85703833Y-104497060D01*
X84751333Y-104473121D01*
X84751333Y-104473121D01*
X84751333Y-104473121D01*
G37*
X84751333Y-104473121D02*
X84751333Y-104690333D01*
X84751333Y-104907546D01*
X85703833Y-104883606D01*
X86117140Y-104871185D01*
X86390014Y-104854803D01*
X86551346Y-104828598D01*
X86630027Y-104786707D01*
X86654947Y-104723269D01*
X86656333Y-104690333D01*
X86644896Y-104616569D01*
X86591324Y-104566712D01*
X86466728Y-104534899D01*
X86242216Y-104515268D01*
X85888899Y-104501958D01*
X85703833Y-104497060D01*
X84751333Y-104473121D01*
X84751333Y-104473121D01*
G36*
X84795316Y-85320098D02*
X84703089Y-85321393D01*
X84701284Y-85321438D01*
X84478615Y-85327067D01*
X84454108Y-85374578D01*
X84432654Y-85438529D01*
X84430704Y-85505357D01*
X84448114Y-85569293D01*
X84459485Y-85591146D01*
X84477984Y-85624583D01*
X84481632Y-85640334D01*
X84855540Y-85640334D01*
X84925229Y-85645663D01*
X84978797Y-85662729D01*
X85019513Y-85693146D01*
X85049369Y-85736070D01*
X85073417Y-85805194D01*
X85080792Y-85882951D01*
X85072471Y-85961195D01*
X85049431Y-86031778D01*
X85012650Y-86086555D01*
X85006630Y-86092345D01*
X84973647Y-86110636D01*
X84927306Y-86121678D01*
X84873845Y-86125566D01*
X84819501Y-86122395D01*
X84770510Y-86112260D01*
X84733110Y-86095255D01*
X84724275Y-86088054D01*
X84681925Y-86031260D01*
X84654476Y-85961772D01*
X84642861Y-85885979D01*
X84648015Y-85810269D01*
X84670871Y-85741030D01*
X84672953Y-85736980D01*
X84705900Y-85689952D01*
X84748183Y-85659482D01*
X84803363Y-85643686D01*
X84855540Y-85640334D01*
X84481632Y-85640334D01*
X84483810Y-85649738D01*
X84479069Y-85681569D01*
X84474725Y-85699366D01*
X84467043Y-85747818D01*
X84461788Y-85815715D01*
X84460089Y-85881090D01*
X84461958Y-85959662D01*
X84469059Y-86022166D01*
X84483653Y-86086036D01*
X84489234Y-86106001D01*
X84532385Y-86224431D01*
X84587005Y-86317265D01*
X84653978Y-86385292D01*
X84734189Y-86429301D01*
X84828520Y-86450081D01*
X84876640Y-86452059D01*
X84958907Y-86443125D01*
X85029358Y-86415498D01*
X85094223Y-86366057D01*
X85134631Y-86322767D01*
X85192187Y-86236027D01*
X85233676Y-86133938D01*
X85259345Y-86021346D01*
X85269438Y-85903097D01*
X85264201Y-85784038D01*
X85243880Y-85669014D01*
X85208720Y-85562872D01*
X85158966Y-85470457D01*
X85094864Y-85396616D01*
X85087389Y-85390202D01*
X85055231Y-85366650D01*
X85020354Y-85348538D01*
X84979841Y-85335347D01*
X84930775Y-85326556D01*
X84870239Y-85321646D01*
X84795316Y-85320098D01*
X84795316Y-85320098D01*
X84795316Y-85320098D01*
G37*
X84795316Y-85320098D02*
X84703089Y-85321393D01*
X84701284Y-85321438D01*
X84478615Y-85327067D01*
X84454108Y-85374578D01*
X84432654Y-85438529D01*
X84430704Y-85505357D01*
X84448114Y-85569293D01*
X84459485Y-85591146D01*
X84477984Y-85624583D01*
X84481632Y-85640334D01*
X84855540Y-85640334D01*
X84925229Y-85645663D01*
X84978797Y-85662729D01*
X85019513Y-85693146D01*
X85049369Y-85736070D01*
X85073417Y-85805194D01*
X85080792Y-85882951D01*
X85072471Y-85961195D01*
X85049431Y-86031778D01*
X85012650Y-86086555D01*
X85006630Y-86092345D01*
X84973647Y-86110636D01*
X84927306Y-86121678D01*
X84873845Y-86125566D01*
X84819501Y-86122395D01*
X84770510Y-86112260D01*
X84733110Y-86095255D01*
X84724275Y-86088054D01*
X84681925Y-86031260D01*
X84654476Y-85961772D01*
X84642861Y-85885979D01*
X84648015Y-85810269D01*
X84670871Y-85741030D01*
X84672953Y-85736980D01*
X84705900Y-85689952D01*
X84748183Y-85659482D01*
X84803363Y-85643686D01*
X84855540Y-85640334D01*
X84481632Y-85640334D01*
X84483810Y-85649738D01*
X84479069Y-85681569D01*
X84474725Y-85699366D01*
X84467043Y-85747818D01*
X84461788Y-85815715D01*
X84460089Y-85881090D01*
X84461958Y-85959662D01*
X84469059Y-86022166D01*
X84483653Y-86086036D01*
X84489234Y-86106001D01*
X84532385Y-86224431D01*
X84587005Y-86317265D01*
X84653978Y-86385292D01*
X84734189Y-86429301D01*
X84828520Y-86450081D01*
X84876640Y-86452059D01*
X84958907Y-86443125D01*
X85029358Y-86415498D01*
X85094223Y-86366057D01*
X85134631Y-86322767D01*
X85192187Y-86236027D01*
X85233676Y-86133938D01*
X85259345Y-86021346D01*
X85269438Y-85903097D01*
X85264201Y-85784038D01*
X85243880Y-85669014D01*
X85208720Y-85562872D01*
X85158966Y-85470457D01*
X85094864Y-85396616D01*
X85087389Y-85390202D01*
X85055231Y-85366650D01*
X85020354Y-85348538D01*
X84979841Y-85335347D01*
X84930775Y-85326556D01*
X84870239Y-85321646D01*
X84795316Y-85320098D01*
X84795316Y-85320098D01*
G36*
X84550565Y-88603667D02*
X84519787Y-88617594D01*
X84488567Y-88652698D01*
X84464379Y-88698965D01*
X84455937Y-88730475D01*
X84452960Y-88765170D01*
X84456002Y-88798994D01*
X84466689Y-88835042D01*
X84486647Y-88876407D01*
X84517502Y-88926185D01*
X84560878Y-88987469D01*
X84618401Y-89063354D01*
X84656410Y-89112120D01*
X84708376Y-89179129D01*
X84754440Y-89239970D01*
X84792279Y-89291456D01*
X84819573Y-89330403D01*
X84834000Y-89353624D01*
X84835676Y-89358112D01*
X84829085Y-89379738D01*
X84812092Y-89413348D01*
X84802980Y-89428587D01*
X84788818Y-89450258D01*
X84775647Y-89465142D01*
X84759335Y-89474725D01*
X84735753Y-89480491D01*
X84700768Y-89483927D01*
X84650248Y-89486516D01*
X84640646Y-89486942D01*
X84586866Y-89489705D01*
X84549420Y-89493214D01*
X84524323Y-89498708D01*
X84507593Y-89507424D01*
X84495243Y-89520601D01*
X84485952Y-89535001D01*
X84463397Y-89590941D01*
X84453880Y-89655059D01*
X84459141Y-89712800D01*
X84473228Y-89749462D01*
X84490428Y-89780534D01*
X84495895Y-89787913D01*
X84502748Y-89794135D01*
X84512649Y-89799298D01*
X84527262Y-89803500D01*
X84548251Y-89806842D01*
X84577278Y-89809421D01*
X84616007Y-89811335D01*
X84666102Y-89812684D01*
X84729226Y-89813566D01*
X84807041Y-89814080D01*
X84901212Y-89814324D01*
X85013402Y-89814397D01*
X85061550Y-89814400D01*
X85610087Y-89814400D01*
X85634473Y-89763600D01*
X85653281Y-89702207D01*
X85657260Y-89635039D01*
X85647331Y-89571813D01*
X85624418Y-89522244D01*
X85610091Y-89506962D01*
X85595710Y-89502982D01*
X85563827Y-89498807D01*
X85517260Y-89494653D01*
X85458825Y-89490734D01*
X85391340Y-89487267D01*
X85317621Y-89484467D01*
X85314658Y-89484374D01*
X85036396Y-89475734D01*
X85188676Y-89194894D01*
X85233383Y-89111025D01*
X85273521Y-89033033D01*
X85306998Y-88965199D01*
X85331726Y-88911803D01*
X85345616Y-88877124D01*
X85347730Y-88869070D01*
X85348000Y-88815377D01*
X85337155Y-88756945D01*
X85318698Y-88708434D01*
X85304889Y-88689697D01*
X85279857Y-88676456D01*
X85251682Y-88671400D01*
X85236915Y-88674444D01*
X85220898Y-88685494D01*
X85201702Y-88707426D01*
X85177396Y-88743117D01*
X85146051Y-88795446D01*
X85105739Y-88867289D01*
X85054529Y-88961522D01*
X85044020Y-88981056D01*
X84973160Y-89112912D01*
X84871560Y-88980384D01*
X84794422Y-88880014D01*
X84731496Y-88798829D01*
X84681117Y-88734878D01*
X84641623Y-88686207D01*
X84611350Y-88650863D01*
X84588633Y-88626894D01*
X84571809Y-88612347D01*
X84559214Y-88605269D01*
X84550565Y-88603667D01*
X84550565Y-88603667D01*
X84550565Y-88603667D01*
G37*
X84550565Y-88603667D02*
X84519787Y-88617594D01*
X84488567Y-88652698D01*
X84464379Y-88698965D01*
X84455937Y-88730475D01*
X84452960Y-88765170D01*
X84456002Y-88798994D01*
X84466689Y-88835042D01*
X84486647Y-88876407D01*
X84517502Y-88926185D01*
X84560878Y-88987469D01*
X84618401Y-89063354D01*
X84656410Y-89112120D01*
X84708376Y-89179129D01*
X84754440Y-89239970D01*
X84792279Y-89291456D01*
X84819573Y-89330403D01*
X84834000Y-89353624D01*
X84835676Y-89358112D01*
X84829085Y-89379738D01*
X84812092Y-89413348D01*
X84802980Y-89428587D01*
X84788818Y-89450258D01*
X84775647Y-89465142D01*
X84759335Y-89474725D01*
X84735753Y-89480491D01*
X84700768Y-89483927D01*
X84650248Y-89486516D01*
X84640646Y-89486942D01*
X84586866Y-89489705D01*
X84549420Y-89493214D01*
X84524323Y-89498708D01*
X84507593Y-89507424D01*
X84495243Y-89520601D01*
X84485952Y-89535001D01*
X84463397Y-89590941D01*
X84453880Y-89655059D01*
X84459141Y-89712800D01*
X84473228Y-89749462D01*
X84490428Y-89780534D01*
X84495895Y-89787913D01*
X84502748Y-89794135D01*
X84512649Y-89799298D01*
X84527262Y-89803500D01*
X84548251Y-89806842D01*
X84577278Y-89809421D01*
X84616007Y-89811335D01*
X84666102Y-89812684D01*
X84729226Y-89813566D01*
X84807041Y-89814080D01*
X84901212Y-89814324D01*
X85013402Y-89814397D01*
X85061550Y-89814400D01*
X85610087Y-89814400D01*
X85634473Y-89763600D01*
X85653281Y-89702207D01*
X85657260Y-89635039D01*
X85647331Y-89571813D01*
X85624418Y-89522244D01*
X85610091Y-89506962D01*
X85595710Y-89502982D01*
X85563827Y-89498807D01*
X85517260Y-89494653D01*
X85458825Y-89490734D01*
X85391340Y-89487267D01*
X85317621Y-89484467D01*
X85314658Y-89484374D01*
X85036396Y-89475734D01*
X85188676Y-89194894D01*
X85233383Y-89111025D01*
X85273521Y-89033033D01*
X85306998Y-88965199D01*
X85331726Y-88911803D01*
X85345616Y-88877124D01*
X85347730Y-88869070D01*
X85348000Y-88815377D01*
X85337155Y-88756945D01*
X85318698Y-88708434D01*
X85304889Y-88689697D01*
X85279857Y-88676456D01*
X85251682Y-88671400D01*
X85236915Y-88674444D01*
X85220898Y-88685494D01*
X85201702Y-88707426D01*
X85177396Y-88743117D01*
X85146051Y-88795446D01*
X85105739Y-88867289D01*
X85054529Y-88961522D01*
X85044020Y-88981056D01*
X84973160Y-89112912D01*
X84871560Y-88980384D01*
X84794422Y-88880014D01*
X84731496Y-88798829D01*
X84681117Y-88734878D01*
X84641623Y-88686207D01*
X84611350Y-88650863D01*
X84588633Y-88626894D01*
X84571809Y-88612347D01*
X84559214Y-88605269D01*
X84550565Y-88603667D01*
X84550565Y-88603667D01*
G36*
X85049197Y-88063952D02*
X84975655Y-88064337D01*
X84884416Y-88065355D01*
X84864158Y-88065618D01*
X84511316Y-88070267D01*
X84485945Y-88112600D01*
X84463394Y-88168545D01*
X84453881Y-88232665D01*
X84459141Y-88290400D01*
X84473227Y-88327069D01*
X84490415Y-88358134D01*
X84497299Y-88367190D01*
X84506043Y-88374516D01*
X84518771Y-88380330D01*
X84537605Y-88384848D01*
X84564670Y-88388290D01*
X84602088Y-88390873D01*
X84651983Y-88392814D01*
X84716478Y-88394331D01*
X84797696Y-88395643D01*
X84864994Y-88396546D01*
X84959901Y-88397644D01*
X85036683Y-88398136D01*
X85097531Y-88397880D01*
X85144639Y-88396732D01*
X85180200Y-88394547D01*
X85206406Y-88391183D01*
X85225450Y-88386495D01*
X85239524Y-88380340D01*
X85250821Y-88372574D01*
X85252549Y-88371146D01*
X85287329Y-88326270D01*
X85305618Y-88269158D01*
X85307422Y-88207346D01*
X85292750Y-88148371D01*
X85261605Y-88099770D01*
X85252308Y-88091018D01*
X85241365Y-88082960D01*
X85228045Y-88076538D01*
X85210161Y-88071608D01*
X85185523Y-88068028D01*
X85151942Y-88065654D01*
X85107230Y-88064343D01*
X85049197Y-88063952D01*
X85049197Y-88063952D01*
X85049197Y-88063952D01*
G37*
X85049197Y-88063952D02*
X84975655Y-88064337D01*
X84884416Y-88065355D01*
X84864158Y-88065618D01*
X84511316Y-88070267D01*
X84485945Y-88112600D01*
X84463394Y-88168545D01*
X84453881Y-88232665D01*
X84459141Y-88290400D01*
X84473227Y-88327069D01*
X84490415Y-88358134D01*
X84497299Y-88367190D01*
X84506043Y-88374516D01*
X84518771Y-88380330D01*
X84537605Y-88384848D01*
X84564670Y-88388290D01*
X84602088Y-88390873D01*
X84651983Y-88392814D01*
X84716478Y-88394331D01*
X84797696Y-88395643D01*
X84864994Y-88396546D01*
X84959901Y-88397644D01*
X85036683Y-88398136D01*
X85097531Y-88397880D01*
X85144639Y-88396732D01*
X85180200Y-88394547D01*
X85206406Y-88391183D01*
X85225450Y-88386495D01*
X85239524Y-88380340D01*
X85250821Y-88372574D01*
X85252549Y-88371146D01*
X85287329Y-88326270D01*
X85305618Y-88269158D01*
X85307422Y-88207346D01*
X85292750Y-88148371D01*
X85261605Y-88099770D01*
X85252308Y-88091018D01*
X85241365Y-88082960D01*
X85228045Y-88076538D01*
X85210161Y-88071608D01*
X85185523Y-88068028D01*
X85151942Y-88065654D01*
X85107230Y-88064343D01*
X85049197Y-88063952D01*
X85049197Y-88063952D01*
G36*
X85171757Y-86729359D02*
X85134515Y-86745410D01*
X85104366Y-86783253D01*
X85084066Y-86839496D01*
X85081244Y-86907654D01*
X85095251Y-86978616D01*
X85113619Y-87068354D01*
X85117360Y-87164235D01*
X85106995Y-87256243D01*
X85083042Y-87334362D01*
X85076049Y-87348601D01*
X85042805Y-87396242D01*
X85000861Y-87428105D01*
X84946671Y-87446022D01*
X84876685Y-87451827D01*
X84876253Y-87451829D01*
X84803848Y-87445373D01*
X84747381Y-87424180D01*
X84704008Y-87386448D01*
X84670888Y-87330375D01*
X84665903Y-87318463D01*
X84648568Y-87249033D01*
X84642292Y-87163606D01*
X84647176Y-87074709D01*
X84663280Y-86995000D01*
X84679656Y-86927663D01*
X84681834Y-86871650D01*
X84670182Y-86814678D01*
X84668840Y-86810278D01*
X84643405Y-86761780D01*
X84607583Y-86734118D01*
X84569063Y-86733110D01*
X84567621Y-86733687D01*
X84537300Y-86762644D01*
X84509952Y-86819053D01*
X84486796Y-86896625D01*
X84469055Y-86989071D01*
X84457950Y-87090104D01*
X84454701Y-87193433D01*
X84459996Y-87287910D01*
X84483736Y-87416691D01*
X84524606Y-87531994D01*
X84580111Y-87629118D01*
X84647755Y-87703362D01*
X84699011Y-87738167D01*
X84801203Y-87776213D01*
X84903927Y-87784329D01*
X85003648Y-87762809D01*
X85096832Y-87711948D01*
X85107079Y-87704145D01*
X85175457Y-87632758D01*
X85230524Y-87539081D01*
X85271411Y-87427606D01*
X85297249Y-87302821D01*
X85307166Y-87169217D01*
X85300293Y-87031283D01*
X85275760Y-86893509D01*
X85269109Y-86868007D01*
X85240995Y-86791656D01*
X85207897Y-86745107D01*
X85171757Y-86729359D01*
X85171757Y-86729359D01*
X85171757Y-86729359D01*
G37*
X85171757Y-86729359D02*
X85134515Y-86745410D01*
X85104366Y-86783253D01*
X85084066Y-86839496D01*
X85081244Y-86907654D01*
X85095251Y-86978616D01*
X85113619Y-87068354D01*
X85117360Y-87164235D01*
X85106995Y-87256243D01*
X85083042Y-87334362D01*
X85076049Y-87348601D01*
X85042805Y-87396242D01*
X85000861Y-87428105D01*
X84946671Y-87446022D01*
X84876685Y-87451827D01*
X84876253Y-87451829D01*
X84803848Y-87445373D01*
X84747381Y-87424180D01*
X84704008Y-87386448D01*
X84670888Y-87330375D01*
X84665903Y-87318463D01*
X84648568Y-87249033D01*
X84642292Y-87163606D01*
X84647176Y-87074709D01*
X84663280Y-86995000D01*
X84679656Y-86927663D01*
X84681834Y-86871650D01*
X84670182Y-86814678D01*
X84668840Y-86810278D01*
X84643405Y-86761780D01*
X84607583Y-86734118D01*
X84569063Y-86733110D01*
X84567621Y-86733687D01*
X84537300Y-86762644D01*
X84509952Y-86819053D01*
X84486796Y-86896625D01*
X84469055Y-86989071D01*
X84457950Y-87090104D01*
X84454701Y-87193433D01*
X84459996Y-87287910D01*
X84483736Y-87416691D01*
X84524606Y-87531994D01*
X84580111Y-87629118D01*
X84647755Y-87703362D01*
X84699011Y-87738167D01*
X84801203Y-87776213D01*
X84903927Y-87784329D01*
X85003648Y-87762809D01*
X85096832Y-87711948D01*
X85107079Y-87704145D01*
X85175457Y-87632758D01*
X85230524Y-87539081D01*
X85271411Y-87427606D01*
X85297249Y-87302821D01*
X85307166Y-87169217D01*
X85300293Y-87031283D01*
X85275760Y-86893509D01*
X85269109Y-86868007D01*
X85240995Y-86791656D01*
X85207897Y-86745107D01*
X85171757Y-86729359D01*
X85171757Y-86729359D01*
G36*
X85019446Y-83848122D02*
X84945217Y-83848541D01*
X84881590Y-83849500D01*
X84830850Y-83850962D01*
X84795285Y-83852888D01*
X84777180Y-83855242D01*
X84775651Y-83855892D01*
X84751869Y-83864557D01*
X84743458Y-83864278D01*
X84722535Y-83868846D01*
X84689985Y-83884998D01*
X84652187Y-83908635D01*
X84615524Y-83935660D01*
X84586378Y-83961972D01*
X84579859Y-83969352D01*
X84562970Y-83996521D01*
X84558087Y-84018218D01*
X84558569Y-84020043D01*
X84558134Y-84028829D01*
X84553722Y-84025468D01*
X84540746Y-84029859D01*
X84523757Y-84059102D01*
X84505231Y-84105957D01*
X84487645Y-84163182D01*
X84486718Y-84167134D01*
X84894137Y-84167134D01*
X85031073Y-84167134D01*
X85064706Y-84223190D01*
X85097890Y-84299074D01*
X85114826Y-84384420D01*
X85115148Y-84471706D01*
X85098490Y-84553407D01*
X85082628Y-84591919D01*
X85040779Y-84651980D01*
X84986138Y-84690234D01*
X84917098Y-84707647D01*
X84887474Y-84709001D01*
X84825546Y-84704414D01*
X84776178Y-84688579D01*
X84732207Y-84658383D01*
X84702125Y-84628490D01*
X84665449Y-84569553D01*
X84643082Y-84493760D01*
X84635976Y-84409769D01*
X84645081Y-84326243D01*
X84662775Y-84269918D01*
X84682362Y-84231887D01*
X84706015Y-84204204D01*
X84737083Y-84185379D01*
X84778916Y-84173925D01*
X84834863Y-84168355D01*
X84894137Y-84167134D01*
X84486718Y-84167134D01*
X84473475Y-84223537D01*
X84465197Y-84279782D01*
X84464734Y-84285667D01*
X84461753Y-84320433D01*
X84457680Y-84361867D01*
X84455999Y-84408163D01*
X84457548Y-84470089D01*
X84459793Y-84505800D01*
X84473665Y-84600867D01*
X84498630Y-84699676D01*
X84530917Y-84789870D01*
X84566753Y-84859088D01*
X84568301Y-84861383D01*
X84598226Y-84898452D01*
X84637752Y-84938785D01*
X84673132Y-84969416D01*
X84701024Y-84990375D01*
X84724667Y-85004749D01*
X84748940Y-85013782D01*
X84778721Y-85018716D01*
X84818889Y-85020795D01*
X84874325Y-85021261D01*
X84876640Y-85021264D01*
X84935306Y-85020607D01*
X84978547Y-85017864D01*
X85011247Y-85012074D01*
X85038291Y-85002274D01*
X85064563Y-84987501D01*
X85071729Y-84982820D01*
X85141766Y-84919821D01*
X85200961Y-84834027D01*
X85247585Y-84730659D01*
X85279909Y-84614936D01*
X85296201Y-84492079D01*
X85294732Y-84367310D01*
X85289789Y-84324753D01*
X85280797Y-84266295D01*
X85272469Y-84218111D01*
X85268042Y-84196767D01*
X85266547Y-84185538D01*
X85270518Y-84177560D01*
X85282744Y-84172283D01*
X85306014Y-84169156D01*
X85343119Y-84167629D01*
X85396847Y-84167154D01*
X85418334Y-84167134D01*
X85478262Y-84166942D01*
X85521455Y-84165812D01*
X85551498Y-84162914D01*
X85571976Y-84157414D01*
X85586473Y-84148483D01*
X85598575Y-84135289D01*
X85607381Y-84123295D01*
X85632446Y-84068507D01*
X85639765Y-84004263D01*
X85629103Y-83938287D01*
X85614129Y-83901378D01*
X85589617Y-83853867D01*
X85190559Y-83849056D01*
X85101989Y-83848281D01*
X85019446Y-83848122D01*
X85019446Y-83848122D01*
X85019446Y-83848122D01*
G37*
X85019446Y-83848122D02*
X84945217Y-83848541D01*
X84881590Y-83849500D01*
X84830850Y-83850962D01*
X84795285Y-83852888D01*
X84777180Y-83855242D01*
X84775651Y-83855892D01*
X84751869Y-83864557D01*
X84743458Y-83864278D01*
X84722535Y-83868846D01*
X84689985Y-83884998D01*
X84652187Y-83908635D01*
X84615524Y-83935660D01*
X84586378Y-83961972D01*
X84579859Y-83969352D01*
X84562970Y-83996521D01*
X84558087Y-84018218D01*
X84558569Y-84020043D01*
X84558134Y-84028829D01*
X84553722Y-84025468D01*
X84540746Y-84029859D01*
X84523757Y-84059102D01*
X84505231Y-84105957D01*
X84487645Y-84163182D01*
X84486718Y-84167134D01*
X84894137Y-84167134D01*
X85031073Y-84167134D01*
X85064706Y-84223190D01*
X85097890Y-84299074D01*
X85114826Y-84384420D01*
X85115148Y-84471706D01*
X85098490Y-84553407D01*
X85082628Y-84591919D01*
X85040779Y-84651980D01*
X84986138Y-84690234D01*
X84917098Y-84707647D01*
X84887474Y-84709001D01*
X84825546Y-84704414D01*
X84776178Y-84688579D01*
X84732207Y-84658383D01*
X84702125Y-84628490D01*
X84665449Y-84569553D01*
X84643082Y-84493760D01*
X84635976Y-84409769D01*
X84645081Y-84326243D01*
X84662775Y-84269918D01*
X84682362Y-84231887D01*
X84706015Y-84204204D01*
X84737083Y-84185379D01*
X84778916Y-84173925D01*
X84834863Y-84168355D01*
X84894137Y-84167134D01*
X84486718Y-84167134D01*
X84473475Y-84223537D01*
X84465197Y-84279782D01*
X84464734Y-84285667D01*
X84461753Y-84320433D01*
X84457680Y-84361867D01*
X84455999Y-84408163D01*
X84457548Y-84470089D01*
X84459793Y-84505800D01*
X84473665Y-84600867D01*
X84498630Y-84699676D01*
X84530917Y-84789870D01*
X84566753Y-84859088D01*
X84568301Y-84861383D01*
X84598226Y-84898452D01*
X84637752Y-84938785D01*
X84673132Y-84969416D01*
X84701024Y-84990375D01*
X84724667Y-85004749D01*
X84748940Y-85013782D01*
X84778721Y-85018716D01*
X84818889Y-85020795D01*
X84874325Y-85021261D01*
X84876640Y-85021264D01*
X84935306Y-85020607D01*
X84978547Y-85017864D01*
X85011247Y-85012074D01*
X85038291Y-85002274D01*
X85064563Y-84987501D01*
X85071729Y-84982820D01*
X85141766Y-84919821D01*
X85200961Y-84834027D01*
X85247585Y-84730659D01*
X85279909Y-84614936D01*
X85296201Y-84492079D01*
X85294732Y-84367310D01*
X85289789Y-84324753D01*
X85280797Y-84266295D01*
X85272469Y-84218111D01*
X85268042Y-84196767D01*
X85266547Y-84185538D01*
X85270518Y-84177560D01*
X85282744Y-84172283D01*
X85306014Y-84169156D01*
X85343119Y-84167629D01*
X85396847Y-84167154D01*
X85418334Y-84167134D01*
X85478262Y-84166942D01*
X85521455Y-84165812D01*
X85551498Y-84162914D01*
X85571976Y-84157414D01*
X85586473Y-84148483D01*
X85598575Y-84135289D01*
X85607381Y-84123295D01*
X85632446Y-84068507D01*
X85639765Y-84004263D01*
X85629103Y-83938287D01*
X85614129Y-83901378D01*
X85589617Y-83853867D01*
X85190559Y-83849056D01*
X85101989Y-83848281D01*
X85019446Y-83848122D01*
X85019446Y-83848122D01*
G36*
X84529169Y-90178467D02*
X84494625Y-90236040D01*
X84460080Y-90293614D01*
X84460120Y-90364734D01*
X84571840Y-90364734D01*
X85063505Y-90364734D01*
X85555170Y-90364734D01*
X85763097Y-90716100D01*
X85821312Y-90814642D01*
X85879414Y-90913296D01*
X85934559Y-91007209D01*
X85983902Y-91091532D01*
X86024599Y-91161410D01*
X86053465Y-91211401D01*
X86135906Y-91355334D01*
X86136193Y-91952234D01*
X86136480Y-92549134D01*
X85354160Y-92549134D01*
X84571840Y-92549134D01*
X84571840Y-91456934D01*
X84571840Y-90364734D01*
X84460120Y-90364734D01*
X84460725Y-91442540D01*
X84460954Y-91637507D01*
X84461403Y-91823042D01*
X84462052Y-91996283D01*
X84462879Y-92154369D01*
X84463861Y-92294439D01*
X84464978Y-92413631D01*
X84466207Y-92509083D01*
X84467527Y-92577935D01*
X84468915Y-92617325D01*
X84469685Y-92625334D01*
X84483461Y-92661943D01*
X84500588Y-92693067D01*
X84505084Y-92699205D01*
X84510734Y-92704553D01*
X84518882Y-92709165D01*
X84530875Y-92713095D01*
X84548060Y-92716399D01*
X84571783Y-92719131D01*
X84603390Y-92721344D01*
X84644228Y-92723094D01*
X84695642Y-92724435D01*
X84758979Y-92725421D01*
X84835586Y-92726106D01*
X84926809Y-92726546D01*
X85033993Y-92726794D01*
X85158486Y-92726905D01*
X85301633Y-92726933D01*
X85338449Y-92726934D01*
X85492069Y-92726836D01*
X85626551Y-92726522D01*
X85743076Y-92725961D01*
X85842827Y-92725121D01*
X85926985Y-92723971D01*
X85996731Y-92722479D01*
X86053247Y-92720616D01*
X86097715Y-92718349D01*
X86131316Y-92715648D01*
X86155232Y-92712480D01*
X86170645Y-92708815D01*
X86178602Y-92704744D01*
X86192634Y-92691560D01*
X86204025Y-92677258D01*
X86213073Y-92658365D01*
X86220075Y-92631407D01*
X86225329Y-92592911D01*
X86229133Y-92539403D01*
X86231786Y-92467409D01*
X86233584Y-92373455D01*
X86234825Y-92254070D01*
X86235808Y-92105777D01*
X86236223Y-92032667D01*
X86236810Y-91892205D01*
X86236992Y-91759062D01*
X86236791Y-91637924D01*
X86236228Y-91533478D01*
X86235324Y-91450410D01*
X86234104Y-91393409D01*
X86233129Y-91372267D01*
X86231360Y-91348349D01*
X86229056Y-91327623D01*
X86224789Y-91307156D01*
X86217133Y-91284014D01*
X86204661Y-91255261D01*
X86185945Y-91217965D01*
X86159559Y-91169190D01*
X86124076Y-91106002D01*
X86078070Y-91025467D01*
X86020112Y-90924652D01*
X85990042Y-90872390D01*
X85946830Y-90797278D01*
X85894713Y-90706693D01*
X85838854Y-90609606D01*
X85784411Y-90514986D01*
X85756219Y-90465990D01*
X85712888Y-90391523D01*
X85672657Y-90323930D01*
X85638284Y-90267730D01*
X85612532Y-90227440D01*
X85598739Y-90208212D01*
X85591616Y-90201593D01*
X85581824Y-90196036D01*
X85567654Y-90191450D01*
X85547398Y-90187741D01*
X85519347Y-90184818D01*
X85481792Y-90182588D01*
X85433024Y-90180958D01*
X85371335Y-90179836D01*
X85295016Y-90179130D01*
X85202358Y-90178746D01*
X85091652Y-90178594D01*
X85050885Y-90178579D01*
X84529169Y-90178467D01*
X84529169Y-90178467D01*
X84529169Y-90178467D01*
G37*
X84529169Y-90178467D02*
X84494625Y-90236040D01*
X84460080Y-90293614D01*
X84460120Y-90364734D01*
X84571840Y-90364734D01*
X85063505Y-90364734D01*
X85555170Y-90364734D01*
X85763097Y-90716100D01*
X85821312Y-90814642D01*
X85879414Y-90913296D01*
X85934559Y-91007209D01*
X85983902Y-91091532D01*
X86024599Y-91161410D01*
X86053465Y-91211401D01*
X86135906Y-91355334D01*
X86136193Y-91952234D01*
X86136480Y-92549134D01*
X85354160Y-92549134D01*
X84571840Y-92549134D01*
X84571840Y-91456934D01*
X84571840Y-90364734D01*
X84460120Y-90364734D01*
X84460725Y-91442540D01*
X84460954Y-91637507D01*
X84461403Y-91823042D01*
X84462052Y-91996283D01*
X84462879Y-92154369D01*
X84463861Y-92294439D01*
X84464978Y-92413631D01*
X84466207Y-92509083D01*
X84467527Y-92577935D01*
X84468915Y-92617325D01*
X84469685Y-92625334D01*
X84483461Y-92661943D01*
X84500588Y-92693067D01*
X84505084Y-92699205D01*
X84510734Y-92704553D01*
X84518882Y-92709165D01*
X84530875Y-92713095D01*
X84548060Y-92716399D01*
X84571783Y-92719131D01*
X84603390Y-92721344D01*
X84644228Y-92723094D01*
X84695642Y-92724435D01*
X84758979Y-92725421D01*
X84835586Y-92726106D01*
X84926809Y-92726546D01*
X85033993Y-92726794D01*
X85158486Y-92726905D01*
X85301633Y-92726933D01*
X85338449Y-92726934D01*
X85492069Y-92726836D01*
X85626551Y-92726522D01*
X85743076Y-92725961D01*
X85842827Y-92725121D01*
X85926985Y-92723971D01*
X85996731Y-92722479D01*
X86053247Y-92720616D01*
X86097715Y-92718349D01*
X86131316Y-92715648D01*
X86155232Y-92712480D01*
X86170645Y-92708815D01*
X86178602Y-92704744D01*
X86192634Y-92691560D01*
X86204025Y-92677258D01*
X86213073Y-92658365D01*
X86220075Y-92631407D01*
X86225329Y-92592911D01*
X86229133Y-92539403D01*
X86231786Y-92467409D01*
X86233584Y-92373455D01*
X86234825Y-92254070D01*
X86235808Y-92105777D01*
X86236223Y-92032667D01*
X86236810Y-91892205D01*
X86236992Y-91759062D01*
X86236791Y-91637924D01*
X86236228Y-91533478D01*
X86235324Y-91450410D01*
X86234104Y-91393409D01*
X86233129Y-91372267D01*
X86231360Y-91348349D01*
X86229056Y-91327623D01*
X86224789Y-91307156D01*
X86217133Y-91284014D01*
X86204661Y-91255261D01*
X86185945Y-91217965D01*
X86159559Y-91169190D01*
X86124076Y-91106002D01*
X86078070Y-91025467D01*
X86020112Y-90924652D01*
X85990042Y-90872390D01*
X85946830Y-90797278D01*
X85894713Y-90706693D01*
X85838854Y-90609606D01*
X85784411Y-90514986D01*
X85756219Y-90465990D01*
X85712888Y-90391523D01*
X85672657Y-90323930D01*
X85638284Y-90267730D01*
X85612532Y-90227440D01*
X85598739Y-90208212D01*
X85591616Y-90201593D01*
X85581824Y-90196036D01*
X85567654Y-90191450D01*
X85547398Y-90187741D01*
X85519347Y-90184818D01*
X85481792Y-90182588D01*
X85433024Y-90180958D01*
X85371335Y-90179836D01*
X85295016Y-90179130D01*
X85202358Y-90178746D01*
X85091652Y-90178594D01*
X85050885Y-90178579D01*
X84529169Y-90178467D01*
X84529169Y-90178467D01*
G36*
X85578380Y-88073040D02*
X85537082Y-88073078D01*
X85498816Y-88096822D01*
X85471671Y-88138672D01*
X85457742Y-88201887D01*
X85458832Y-88271948D01*
X85474578Y-88333987D01*
X85476521Y-88338287D01*
X85507458Y-88380462D01*
X85544078Y-88396148D01*
X85581892Y-88388179D01*
X85616411Y-88359386D01*
X85643148Y-88312602D01*
X85657614Y-88250658D01*
X85658960Y-88223170D01*
X85650417Y-88174494D01*
X85628809Y-88125502D01*
X85600173Y-88087438D01*
X85578380Y-88073040D01*
X85578380Y-88073040D01*
X85578380Y-88073040D01*
G37*
X85578380Y-88073040D02*
X85537082Y-88073078D01*
X85498816Y-88096822D01*
X85471671Y-88138672D01*
X85457742Y-88201887D01*
X85458832Y-88271948D01*
X85474578Y-88333987D01*
X85476521Y-88338287D01*
X85507458Y-88380462D01*
X85544078Y-88396148D01*
X85581892Y-88388179D01*
X85616411Y-88359386D01*
X85643148Y-88312602D01*
X85657614Y-88250658D01*
X85658960Y-88223170D01*
X85650417Y-88174494D01*
X85628809Y-88125502D01*
X85600173Y-88087438D01*
X85578380Y-88073040D01*
X85578380Y-88073040D01*
G36*
X86013344Y-90178467D02*
X85946555Y-90178914D01*
X85897199Y-90180514D01*
X85862395Y-90183658D01*
X85839262Y-90188738D01*
X85824917Y-90196144D01*
X85817166Y-90205077D01*
X85805939Y-90227373D01*
X85800479Y-90250621D01*
X85801980Y-90277925D01*
X85811635Y-90312392D01*
X85830637Y-90357126D01*
X85860179Y-90415233D01*
X85901453Y-90489817D01*
X85955654Y-90583986D01*
X85976460Y-90619682D01*
X86031150Y-90713048D01*
X86073763Y-90784767D01*
X86106286Y-90837641D01*
X86130702Y-90874474D01*
X86148996Y-90898069D01*
X86163152Y-90911229D01*
X86175156Y-90916756D01*
X86186991Y-90917453D01*
X86187280Y-90917435D01*
X86222840Y-90915067D01*
X86225599Y-90567973D01*
X86226389Y-90449966D01*
X86226506Y-90361288D01*
X86225771Y-90297411D01*
X86224002Y-90253808D01*
X86221021Y-90225951D01*
X86216647Y-90209312D01*
X86210957Y-90199673D01*
X86196263Y-90191062D01*
X86167251Y-90184829D01*
X86122259Y-90180794D01*
X86059624Y-90178780D01*
X86013344Y-90178467D01*
X86013344Y-90178467D01*
X86013344Y-90178467D01*
G37*
X86013344Y-90178467D02*
X85946555Y-90178914D01*
X85897199Y-90180514D01*
X85862395Y-90183658D01*
X85839262Y-90188738D01*
X85824917Y-90196144D01*
X85817166Y-90205077D01*
X85805939Y-90227373D01*
X85800479Y-90250621D01*
X85801980Y-90277925D01*
X85811635Y-90312392D01*
X85830637Y-90357126D01*
X85860179Y-90415233D01*
X85901453Y-90489817D01*
X85955654Y-90583986D01*
X85976460Y-90619682D01*
X86031150Y-90713048D01*
X86073763Y-90784767D01*
X86106286Y-90837641D01*
X86130702Y-90874474D01*
X86148996Y-90898069D01*
X86163152Y-90911229D01*
X86175156Y-90916756D01*
X86186991Y-90917453D01*
X86187280Y-90917435D01*
X86222840Y-90915067D01*
X86225599Y-90567973D01*
X86226389Y-90449966D01*
X86226506Y-90361288D01*
X86225771Y-90297411D01*
X86224002Y-90253808D01*
X86221021Y-90225951D01*
X86216647Y-90209312D01*
X86210957Y-90199673D01*
X86196263Y-90191062D01*
X86167251Y-90184829D01*
X86122259Y-90180794D01*
X86059624Y-90178780D01*
X86013344Y-90178467D01*
X86013344Y-90178467D01*
G36*
X84978240Y-90483267D02*
X84971412Y-90484575D01*
X84966313Y-90491371D01*
X84962693Y-90507967D01*
X84960297Y-90538673D01*
X84958875Y-90587800D01*
X84958174Y-90659660D01*
X84957941Y-90758563D01*
X84957920Y-90830400D01*
X84957920Y-91177534D01*
X84836000Y-91177534D01*
X84784535Y-91177866D01*
X84750020Y-91179487D01*
X84729090Y-91183330D01*
X84718377Y-91190333D01*
X84714514Y-91201430D01*
X84714080Y-91211401D01*
X84715136Y-91224802D01*
X84720383Y-91234109D01*
X84732945Y-91240065D01*
X84755945Y-91243414D01*
X84792505Y-91244899D01*
X84845748Y-91245263D01*
X84856320Y-91245267D01*
X84998560Y-91245267D01*
X84998560Y-90864267D01*
X84998495Y-90741328D01*
X84998154Y-90648140D01*
X84997317Y-90580586D01*
X84995764Y-90534550D01*
X84993276Y-90505916D01*
X84989634Y-90490569D01*
X84984617Y-90484391D01*
X84978240Y-90483267D01*
X84978240Y-90483267D01*
X84978240Y-90483267D01*
G37*
X84978240Y-90483267D02*
X84971412Y-90484575D01*
X84966313Y-90491371D01*
X84962693Y-90507967D01*
X84960297Y-90538673D01*
X84958875Y-90587800D01*
X84958174Y-90659660D01*
X84957941Y-90758563D01*
X84957920Y-90830400D01*
X84957920Y-91177534D01*
X84836000Y-91177534D01*
X84784535Y-91177866D01*
X84750020Y-91179487D01*
X84729090Y-91183330D01*
X84718377Y-91190333D01*
X84714514Y-91201430D01*
X84714080Y-91211401D01*
X84715136Y-91224802D01*
X84720383Y-91234109D01*
X84732945Y-91240065D01*
X84755945Y-91243414D01*
X84792505Y-91244899D01*
X84845748Y-91245263D01*
X84856320Y-91245267D01*
X84998560Y-91245267D01*
X84998560Y-90864267D01*
X84998495Y-90741328D01*
X84998154Y-90648140D01*
X84997317Y-90580586D01*
X84995764Y-90534550D01*
X84993276Y-90505916D01*
X84989634Y-90490569D01*
X84984617Y-90484391D01*
X84978240Y-90483267D01*
X84978240Y-90483267D01*
G36*
X85338254Y-90466288D02*
X85285247Y-90555743D01*
X85258086Y-90602798D01*
X85242270Y-90637099D01*
X85241861Y-90638876D01*
X85334213Y-90638876D01*
X85350125Y-90644520D01*
X85351894Y-90646314D01*
X85359845Y-90659925D01*
X85365310Y-90685121D01*
X85368890Y-90728012D01*
X85371188Y-90794707D01*
X85372273Y-90853373D01*
X85375146Y-91042067D01*
X85339253Y-91042067D01*
X85303360Y-91042067D01*
X85303684Y-90868501D01*
X85304869Y-90777708D01*
X85308298Y-90715263D01*
X85314372Y-90675784D01*
X85319197Y-90661441D01*
X85334213Y-90638876D01*
X85241861Y-90638876D01*
X85234734Y-90669766D01*
X85232410Y-90711916D01*
X85232240Y-90747898D01*
X85233016Y-90814261D01*
X85235074Y-90898635D01*
X85238011Y-90985283D01*
X85238842Y-91005599D01*
X85245443Y-91160601D01*
X85274667Y-91160601D01*
X85303890Y-91160601D01*
X85301085Y-91418834D01*
X85298280Y-91677067D01*
X85265234Y-91677641D01*
X85244929Y-91682990D01*
X85223635Y-91701446D01*
X85196964Y-91737725D01*
X85171254Y-91778711D01*
X85110320Y-91879207D01*
X85049933Y-91779611D01*
X85020990Y-91733107D01*
X84997778Y-91702356D01*
X84974771Y-91683997D01*
X84946440Y-91674670D01*
X84907255Y-91671012D01*
X84869664Y-91670012D01*
X84796648Y-91668600D01*
X84793464Y-91613567D01*
X84787706Y-91573470D01*
X84775312Y-91560576D01*
X84772500Y-91560650D01*
X84747716Y-91563774D01*
X84739480Y-91564884D01*
X84732014Y-91572144D01*
X84727368Y-91595292D01*
X84724970Y-91640157D01*
X84724244Y-91712568D01*
X84724240Y-91719400D01*
X84724240Y-91871800D01*
X84759800Y-91871800D01*
X84783692Y-91868969D01*
X84793491Y-91854605D01*
X84795360Y-91821000D01*
X84795360Y-91770200D01*
X84874740Y-91770200D01*
X84915601Y-91771154D01*
X84941982Y-91775747D01*
X84959713Y-91786572D01*
X84974622Y-91806227D01*
X84981420Y-91817694D01*
X85001854Y-91856535D01*
X85006338Y-91878087D01*
X84994312Y-91887182D01*
X84973160Y-91888734D01*
X84949261Y-91891589D01*
X84939458Y-91905926D01*
X84937600Y-91938792D01*
X84937600Y-91988850D01*
X85011260Y-91993825D01*
X85084920Y-91998801D01*
X85087783Y-92197767D01*
X85090645Y-92396734D01*
X85120803Y-92396734D01*
X85150960Y-92396734D01*
X85150960Y-92193534D01*
X85150960Y-91990334D01*
X85222080Y-91990334D01*
X85293200Y-91990334D01*
X85293200Y-91939534D01*
X85291596Y-91906960D01*
X85282899Y-91892480D01*
X85261287Y-91888814D01*
X85252560Y-91888734D01*
X85223535Y-91885154D01*
X85213636Y-91872235D01*
X85221999Y-91846705D01*
X85235435Y-91823952D01*
X85248733Y-91806610D01*
X85264934Y-91795706D01*
X85288814Y-91789798D01*
X85325150Y-91787443D01*
X85357355Y-91787134D01*
X85455760Y-91787134D01*
X85455760Y-91837934D01*
X85455760Y-91888734D01*
X85617677Y-91888734D01*
X85779593Y-91888734D01*
X85782777Y-91833700D01*
X85785960Y-91778667D01*
X85915500Y-91773928D01*
X86045040Y-91769189D01*
X86045040Y-91718895D01*
X86045040Y-91668600D01*
X85912960Y-91668600D01*
X85780880Y-91668600D01*
X85780880Y-91617800D01*
X85780880Y-91567000D01*
X85618964Y-91567000D01*
X85457048Y-91567000D01*
X85453864Y-91622034D01*
X85450197Y-91656882D01*
X85443483Y-91668600D01*
X85516720Y-91668600D01*
X85618320Y-91668600D01*
X85719920Y-91668600D01*
X85719920Y-91719400D01*
X85719920Y-91770200D01*
X85618320Y-91770200D01*
X85516720Y-91770200D01*
X85516720Y-91719400D01*
X85516720Y-91668600D01*
X85443483Y-91668600D01*
X85440493Y-91673818D01*
X85418640Y-91680783D01*
X85407500Y-91682274D01*
X85364321Y-91687481D01*
X85364320Y-91424041D01*
X85364320Y-91160601D01*
X85404960Y-91160601D01*
X85445600Y-91160601D01*
X85445600Y-90901789D01*
X85445600Y-90642977D01*
X85391927Y-90554632D01*
X85338254Y-90466288D01*
X85338254Y-90466288D01*
X85338254Y-90466288D01*
G37*
X85338254Y-90466288D02*
X85285247Y-90555743D01*
X85258086Y-90602798D01*
X85242270Y-90637099D01*
X85241861Y-90638876D01*
X85334213Y-90638876D01*
X85350125Y-90644520D01*
X85351894Y-90646314D01*
X85359845Y-90659925D01*
X85365310Y-90685121D01*
X85368890Y-90728012D01*
X85371188Y-90794707D01*
X85372273Y-90853373D01*
X85375146Y-91042067D01*
X85339253Y-91042067D01*
X85303360Y-91042067D01*
X85303684Y-90868501D01*
X85304869Y-90777708D01*
X85308298Y-90715263D01*
X85314372Y-90675784D01*
X85319197Y-90661441D01*
X85334213Y-90638876D01*
X85241861Y-90638876D01*
X85234734Y-90669766D01*
X85232410Y-90711916D01*
X85232240Y-90747898D01*
X85233016Y-90814261D01*
X85235074Y-90898635D01*
X85238011Y-90985283D01*
X85238842Y-91005599D01*
X85245443Y-91160601D01*
X85274667Y-91160601D01*
X85303890Y-91160601D01*
X85301085Y-91418834D01*
X85298280Y-91677067D01*
X85265234Y-91677641D01*
X85244929Y-91682990D01*
X85223635Y-91701446D01*
X85196964Y-91737725D01*
X85171254Y-91778711D01*
X85110320Y-91879207D01*
X85049933Y-91779611D01*
X85020990Y-91733107D01*
X84997778Y-91702356D01*
X84974771Y-91683997D01*
X84946440Y-91674670D01*
X84907255Y-91671012D01*
X84869664Y-91670012D01*
X84796648Y-91668600D01*
X84793464Y-91613567D01*
X84787706Y-91573470D01*
X84775312Y-91560576D01*
X84772500Y-91560650D01*
X84747716Y-91563774D01*
X84739480Y-91564884D01*
X84732014Y-91572144D01*
X84727368Y-91595292D01*
X84724970Y-91640157D01*
X84724244Y-91712568D01*
X84724240Y-91719400D01*
X84724240Y-91871800D01*
X84759800Y-91871800D01*
X84783692Y-91868969D01*
X84793491Y-91854605D01*
X84795360Y-91821000D01*
X84795360Y-91770200D01*
X84874740Y-91770200D01*
X84915601Y-91771154D01*
X84941982Y-91775747D01*
X84959713Y-91786572D01*
X84974622Y-91806227D01*
X84981420Y-91817694D01*
X85001854Y-91856535D01*
X85006338Y-91878087D01*
X84994312Y-91887182D01*
X84973160Y-91888734D01*
X84949261Y-91891589D01*
X84939458Y-91905926D01*
X84937600Y-91938792D01*
X84937600Y-91988850D01*
X85011260Y-91993825D01*
X85084920Y-91998801D01*
X85087783Y-92197767D01*
X85090645Y-92396734D01*
X85120803Y-92396734D01*
X85150960Y-92396734D01*
X85150960Y-92193534D01*
X85150960Y-91990334D01*
X85222080Y-91990334D01*
X85293200Y-91990334D01*
X85293200Y-91939534D01*
X85291596Y-91906960D01*
X85282899Y-91892480D01*
X85261287Y-91888814D01*
X85252560Y-91888734D01*
X85223535Y-91885154D01*
X85213636Y-91872235D01*
X85221999Y-91846705D01*
X85235435Y-91823952D01*
X85248733Y-91806610D01*
X85264934Y-91795706D01*
X85288814Y-91789798D01*
X85325150Y-91787443D01*
X85357355Y-91787134D01*
X85455760Y-91787134D01*
X85455760Y-91837934D01*
X85455760Y-91888734D01*
X85617677Y-91888734D01*
X85779593Y-91888734D01*
X85782777Y-91833700D01*
X85785960Y-91778667D01*
X85915500Y-91773928D01*
X86045040Y-91769189D01*
X86045040Y-91718895D01*
X86045040Y-91668600D01*
X85912960Y-91668600D01*
X85780880Y-91668600D01*
X85780880Y-91617800D01*
X85780880Y-91567000D01*
X85618964Y-91567000D01*
X85457048Y-91567000D01*
X85453864Y-91622034D01*
X85450197Y-91656882D01*
X85443483Y-91668600D01*
X85516720Y-91668600D01*
X85618320Y-91668600D01*
X85719920Y-91668600D01*
X85719920Y-91719400D01*
X85719920Y-91770200D01*
X85618320Y-91770200D01*
X85516720Y-91770200D01*
X85516720Y-91719400D01*
X85516720Y-91668600D01*
X85443483Y-91668600D01*
X85440493Y-91673818D01*
X85418640Y-91680783D01*
X85407500Y-91682274D01*
X85364321Y-91687481D01*
X85364320Y-91424041D01*
X85364320Y-91160601D01*
X85404960Y-91160601D01*
X85445600Y-91160601D01*
X85445600Y-90901789D01*
X85445600Y-90642977D01*
X85391927Y-90554632D01*
X85338254Y-90466288D01*
X85338254Y-90466288D01*
G36*
X84724240Y-90500200D02*
X84724240Y-90601800D01*
X84724240Y-90703400D01*
X84759800Y-90703400D01*
X84795360Y-90703400D01*
X84795360Y-90601800D01*
X84795360Y-90500200D01*
X84759800Y-90500200D01*
X84724240Y-90500200D01*
X84724240Y-90500200D01*
X84724240Y-90500200D01*
G37*
X84724240Y-90500200D02*
X84724240Y-90601800D01*
X84724240Y-90703400D01*
X84759800Y-90703400D01*
X84795360Y-90703400D01*
X84795360Y-90601800D01*
X84795360Y-90500200D01*
X84759800Y-90500200D01*
X84724240Y-90500200D01*
X84724240Y-90500200D01*
G36*
X84759800Y-90923534D02*
X84746147Y-90925464D01*
X84738541Y-90936355D01*
X84735220Y-90963858D01*
X84734415Y-91015624D01*
X84734400Y-91033601D01*
X84734846Y-91092768D01*
X84737359Y-91125723D01*
X84743706Y-91140118D01*
X84755652Y-91143604D01*
X84759800Y-91143667D01*
X84773454Y-91141737D01*
X84781060Y-91130846D01*
X84784381Y-91103343D01*
X84785186Y-91051577D01*
X84785200Y-91033601D01*
X84784755Y-90974433D01*
X84782242Y-90941478D01*
X84775895Y-90927083D01*
X84763949Y-90923597D01*
X84759800Y-90923534D01*
X84759800Y-90923534D01*
X84759800Y-90923534D01*
G37*
X84759800Y-90923534D02*
X84746147Y-90925464D01*
X84738541Y-90936355D01*
X84735220Y-90963858D01*
X84734415Y-91015624D01*
X84734400Y-91033601D01*
X84734846Y-91092768D01*
X84737359Y-91125723D01*
X84743706Y-91140118D01*
X84755652Y-91143604D01*
X84759800Y-91143667D01*
X84773454Y-91141737D01*
X84781060Y-91130846D01*
X84784381Y-91103343D01*
X84785186Y-91051577D01*
X84785200Y-91033601D01*
X84784755Y-90974433D01*
X84782242Y-90941478D01*
X84775895Y-90927083D01*
X84763949Y-90923597D01*
X84759800Y-90923534D01*
X84759800Y-90923534D01*
G36*
X84902040Y-90923534D02*
X84887963Y-90925685D01*
X84880363Y-90937440D01*
X84877252Y-90966752D01*
X84876641Y-91021573D01*
X84876640Y-91025134D01*
X84877178Y-91081442D01*
X84880117Y-91111843D01*
X84887445Y-91124288D01*
X84901150Y-91126732D01*
X84902040Y-91126734D01*
X84916118Y-91124583D01*
X84923718Y-91112827D01*
X84926829Y-91083516D01*
X84927440Y-91028695D01*
X84927440Y-91025134D01*
X84926903Y-90968826D01*
X84923964Y-90938425D01*
X84916636Y-90925979D01*
X84902931Y-90923536D01*
X84902040Y-90923534D01*
X84902040Y-90923534D01*
X84902040Y-90923534D01*
G37*
X84902040Y-90923534D02*
X84887963Y-90925685D01*
X84880363Y-90937440D01*
X84877252Y-90966752D01*
X84876641Y-91021573D01*
X84876640Y-91025134D01*
X84877178Y-91081442D01*
X84880117Y-91111843D01*
X84887445Y-91124288D01*
X84901150Y-91126732D01*
X84902040Y-91126734D01*
X84916118Y-91124583D01*
X84923718Y-91112827D01*
X84926829Y-91083516D01*
X84927440Y-91028695D01*
X84927440Y-91025134D01*
X84926903Y-90968826D01*
X84923964Y-90938425D01*
X84916636Y-90925979D01*
X84902931Y-90923536D01*
X84902040Y-90923534D01*
X84902040Y-90923534D01*
G36*
X84888712Y-90502246D02*
X84881996Y-90509605D01*
X84878388Y-90531580D01*
X84876924Y-90574419D01*
X84876641Y-90644370D01*
X84876640Y-90651423D01*
X84876830Y-90723899D01*
X84878126Y-90769002D01*
X84881619Y-90793223D01*
X84888398Y-90803054D01*
X84899556Y-90804990D01*
X84902436Y-90805000D01*
X84928232Y-90805000D01*
X84925296Y-90656834D01*
X84923532Y-90585575D01*
X84920927Y-90541351D01*
X84916332Y-90517334D01*
X84908600Y-90506696D01*
X84899500Y-90503256D01*
X84888712Y-90502246D01*
X84888712Y-90502246D01*
X84888712Y-90502246D01*
G37*
X84888712Y-90502246D02*
X84881996Y-90509605D01*
X84878388Y-90531580D01*
X84876924Y-90574419D01*
X84876641Y-90644370D01*
X84876640Y-90651423D01*
X84876830Y-90723899D01*
X84878126Y-90769002D01*
X84881619Y-90793223D01*
X84888398Y-90803054D01*
X84899556Y-90804990D01*
X84902436Y-90805000D01*
X84928232Y-90805000D01*
X84925296Y-90656834D01*
X84923532Y-90585575D01*
X84920927Y-90541351D01*
X84916332Y-90517334D01*
X84908600Y-90506696D01*
X84899500Y-90503256D01*
X84888712Y-90502246D01*
X84888712Y-90502246D01*
D11*
X81116714Y-82060143D02*
X81153000Y-82096429D01*
X81261857Y-82132714D01*
X81334428Y-82132714D01*
X81443285Y-82096429D01*
X81515857Y-82023857D01*
X81552142Y-81951286D01*
X81588428Y-81806143D01*
X81588428Y-81697286D01*
X81552142Y-81552143D01*
X81515857Y-81479571D01*
X81443285Y-81407000D01*
X81334428Y-81370714D01*
X81261857Y-81370714D01*
X81153000Y-81407000D01*
X81116714Y-81443286D01*
X80391000Y-82132714D02*
X80826428Y-82132714D01*
X80608714Y-82132714D02*
X80608714Y-81370714D01*
X80681285Y-81479571D01*
X80753857Y-81552143D01*
X80826428Y-81588429D01*
X79919286Y-81370714D02*
X79846714Y-81370714D01*
X79774143Y-81407000D01*
X79737857Y-81443286D01*
X79701571Y-81515857D01*
X79665286Y-81661000D01*
X79665286Y-81842429D01*
X79701571Y-81987571D01*
X79737857Y-82060143D01*
X79774143Y-82096429D01*
X79846714Y-82132714D01*
X79919286Y-82132714D01*
X79991857Y-82096429D01*
X80028143Y-82060143D01*
X80064428Y-81987571D01*
X80100714Y-81842429D01*
X80100714Y-81661000D01*
X80064428Y-81515857D01*
X80028143Y-81443286D01*
X79991857Y-81407000D01*
X79919286Y-81370714D01*
X78939572Y-82132714D02*
X79375000Y-82132714D01*
X79157286Y-82132714D02*
X79157286Y-81370714D01*
X79229857Y-81479571D01*
X79302429Y-81552143D01*
X79375000Y-81588429D01*
X75202142Y-84291714D02*
X75202142Y-83529714D01*
X74911857Y-83529714D01*
X74839285Y-83566000D01*
X74803000Y-83602286D01*
X74766714Y-83674857D01*
X74766714Y-83783714D01*
X74803000Y-83856286D01*
X74839285Y-83892571D01*
X74911857Y-83928857D01*
X75202142Y-83928857D01*
X74440142Y-84291714D02*
X74440142Y-83529714D01*
X74258714Y-83529714D01*
X74149857Y-83566000D01*
X74077285Y-83638571D01*
X74041000Y-83711143D01*
X74004714Y-83856286D01*
X74004714Y-83965143D01*
X74041000Y-84110286D01*
X74077285Y-84182857D01*
X74149857Y-84255429D01*
X74258714Y-84291714D01*
X74440142Y-84291714D01*
X73714428Y-83602286D02*
X73678142Y-83566000D01*
X73605571Y-83529714D01*
X73424142Y-83529714D01*
X73351571Y-83566000D01*
X73315285Y-83602286D01*
X73279000Y-83674857D01*
X73279000Y-83747429D01*
X73315285Y-83856286D01*
X73750714Y-84291714D01*
X73279000Y-84291714D01*
X72807286Y-83529714D02*
X72734714Y-83529714D01*
X72662143Y-83566000D01*
X72625857Y-83602286D01*
X72589571Y-83674857D01*
X72553286Y-83820000D01*
X72553286Y-84001429D01*
X72589571Y-84146571D01*
X72625857Y-84219143D01*
X72662143Y-84255429D01*
X72734714Y-84291714D01*
X72807286Y-84291714D01*
X72879857Y-84255429D01*
X72916143Y-84219143D01*
X72952428Y-84146571D01*
X72988714Y-84001429D01*
X72988714Y-83820000D01*
X72952428Y-83674857D01*
X72916143Y-83602286D01*
X72879857Y-83566000D01*
X72807286Y-83529714D01*
X71827572Y-84291714D02*
X72263000Y-84291714D01*
X72045286Y-84291714D02*
X72045286Y-83529714D01*
X72117857Y-83638571D01*
X72190429Y-83711143D01*
X72263000Y-83747429D01*
X75202142Y-96610714D02*
X75202142Y-95848714D01*
X74911857Y-95848714D01*
X74839285Y-95885000D01*
X74803000Y-95921286D01*
X74766714Y-95993857D01*
X74766714Y-96102714D01*
X74803000Y-96175286D01*
X74839285Y-96211571D01*
X74911857Y-96247857D01*
X75202142Y-96247857D01*
X74440142Y-96610714D02*
X74440142Y-95848714D01*
X74258714Y-95848714D01*
X74149857Y-95885000D01*
X74077285Y-95957571D01*
X74041000Y-96030143D01*
X74004714Y-96175286D01*
X74004714Y-96284143D01*
X74041000Y-96429286D01*
X74077285Y-96501857D01*
X74149857Y-96574429D01*
X74258714Y-96610714D01*
X74440142Y-96610714D01*
X73750714Y-95848714D02*
X73279000Y-95848714D01*
X73533000Y-96139000D01*
X73424142Y-96139000D01*
X73351571Y-96175286D01*
X73315285Y-96211571D01*
X73279000Y-96284143D01*
X73279000Y-96465571D01*
X73315285Y-96538143D01*
X73351571Y-96574429D01*
X73424142Y-96610714D01*
X73641857Y-96610714D01*
X73714428Y-96574429D01*
X73750714Y-96538143D01*
X72807286Y-95848714D02*
X72734714Y-95848714D01*
X72662143Y-95885000D01*
X72625857Y-95921286D01*
X72589571Y-95993857D01*
X72553286Y-96139000D01*
X72553286Y-96320429D01*
X72589571Y-96465571D01*
X72625857Y-96538143D01*
X72662143Y-96574429D01*
X72734714Y-96610714D01*
X72807286Y-96610714D01*
X72879857Y-96574429D01*
X72916143Y-96538143D01*
X72952428Y-96465571D01*
X72988714Y-96320429D01*
X72988714Y-96139000D01*
X72952428Y-95993857D01*
X72916143Y-95921286D01*
X72879857Y-95885000D01*
X72807286Y-95848714D01*
X71827572Y-96610714D02*
X72263000Y-96610714D01*
X72045286Y-96610714D02*
X72045286Y-95848714D01*
X72117857Y-95957571D01*
X72190429Y-96030143D01*
X72263000Y-96066429D01*
X75202142Y-109056714D02*
X75202142Y-108294714D01*
X74911857Y-108294714D01*
X74839285Y-108331000D01*
X74803000Y-108367286D01*
X74766714Y-108439857D01*
X74766714Y-108548714D01*
X74803000Y-108621286D01*
X74839285Y-108657571D01*
X74911857Y-108693857D01*
X75202142Y-108693857D01*
X74440142Y-109056714D02*
X74440142Y-108294714D01*
X74258714Y-108294714D01*
X74149857Y-108331000D01*
X74077285Y-108403571D01*
X74041000Y-108476143D01*
X74004714Y-108621286D01*
X74004714Y-108730143D01*
X74041000Y-108875286D01*
X74077285Y-108947857D01*
X74149857Y-109020429D01*
X74258714Y-109056714D01*
X74440142Y-109056714D01*
X73351571Y-108548714D02*
X73351571Y-109056714D01*
X73533000Y-108258429D02*
X73714428Y-108802714D01*
X73242714Y-108802714D01*
X72807286Y-108294714D02*
X72734714Y-108294714D01*
X72662143Y-108331000D01*
X72625857Y-108367286D01*
X72589571Y-108439857D01*
X72553286Y-108585000D01*
X72553286Y-108766429D01*
X72589571Y-108911571D01*
X72625857Y-108984143D01*
X72662143Y-109020429D01*
X72734714Y-109056714D01*
X72807286Y-109056714D01*
X72879857Y-109020429D01*
X72916143Y-108984143D01*
X72952428Y-108911571D01*
X72988714Y-108766429D01*
X72988714Y-108585000D01*
X72952428Y-108439857D01*
X72916143Y-108367286D01*
X72879857Y-108331000D01*
X72807286Y-108294714D01*
X71827572Y-109056714D02*
X72263000Y-109056714D01*
X72045286Y-109056714D02*
X72045286Y-108294714D01*
X72117857Y-108403571D01*
X72190429Y-108476143D01*
X72263000Y-108512429D01*
X75202142Y-121502714D02*
X75202142Y-120740714D01*
X74911857Y-120740714D01*
X74839285Y-120777000D01*
X74803000Y-120813286D01*
X74766714Y-120885857D01*
X74766714Y-120994714D01*
X74803000Y-121067286D01*
X74839285Y-121103571D01*
X74911857Y-121139857D01*
X75202142Y-121139857D01*
X74440142Y-121502714D02*
X74440142Y-120740714D01*
X74258714Y-120740714D01*
X74149857Y-120777000D01*
X74077285Y-120849571D01*
X74041000Y-120922143D01*
X74004714Y-121067286D01*
X74004714Y-121176143D01*
X74041000Y-121321286D01*
X74077285Y-121393857D01*
X74149857Y-121466429D01*
X74258714Y-121502714D01*
X74440142Y-121502714D01*
X73315285Y-120740714D02*
X73678142Y-120740714D01*
X73714428Y-121103571D01*
X73678142Y-121067286D01*
X73605571Y-121031000D01*
X73424142Y-121031000D01*
X73351571Y-121067286D01*
X73315285Y-121103571D01*
X73279000Y-121176143D01*
X73279000Y-121357571D01*
X73315285Y-121430143D01*
X73351571Y-121466429D01*
X73424142Y-121502714D01*
X73605571Y-121502714D01*
X73678142Y-121466429D01*
X73714428Y-121430143D01*
X72807286Y-120740714D02*
X72734714Y-120740714D01*
X72662143Y-120777000D01*
X72625857Y-120813286D01*
X72589571Y-120885857D01*
X72553286Y-121031000D01*
X72553286Y-121212429D01*
X72589571Y-121357571D01*
X72625857Y-121430143D01*
X72662143Y-121466429D01*
X72734714Y-121502714D01*
X72807286Y-121502714D01*
X72879857Y-121466429D01*
X72916143Y-121430143D01*
X72952428Y-121357571D01*
X72988714Y-121212429D01*
X72988714Y-121031000D01*
X72952428Y-120885857D01*
X72916143Y-120813286D01*
X72879857Y-120777000D01*
X72807286Y-120740714D01*
X71827572Y-121502714D02*
X72263000Y-121502714D01*
X72045286Y-121502714D02*
X72045286Y-120740714D01*
X72117857Y-120849571D01*
X72190429Y-120922143D01*
X72263000Y-120958429D01*
X85180714Y-125058714D02*
X85434714Y-124695857D01*
X85616142Y-125058714D02*
X85616142Y-124296714D01*
X85325857Y-124296714D01*
X85253285Y-124333000D01*
X85217000Y-124369286D01*
X85180714Y-124441857D01*
X85180714Y-124550714D01*
X85217000Y-124623286D01*
X85253285Y-124659571D01*
X85325857Y-124695857D01*
X85616142Y-124695857D01*
X84890428Y-124369286D02*
X84854142Y-124333000D01*
X84781571Y-124296714D01*
X84600142Y-124296714D01*
X84527571Y-124333000D01*
X84491285Y-124369286D01*
X84455000Y-124441857D01*
X84455000Y-124514429D01*
X84491285Y-124623286D01*
X84926714Y-125058714D01*
X84455000Y-125058714D01*
X83983286Y-124296714D02*
X83910714Y-124296714D01*
X83838143Y-124333000D01*
X83801857Y-124369286D01*
X83765571Y-124441857D01*
X83729286Y-124587000D01*
X83729286Y-124768429D01*
X83765571Y-124913571D01*
X83801857Y-124986143D01*
X83838143Y-125022429D01*
X83910714Y-125058714D01*
X83983286Y-125058714D01*
X84055857Y-125022429D01*
X84092143Y-124986143D01*
X84128428Y-124913571D01*
X84164714Y-124768429D01*
X84164714Y-124587000D01*
X84128428Y-124441857D01*
X84092143Y-124369286D01*
X84055857Y-124333000D01*
X83983286Y-124296714D01*
X83439000Y-124369286D02*
X83402714Y-124333000D01*
X83330143Y-124296714D01*
X83148714Y-124296714D01*
X83076143Y-124333000D01*
X83039857Y-124369286D01*
X83003572Y-124441857D01*
X83003572Y-124514429D01*
X83039857Y-124623286D01*
X83475286Y-125058714D01*
X83003572Y-125058714D01*
X77723274Y-126518126D02*
X77360417Y-126264126D01*
X77723274Y-126082698D02*
X76961274Y-126082698D01*
X76961274Y-126372983D01*
X76997560Y-126445555D01*
X77033846Y-126481840D01*
X77106417Y-126518126D01*
X77215274Y-126518126D01*
X77287846Y-126481840D01*
X77324131Y-126445555D01*
X77360417Y-126372983D01*
X77360417Y-126082698D01*
X77033846Y-126808412D02*
X76997560Y-126844698D01*
X76961274Y-126917269D01*
X76961274Y-127098698D01*
X76997560Y-127171269D01*
X77033846Y-127207555D01*
X77106417Y-127243840D01*
X77178989Y-127243840D01*
X77287846Y-127207555D01*
X77723274Y-126772126D01*
X77723274Y-127243840D01*
X76961274Y-127715554D02*
X76961274Y-127788126D01*
X76997560Y-127860697D01*
X77033846Y-127896983D01*
X77106417Y-127933269D01*
X77251560Y-127969554D01*
X77432989Y-127969554D01*
X77578131Y-127933269D01*
X77650703Y-127896983D01*
X77686989Y-127860697D01*
X77723274Y-127788126D01*
X77723274Y-127715554D01*
X77686989Y-127642983D01*
X77650703Y-127606697D01*
X77578131Y-127570412D01*
X77432989Y-127534126D01*
X77251560Y-127534126D01*
X77106417Y-127570412D01*
X77033846Y-127606697D01*
X76997560Y-127642983D01*
X76961274Y-127715554D01*
X76961274Y-128223554D02*
X76961274Y-128695268D01*
X77251560Y-128441268D01*
X77251560Y-128550126D01*
X77287846Y-128622697D01*
X77324131Y-128658983D01*
X77396703Y-128695268D01*
X77578131Y-128695268D01*
X77650703Y-128658983D01*
X77686989Y-128622697D01*
X77723274Y-128550126D01*
X77723274Y-128332411D01*
X77686989Y-128259840D01*
X77650703Y-128223554D01*
%LPC*%
D13*
X85324000Y-81280000D03*
X82824000Y-81280000D03*
D14*
X82804000Y-77978000D03*
D15*
X85344000Y-77978000D03*
D16*
X69977000Y-77978000D03*
X75539600Y-77978000D03*
X79121000Y-77978000D03*
D17*
X82550000Y-133096000D03*
D18*
X80010000Y-133096000D03*
X77470000Y-133096000D03*
X74930000Y-133096000D03*
X72390000Y-133096000D03*
D16*
X69977000Y-91059000D03*
X69977000Y-103632000D03*
X69977000Y-116205000D03*
X69977000Y-128397000D03*
D19*
X71133000Y-86741000D03*
X75933000Y-86741000D03*
X71133000Y-99187000D03*
X75933000Y-99187000D03*
X71133000Y-111633000D03*
X75933000Y-111633000D03*
X71133000Y-124079000D03*
X75933000Y-124079000D03*
D20*
X85932000Y-126492000D03*
X83232000Y-126492000D03*
D21*
X78902560Y-129736840D03*
X78902560Y-127036840D03*
D22*
X83566000Y-123992000D03*
X81066000Y-126392000D03*
X83566000Y-128992000D03*
D16*
X83705700Y-110947200D03*
M02*
