G04 #@! TF.FileFunction,Legend,Top*
%FSLAX46Y46*%
G04 Gerber Fmt 4.6, Leading zero omitted, Abs format (unit mm)*
G04 Created by KiCad (PCBNEW 0.201505262310+5684~23~ubuntu14.04.1-product) date Mon 01 Jun 2015 21:54:35 CEST*
%MOMM*%
G01*
G04 APERTURE LIST*
%ADD10C,0.100000*%
%ADD11C,0.127000*%
%ADD12C,0.150000*%
%ADD13R,1.500000X1.250000*%
%ADD14R,1.250000X1.500000*%
%ADD15R,2.032000X2.032000*%
%ADD16O,2.032000X2.032000*%
%ADD17R,2.235200X2.235200*%
%ADD18R,1.727200X2.032000*%
%ADD19O,1.727200X2.032000*%
%ADD20R,1.500000X1.300000*%
%ADD21R,1.300000X1.500000*%
%ADD22R,2.000000X1.700000*%
%ADD23R,0.650000X1.060000*%
%ADD24R,1.500000X0.600000*%
%ADD25C,1.000000*%
G04 APERTURE END LIST*
D10*
D11*
X75075143Y-130646714D02*
X75075143Y-131154714D01*
X74893714Y-130356429D02*
X74712286Y-130900714D01*
X75184000Y-130900714D01*
X77216000Y-130392714D02*
X77687714Y-130392714D01*
X77433714Y-130683000D01*
X77542572Y-130683000D01*
X77615143Y-130719286D01*
X77651429Y-130755571D01*
X77687714Y-130828143D01*
X77687714Y-131009571D01*
X77651429Y-131082143D01*
X77615143Y-131118429D01*
X77542572Y-131154714D01*
X77324857Y-131154714D01*
X77252286Y-131118429D01*
X77216000Y-131082143D01*
X80046286Y-130465286D02*
X80082572Y-130429000D01*
X80155143Y-130392714D01*
X80336572Y-130392714D01*
X80409143Y-130429000D01*
X80445429Y-130465286D01*
X80481714Y-130537857D01*
X80481714Y-130610429D01*
X80445429Y-130719286D01*
X80010000Y-131154714D01*
X80481714Y-131154714D01*
X82767714Y-131154714D02*
X82332286Y-131154714D01*
X82550000Y-131154714D02*
X82550000Y-130392714D01*
X82477429Y-130501571D01*
X82404857Y-130574143D01*
X82332286Y-130610429D01*
X72843571Y-130175000D02*
X72771000Y-130138714D01*
X72662143Y-130138714D01*
X72553286Y-130175000D01*
X72480714Y-130247571D01*
X72444429Y-130320143D01*
X72408143Y-130465286D01*
X72408143Y-130574143D01*
X72444429Y-130719286D01*
X72480714Y-130791857D01*
X72553286Y-130864429D01*
X72662143Y-130900714D01*
X72734714Y-130900714D01*
X72843571Y-130864429D01*
X72879857Y-130828143D01*
X72879857Y-130574143D01*
X72734714Y-130574143D01*
X76073001Y-98515714D02*
X76073001Y-98697143D01*
X75891572Y-98624571D02*
X76073001Y-98697143D01*
X76254429Y-98624571D01*
X75964144Y-98842286D02*
X76073001Y-98697143D01*
X76181858Y-98842286D01*
X82042001Y-120042214D02*
X82042001Y-120223643D01*
X81860572Y-120151071D02*
X82042001Y-120223643D01*
X82223429Y-120151071D01*
X81933144Y-120368786D02*
X82042001Y-120223643D01*
X82150858Y-120368786D01*
X86360001Y-81370714D02*
X86360001Y-81552143D01*
X86178572Y-81479571D02*
X86360001Y-81552143D01*
X86541429Y-81479571D01*
X86251144Y-81697286D02*
X86360001Y-81552143D01*
X86468858Y-81697286D01*
X83003571Y-80010000D02*
X82931000Y-79973714D01*
X82822143Y-79973714D01*
X82713286Y-80010000D01*
X82640714Y-80082571D01*
X82604429Y-80155143D01*
X82568143Y-80300286D01*
X82568143Y-80409143D01*
X82604429Y-80554286D01*
X82640714Y-80626857D01*
X82713286Y-80699429D01*
X82822143Y-80735714D01*
X82894714Y-80735714D01*
X83003571Y-80699429D01*
X83039857Y-80663143D01*
X83039857Y-80409143D01*
X82894714Y-80409143D01*
X85307715Y-80318429D02*
X85888286Y-80318429D01*
X85598000Y-80608714D02*
X85598000Y-80028143D01*
D12*
X83828000Y-87210000D02*
X84828000Y-87210000D01*
X84828000Y-85510000D02*
X83828000Y-85510000D01*
X71747000Y-83605000D02*
X70747000Y-83605000D01*
X70747000Y-85305000D02*
X71747000Y-85305000D01*
X83020800Y-90432000D02*
X83020800Y-91432000D01*
X84720800Y-91432000D02*
X84720800Y-90432000D01*
X86511500Y-117340000D02*
X86511500Y-116340000D01*
X84811500Y-116340000D02*
X84811500Y-117340000D01*
X71747000Y-95924000D02*
X70747000Y-95924000D01*
X70747000Y-97624000D02*
X71747000Y-97624000D01*
X71620000Y-107049200D02*
X70620000Y-107049200D01*
X70620000Y-108749200D02*
X71620000Y-108749200D01*
X71556500Y-120689000D02*
X70556500Y-120689000D01*
X70556500Y-122389000D02*
X71556500Y-122389000D01*
X84074000Y-76708000D02*
X86614000Y-76708000D01*
X81254000Y-76428000D02*
X82804000Y-76428000D01*
X84074000Y-76708000D02*
X84074000Y-79248000D01*
X82804000Y-79528000D02*
X81254000Y-79528000D01*
X81254000Y-79528000D02*
X81254000Y-76428000D01*
X84074000Y-79248000D02*
X86614000Y-79248000D01*
X86614000Y-79248000D02*
X86614000Y-76708000D01*
X71527000Y-76428000D02*
X71527000Y-77978000D01*
X68427000Y-77978000D02*
X68427000Y-76428000D01*
X68427000Y-76428000D02*
X71527000Y-76428000D01*
X68707000Y-79248000D02*
X71247000Y-79248000D01*
X77089600Y-76428000D02*
X77089600Y-77978000D01*
X73989600Y-77978000D02*
X73989600Y-76428000D01*
X73989600Y-76428000D02*
X77089600Y-76428000D01*
X74269600Y-79248000D02*
X76809600Y-79248000D01*
X80671000Y-76428000D02*
X80671000Y-77978000D01*
X77571000Y-77978000D02*
X77571000Y-76428000D01*
X77571000Y-76428000D02*
X80671000Y-76428000D01*
X77851000Y-79248000D02*
X80391000Y-79248000D01*
X82550000Y-131546000D02*
X84100000Y-131546000D01*
X84100000Y-131546000D02*
X84100000Y-134646000D01*
X84100000Y-134646000D02*
X82550000Y-134646000D01*
X81280000Y-134366000D02*
X71120000Y-134366000D01*
X71120000Y-134366000D02*
X71120000Y-131826000D01*
X71120000Y-131826000D02*
X81280000Y-131826000D01*
X81280000Y-134366000D02*
X81280000Y-131826000D01*
X71527000Y-89509000D02*
X71527000Y-91059000D01*
X68427000Y-91059000D02*
X68427000Y-89509000D01*
X68427000Y-89509000D02*
X71527000Y-89509000D01*
X68707000Y-92329000D02*
X71247000Y-92329000D01*
X71527000Y-102082000D02*
X71527000Y-103632000D01*
X68427000Y-103632000D02*
X68427000Y-102082000D01*
X68427000Y-102082000D02*
X71527000Y-102082000D01*
X68707000Y-104902000D02*
X71247000Y-104902000D01*
X71527000Y-114655000D02*
X71527000Y-116205000D01*
X68427000Y-116205000D02*
X68427000Y-114655000D01*
X68427000Y-114655000D02*
X71527000Y-114655000D01*
X68707000Y-117475000D02*
X71247000Y-117475000D01*
X71527000Y-126847000D02*
X71527000Y-128397000D01*
X68427000Y-128397000D02*
X68427000Y-126847000D01*
X68427000Y-126847000D02*
X71527000Y-126847000D01*
X68707000Y-129667000D02*
X71247000Y-129667000D01*
X79562400Y-89142600D02*
X80762400Y-89142600D01*
X80762400Y-90892600D02*
X79562400Y-90892600D01*
X80711600Y-93127800D02*
X79511600Y-93127800D01*
X79511600Y-91377800D02*
X80711600Y-91377800D01*
X79643000Y-84166000D02*
X79643000Y-82966000D01*
X81393000Y-82966000D02*
X81393000Y-84166000D01*
X73136000Y-87943000D02*
X71136000Y-87943000D01*
X71136000Y-85793000D02*
X73136000Y-85793000D01*
X73136000Y-100262000D02*
X71136000Y-100262000D01*
X71136000Y-98112000D02*
X73136000Y-98112000D01*
X73085200Y-111361800D02*
X71085200Y-111361800D01*
X71085200Y-109211800D02*
X73085200Y-109211800D01*
X73072500Y-125090500D02*
X71072500Y-125090500D01*
X71072500Y-122940500D02*
X73072500Y-122940500D01*
X85874000Y-82758000D02*
G75*
G03X85874000Y-82758000I-100000J0D01*
G01*
X85524000Y-83308000D02*
X85524000Y-82808000D01*
X82624000Y-83308000D02*
X85524000Y-83308000D01*
X82624000Y-82808000D02*
X82624000Y-83308000D01*
X85524000Y-82808000D02*
X82624000Y-82808000D01*
X78062000Y-98166000D02*
X78062000Y-98281000D01*
X82212000Y-98166000D02*
X82212000Y-98281000D01*
X82212000Y-107066000D02*
X82212000Y-106951000D01*
X78062000Y-107066000D02*
X78062000Y-106951000D01*
X78062000Y-98166000D02*
X82212000Y-98166000D01*
X78062000Y-107066000D02*
X82212000Y-107066000D01*
X78062000Y-98281000D02*
X76687000Y-98281000D01*
X79926000Y-120909000D02*
X79926000Y-120794000D01*
X75776000Y-120909000D02*
X75776000Y-120794000D01*
X75776000Y-112009000D02*
X75776000Y-112124000D01*
X79926000Y-112009000D02*
X79926000Y-112124000D01*
X79926000Y-120909000D02*
X75776000Y-120909000D01*
X79926000Y-112009000D02*
X75776000Y-112009000D01*
X79926000Y-120794000D02*
X81301000Y-120794000D01*
X87066000Y-129992000D02*
X87066000Y-122992000D01*
X80066000Y-129992000D02*
X80066000Y-122992000D01*
X80066000Y-122992000D02*
X87066000Y-122992000D01*
X80066000Y-129992000D02*
X87066000Y-129992000D01*
X85255700Y-109397200D02*
X85255700Y-110947200D01*
X82155700Y-110947200D02*
X82155700Y-109397200D01*
X82155700Y-109397200D02*
X85255700Y-109397200D01*
X82435700Y-112217200D02*
X84975700Y-112217200D01*
D11*
X84440486Y-88308543D02*
X84404200Y-88344829D01*
X84295343Y-88381114D01*
X84222772Y-88381114D01*
X84113915Y-88344829D01*
X84041343Y-88272257D01*
X84005058Y-88199686D01*
X83968772Y-88054543D01*
X83968772Y-87945686D01*
X84005058Y-87800543D01*
X84041343Y-87727971D01*
X84113915Y-87655400D01*
X84222772Y-87619114D01*
X84295343Y-87619114D01*
X84404200Y-87655400D01*
X84440486Y-87691686D01*
X85166200Y-88381114D02*
X84730772Y-88381114D01*
X84948486Y-88381114D02*
X84948486Y-87619114D01*
X84875915Y-87727971D01*
X84803343Y-87800543D01*
X84730772Y-87836829D01*
X85637914Y-87619114D02*
X85710486Y-87619114D01*
X85783057Y-87655400D01*
X85819343Y-87691686D01*
X85855629Y-87764257D01*
X85891914Y-87909400D01*
X85891914Y-88090829D01*
X85855629Y-88235971D01*
X85819343Y-88308543D01*
X85783057Y-88344829D01*
X85710486Y-88381114D01*
X85637914Y-88381114D01*
X85565343Y-88344829D01*
X85529057Y-88308543D01*
X85492772Y-88235971D01*
X85456486Y-88090829D01*
X85456486Y-87909400D01*
X85492772Y-87764257D01*
X85529057Y-87691686D01*
X85565343Y-87655400D01*
X85637914Y-87619114D01*
X86182200Y-87691686D02*
X86218486Y-87655400D01*
X86291057Y-87619114D01*
X86472486Y-87619114D01*
X86545057Y-87655400D01*
X86581343Y-87691686D01*
X86617628Y-87764257D01*
X86617628Y-87836829D01*
X86581343Y-87945686D01*
X86145914Y-88381114D01*
X86617628Y-88381114D01*
X74694143Y-84926714D02*
X74730429Y-84963000D01*
X74766714Y-85071857D01*
X74766714Y-85144428D01*
X74730429Y-85253285D01*
X74657857Y-85325857D01*
X74585286Y-85362142D01*
X74440143Y-85398428D01*
X74331286Y-85398428D01*
X74186143Y-85362142D01*
X74113571Y-85325857D01*
X74041000Y-85253285D01*
X74004714Y-85144428D01*
X74004714Y-85071857D01*
X74041000Y-84963000D01*
X74077286Y-84926714D01*
X74077286Y-84636428D02*
X74041000Y-84600142D01*
X74004714Y-84527571D01*
X74004714Y-84346142D01*
X74041000Y-84273571D01*
X74077286Y-84237285D01*
X74149857Y-84201000D01*
X74222429Y-84201000D01*
X74331286Y-84237285D01*
X74766714Y-84672714D01*
X74766714Y-84201000D01*
X74004714Y-83729286D02*
X74004714Y-83656714D01*
X74041000Y-83584143D01*
X74077286Y-83547857D01*
X74149857Y-83511571D01*
X74295000Y-83475286D01*
X74476429Y-83475286D01*
X74621571Y-83511571D01*
X74694143Y-83547857D01*
X74730429Y-83584143D01*
X74766714Y-83656714D01*
X74766714Y-83729286D01*
X74730429Y-83801857D01*
X74694143Y-83838143D01*
X74621571Y-83874428D01*
X74476429Y-83910714D01*
X74295000Y-83910714D01*
X74149857Y-83874428D01*
X74077286Y-83838143D01*
X74041000Y-83801857D01*
X74004714Y-83729286D01*
X74766714Y-82749572D02*
X74766714Y-83185000D01*
X74766714Y-82967286D02*
X74004714Y-82967286D01*
X74113571Y-83039857D01*
X74186143Y-83112429D01*
X74222429Y-83185000D01*
X85806643Y-92140314D02*
X85842929Y-92176600D01*
X85879214Y-92285457D01*
X85879214Y-92358028D01*
X85842929Y-92466885D01*
X85770357Y-92539457D01*
X85697786Y-92575742D01*
X85552643Y-92612028D01*
X85443786Y-92612028D01*
X85298643Y-92575742D01*
X85226071Y-92539457D01*
X85153500Y-92466885D01*
X85117214Y-92358028D01*
X85117214Y-92285457D01*
X85153500Y-92176600D01*
X85189786Y-92140314D01*
X85189786Y-91850028D02*
X85153500Y-91813742D01*
X85117214Y-91741171D01*
X85117214Y-91559742D01*
X85153500Y-91487171D01*
X85189786Y-91450885D01*
X85262357Y-91414600D01*
X85334929Y-91414600D01*
X85443786Y-91450885D01*
X85879214Y-91886314D01*
X85879214Y-91414600D01*
X85117214Y-90942886D02*
X85117214Y-90870314D01*
X85153500Y-90797743D01*
X85189786Y-90761457D01*
X85262357Y-90725171D01*
X85407500Y-90688886D01*
X85588929Y-90688886D01*
X85734071Y-90725171D01*
X85806643Y-90761457D01*
X85842929Y-90797743D01*
X85879214Y-90870314D01*
X85879214Y-90942886D01*
X85842929Y-91015457D01*
X85806643Y-91051743D01*
X85734071Y-91088028D01*
X85588929Y-91124314D01*
X85407500Y-91124314D01*
X85262357Y-91088028D01*
X85189786Y-91051743D01*
X85153500Y-91015457D01*
X85117214Y-90942886D01*
X85189786Y-90398600D02*
X85153500Y-90362314D01*
X85117214Y-90289743D01*
X85117214Y-90108314D01*
X85153500Y-90035743D01*
X85189786Y-89999457D01*
X85262357Y-89963172D01*
X85334929Y-89963172D01*
X85443786Y-89999457D01*
X85879214Y-90434886D01*
X85879214Y-89963172D01*
X84282643Y-117311714D02*
X84318929Y-117348000D01*
X84355214Y-117456857D01*
X84355214Y-117529428D01*
X84318929Y-117638285D01*
X84246357Y-117710857D01*
X84173786Y-117747142D01*
X84028643Y-117783428D01*
X83919786Y-117783428D01*
X83774643Y-117747142D01*
X83702071Y-117710857D01*
X83629500Y-117638285D01*
X83593214Y-117529428D01*
X83593214Y-117456857D01*
X83629500Y-117348000D01*
X83665786Y-117311714D01*
X83665786Y-117021428D02*
X83629500Y-116985142D01*
X83593214Y-116912571D01*
X83593214Y-116731142D01*
X83629500Y-116658571D01*
X83665786Y-116622285D01*
X83738357Y-116586000D01*
X83810929Y-116586000D01*
X83919786Y-116622285D01*
X84355214Y-117057714D01*
X84355214Y-116586000D01*
X83593214Y-116114286D02*
X83593214Y-116041714D01*
X83629500Y-115969143D01*
X83665786Y-115932857D01*
X83738357Y-115896571D01*
X83883500Y-115860286D01*
X84064929Y-115860286D01*
X84210071Y-115896571D01*
X84282643Y-115932857D01*
X84318929Y-115969143D01*
X84355214Y-116041714D01*
X84355214Y-116114286D01*
X84318929Y-116186857D01*
X84282643Y-116223143D01*
X84210071Y-116259428D01*
X84064929Y-116295714D01*
X83883500Y-116295714D01*
X83738357Y-116259428D01*
X83665786Y-116223143D01*
X83629500Y-116186857D01*
X83593214Y-116114286D01*
X83593214Y-115606286D02*
X83593214Y-115134572D01*
X83883500Y-115388572D01*
X83883500Y-115279714D01*
X83919786Y-115207143D01*
X83956071Y-115170857D01*
X84028643Y-115134572D01*
X84210071Y-115134572D01*
X84282643Y-115170857D01*
X84318929Y-115207143D01*
X84355214Y-115279714D01*
X84355214Y-115497429D01*
X84318929Y-115570000D01*
X84282643Y-115606286D01*
X74694143Y-97245714D02*
X74730429Y-97282000D01*
X74766714Y-97390857D01*
X74766714Y-97463428D01*
X74730429Y-97572285D01*
X74657857Y-97644857D01*
X74585286Y-97681142D01*
X74440143Y-97717428D01*
X74331286Y-97717428D01*
X74186143Y-97681142D01*
X74113571Y-97644857D01*
X74041000Y-97572285D01*
X74004714Y-97463428D01*
X74004714Y-97390857D01*
X74041000Y-97282000D01*
X74077286Y-97245714D01*
X74004714Y-96991714D02*
X74004714Y-96520000D01*
X74295000Y-96774000D01*
X74295000Y-96665142D01*
X74331286Y-96592571D01*
X74367571Y-96556285D01*
X74440143Y-96520000D01*
X74621571Y-96520000D01*
X74694143Y-96556285D01*
X74730429Y-96592571D01*
X74766714Y-96665142D01*
X74766714Y-96882857D01*
X74730429Y-96955428D01*
X74694143Y-96991714D01*
X74004714Y-96048286D02*
X74004714Y-95975714D01*
X74041000Y-95903143D01*
X74077286Y-95866857D01*
X74149857Y-95830571D01*
X74295000Y-95794286D01*
X74476429Y-95794286D01*
X74621571Y-95830571D01*
X74694143Y-95866857D01*
X74730429Y-95903143D01*
X74766714Y-95975714D01*
X74766714Y-96048286D01*
X74730429Y-96120857D01*
X74694143Y-96157143D01*
X74621571Y-96193428D01*
X74476429Y-96229714D01*
X74295000Y-96229714D01*
X74149857Y-96193428D01*
X74077286Y-96157143D01*
X74041000Y-96120857D01*
X74004714Y-96048286D01*
X74766714Y-95068572D02*
X74766714Y-95504000D01*
X74766714Y-95286286D02*
X74004714Y-95286286D01*
X74113571Y-95358857D01*
X74186143Y-95431429D01*
X74222429Y-95504000D01*
X74440143Y-108370914D02*
X74476429Y-108407200D01*
X74512714Y-108516057D01*
X74512714Y-108588628D01*
X74476429Y-108697485D01*
X74403857Y-108770057D01*
X74331286Y-108806342D01*
X74186143Y-108842628D01*
X74077286Y-108842628D01*
X73932143Y-108806342D01*
X73859571Y-108770057D01*
X73787000Y-108697485D01*
X73750714Y-108588628D01*
X73750714Y-108516057D01*
X73787000Y-108407200D01*
X73823286Y-108370914D01*
X74004714Y-107717771D02*
X74512714Y-107717771D01*
X73714429Y-107899200D02*
X74258714Y-108080628D01*
X74258714Y-107608914D01*
X73750714Y-107173486D02*
X73750714Y-107100914D01*
X73787000Y-107028343D01*
X73823286Y-106992057D01*
X73895857Y-106955771D01*
X74041000Y-106919486D01*
X74222429Y-106919486D01*
X74367571Y-106955771D01*
X74440143Y-106992057D01*
X74476429Y-107028343D01*
X74512714Y-107100914D01*
X74512714Y-107173486D01*
X74476429Y-107246057D01*
X74440143Y-107282343D01*
X74367571Y-107318628D01*
X74222429Y-107354914D01*
X74041000Y-107354914D01*
X73895857Y-107318628D01*
X73823286Y-107282343D01*
X73787000Y-107246057D01*
X73750714Y-107173486D01*
X74512714Y-106193772D02*
X74512714Y-106629200D01*
X74512714Y-106411486D02*
X73750714Y-106411486D01*
X73859571Y-106484057D01*
X73932143Y-106556629D01*
X73968429Y-106629200D01*
X69251286Y-120160143D02*
X69215000Y-120196429D01*
X69106143Y-120232714D01*
X69033572Y-120232714D01*
X68924715Y-120196429D01*
X68852143Y-120123857D01*
X68815858Y-120051286D01*
X68779572Y-119906143D01*
X68779572Y-119797286D01*
X68815858Y-119652143D01*
X68852143Y-119579571D01*
X68924715Y-119507000D01*
X69033572Y-119470714D01*
X69106143Y-119470714D01*
X69215000Y-119507000D01*
X69251286Y-119543286D01*
X69940715Y-119470714D02*
X69577858Y-119470714D01*
X69541572Y-119833571D01*
X69577858Y-119797286D01*
X69650429Y-119761000D01*
X69831858Y-119761000D01*
X69904429Y-119797286D01*
X69940715Y-119833571D01*
X69977000Y-119906143D01*
X69977000Y-120087571D01*
X69940715Y-120160143D01*
X69904429Y-120196429D01*
X69831858Y-120232714D01*
X69650429Y-120232714D01*
X69577858Y-120196429D01*
X69541572Y-120160143D01*
X70448714Y-119470714D02*
X70521286Y-119470714D01*
X70593857Y-119507000D01*
X70630143Y-119543286D01*
X70666429Y-119615857D01*
X70702714Y-119761000D01*
X70702714Y-119942429D01*
X70666429Y-120087571D01*
X70630143Y-120160143D01*
X70593857Y-120196429D01*
X70521286Y-120232714D01*
X70448714Y-120232714D01*
X70376143Y-120196429D01*
X70339857Y-120160143D01*
X70303572Y-120087571D01*
X70267286Y-119942429D01*
X70267286Y-119761000D01*
X70303572Y-119615857D01*
X70339857Y-119543286D01*
X70376143Y-119507000D01*
X70448714Y-119470714D01*
X71428428Y-120232714D02*
X70993000Y-120232714D01*
X71210714Y-120232714D02*
X71210714Y-119470714D01*
X71138143Y-119579571D01*
X71065571Y-119652143D01*
X70993000Y-119688429D01*
X68714257Y-80161674D02*
X68968257Y-80923674D01*
X69222257Y-80161674D01*
X69875400Y-80197960D02*
X69802829Y-80161674D01*
X69693972Y-80161674D01*
X69585115Y-80197960D01*
X69512543Y-80270531D01*
X69476258Y-80343103D01*
X69439972Y-80488246D01*
X69439972Y-80597103D01*
X69476258Y-80742246D01*
X69512543Y-80814817D01*
X69585115Y-80887389D01*
X69693972Y-80923674D01*
X69766543Y-80923674D01*
X69875400Y-80887389D01*
X69911686Y-80851103D01*
X69911686Y-80597103D01*
X69766543Y-80597103D01*
X70238258Y-80923674D02*
X70238258Y-80161674D01*
X70673686Y-80923674D01*
X70673686Y-80161674D01*
X71036544Y-80923674D02*
X71036544Y-80161674D01*
X71217972Y-80161674D01*
X71326829Y-80197960D01*
X71399401Y-80270531D01*
X71435686Y-80343103D01*
X71471972Y-80488246D01*
X71471972Y-80597103D01*
X71435686Y-80742246D01*
X71399401Y-80814817D01*
X71326829Y-80887389D01*
X71217972Y-80923674D01*
X71036544Y-80923674D01*
X75060629Y-80100714D02*
X75532343Y-80100714D01*
X75278343Y-80391000D01*
X75387201Y-80391000D01*
X75459772Y-80427286D01*
X75496058Y-80463571D01*
X75532343Y-80536143D01*
X75532343Y-80717571D01*
X75496058Y-80790143D01*
X75459772Y-80826429D01*
X75387201Y-80862714D01*
X75169486Y-80862714D01*
X75096915Y-80826429D01*
X75060629Y-80790143D01*
X75750057Y-80100714D02*
X76004057Y-80862714D01*
X76258057Y-80100714D01*
X79447571Y-79984600D02*
X79375000Y-79948314D01*
X79266143Y-79948314D01*
X79157286Y-79984600D01*
X79084714Y-80057171D01*
X79048429Y-80129743D01*
X79012143Y-80274886D01*
X79012143Y-80383743D01*
X79048429Y-80528886D01*
X79084714Y-80601457D01*
X79157286Y-80674029D01*
X79266143Y-80710314D01*
X79338714Y-80710314D01*
X79447571Y-80674029D01*
X79483857Y-80637743D01*
X79483857Y-80383743D01*
X79338714Y-80383743D01*
X70347114Y-134688942D02*
X69585114Y-134688942D01*
X69585114Y-134398657D01*
X69621400Y-134326085D01*
X69657686Y-134289800D01*
X69730257Y-134253514D01*
X69839114Y-134253514D01*
X69911686Y-134289800D01*
X69947971Y-134326085D01*
X69984257Y-134398657D01*
X69984257Y-134688942D01*
X70347114Y-133527800D02*
X70347114Y-133963228D01*
X70347114Y-133745514D02*
X69585114Y-133745514D01*
X69693971Y-133818085D01*
X69766543Y-133890657D01*
X69802829Y-133963228D01*
X69585114Y-133056086D02*
X69585114Y-132983514D01*
X69621400Y-132910943D01*
X69657686Y-132874657D01*
X69730257Y-132838371D01*
X69875400Y-132802086D01*
X70056829Y-132802086D01*
X70201971Y-132838371D01*
X70274543Y-132874657D01*
X70310829Y-132910943D01*
X70347114Y-132983514D01*
X70347114Y-133056086D01*
X70310829Y-133128657D01*
X70274543Y-133164943D01*
X70201971Y-133201228D01*
X70056829Y-133237514D01*
X69875400Y-133237514D01*
X69730257Y-133201228D01*
X69657686Y-133164943D01*
X69621400Y-133128657D01*
X69585114Y-133056086D01*
X69585114Y-132112657D02*
X69585114Y-132475514D01*
X69947971Y-132511800D01*
X69911686Y-132475514D01*
X69875400Y-132402943D01*
X69875400Y-132221514D01*
X69911686Y-132148943D01*
X69947971Y-132112657D01*
X70020543Y-132076372D01*
X70201971Y-132076372D01*
X70274543Y-132112657D01*
X70310829Y-132148943D01*
X70347114Y-132221514D01*
X70347114Y-132402943D01*
X70310829Y-132475514D01*
X70274543Y-132511800D01*
X72698429Y-92053954D02*
X72734714Y-91945097D01*
X72734714Y-91763668D01*
X72698429Y-91691097D01*
X72662143Y-91654811D01*
X72589571Y-91618526D01*
X72517000Y-91618526D01*
X72444429Y-91654811D01*
X72408143Y-91691097D01*
X72371857Y-91763668D01*
X72335571Y-91908811D01*
X72299286Y-91981383D01*
X72263000Y-92017668D01*
X72190429Y-92053954D01*
X72117857Y-92053954D01*
X72045286Y-92017668D01*
X72009000Y-91981383D01*
X71972714Y-91908811D01*
X71972714Y-91727383D01*
X72009000Y-91618526D01*
X72734714Y-91291954D02*
X72226714Y-91291954D01*
X71972714Y-91291954D02*
X72009000Y-91328240D01*
X72045286Y-91291954D01*
X72009000Y-91255669D01*
X71972714Y-91291954D01*
X72045286Y-91291954D01*
X72226714Y-90602526D02*
X72843571Y-90602526D01*
X72916143Y-90638812D01*
X72952429Y-90675097D01*
X72988714Y-90747669D01*
X72988714Y-90856526D01*
X72952429Y-90929097D01*
X72698429Y-90602526D02*
X72734714Y-90675097D01*
X72734714Y-90820240D01*
X72698429Y-90892812D01*
X72662143Y-90929097D01*
X72589571Y-90965383D01*
X72371857Y-90965383D01*
X72299286Y-90929097D01*
X72263000Y-90892812D01*
X72226714Y-90820240D01*
X72226714Y-90675097D01*
X72263000Y-90602526D01*
X72734714Y-89840526D02*
X72734714Y-90275954D01*
X72734714Y-90058240D02*
X71972714Y-90058240D01*
X72081571Y-90130811D01*
X72154143Y-90203383D01*
X72190429Y-90275954D01*
X72698429Y-104814914D02*
X72734714Y-104706057D01*
X72734714Y-104524628D01*
X72698429Y-104452057D01*
X72662143Y-104415771D01*
X72589571Y-104379486D01*
X72517000Y-104379486D01*
X72444429Y-104415771D01*
X72408143Y-104452057D01*
X72371857Y-104524628D01*
X72335571Y-104669771D01*
X72299286Y-104742343D01*
X72263000Y-104778628D01*
X72190429Y-104814914D01*
X72117857Y-104814914D01*
X72045286Y-104778628D01*
X72009000Y-104742343D01*
X71972714Y-104669771D01*
X71972714Y-104488343D01*
X72009000Y-104379486D01*
X72734714Y-104052914D02*
X72226714Y-104052914D01*
X71972714Y-104052914D02*
X72009000Y-104089200D01*
X72045286Y-104052914D01*
X72009000Y-104016629D01*
X71972714Y-104052914D01*
X72045286Y-104052914D01*
X72226714Y-103363486D02*
X72843571Y-103363486D01*
X72916143Y-103399772D01*
X72952429Y-103436057D01*
X72988714Y-103508629D01*
X72988714Y-103617486D01*
X72952429Y-103690057D01*
X72698429Y-103363486D02*
X72734714Y-103436057D01*
X72734714Y-103581200D01*
X72698429Y-103653772D01*
X72662143Y-103690057D01*
X72589571Y-103726343D01*
X72371857Y-103726343D01*
X72299286Y-103690057D01*
X72263000Y-103653772D01*
X72226714Y-103581200D01*
X72226714Y-103436057D01*
X72263000Y-103363486D01*
X72045286Y-103036914D02*
X72009000Y-103000628D01*
X71972714Y-102928057D01*
X71972714Y-102746628D01*
X72009000Y-102674057D01*
X72045286Y-102637771D01*
X72117857Y-102601486D01*
X72190429Y-102601486D01*
X72299286Y-102637771D01*
X72734714Y-103073200D01*
X72734714Y-102601486D01*
X72662869Y-117123754D02*
X72699154Y-117014897D01*
X72699154Y-116833468D01*
X72662869Y-116760897D01*
X72626583Y-116724611D01*
X72554011Y-116688326D01*
X72481440Y-116688326D01*
X72408869Y-116724611D01*
X72372583Y-116760897D01*
X72336297Y-116833468D01*
X72300011Y-116978611D01*
X72263726Y-117051183D01*
X72227440Y-117087468D01*
X72154869Y-117123754D01*
X72082297Y-117123754D01*
X72009726Y-117087468D01*
X71973440Y-117051183D01*
X71937154Y-116978611D01*
X71937154Y-116797183D01*
X71973440Y-116688326D01*
X72699154Y-116361754D02*
X72191154Y-116361754D01*
X71937154Y-116361754D02*
X71973440Y-116398040D01*
X72009726Y-116361754D01*
X71973440Y-116325469D01*
X71937154Y-116361754D01*
X72009726Y-116361754D01*
X72191154Y-115672326D02*
X72808011Y-115672326D01*
X72880583Y-115708612D01*
X72916869Y-115744897D01*
X72953154Y-115817469D01*
X72953154Y-115926326D01*
X72916869Y-115998897D01*
X72662869Y-115672326D02*
X72699154Y-115744897D01*
X72699154Y-115890040D01*
X72662869Y-115962612D01*
X72626583Y-115998897D01*
X72554011Y-116035183D01*
X72336297Y-116035183D01*
X72263726Y-115998897D01*
X72227440Y-115962612D01*
X72191154Y-115890040D01*
X72191154Y-115744897D01*
X72227440Y-115672326D01*
X71937154Y-115382040D02*
X71937154Y-114910326D01*
X72227440Y-115164326D01*
X72227440Y-115055468D01*
X72263726Y-114982897D01*
X72300011Y-114946611D01*
X72372583Y-114910326D01*
X72554011Y-114910326D01*
X72626583Y-114946611D01*
X72662869Y-114982897D01*
X72699154Y-115055468D01*
X72699154Y-115273183D01*
X72662869Y-115345754D01*
X72626583Y-115382040D01*
X72891469Y-129620554D02*
X72927754Y-129511697D01*
X72927754Y-129330268D01*
X72891469Y-129257697D01*
X72855183Y-129221411D01*
X72782611Y-129185126D01*
X72710040Y-129185126D01*
X72637469Y-129221411D01*
X72601183Y-129257697D01*
X72564897Y-129330268D01*
X72528611Y-129475411D01*
X72492326Y-129547983D01*
X72456040Y-129584268D01*
X72383469Y-129620554D01*
X72310897Y-129620554D01*
X72238326Y-129584268D01*
X72202040Y-129547983D01*
X72165754Y-129475411D01*
X72165754Y-129293983D01*
X72202040Y-129185126D01*
X72927754Y-128858554D02*
X72419754Y-128858554D01*
X72165754Y-128858554D02*
X72202040Y-128894840D01*
X72238326Y-128858554D01*
X72202040Y-128822269D01*
X72165754Y-128858554D01*
X72238326Y-128858554D01*
X72419754Y-128169126D02*
X73036611Y-128169126D01*
X73109183Y-128205412D01*
X73145469Y-128241697D01*
X73181754Y-128314269D01*
X73181754Y-128423126D01*
X73145469Y-128495697D01*
X72891469Y-128169126D02*
X72927754Y-128241697D01*
X72927754Y-128386840D01*
X72891469Y-128459412D01*
X72855183Y-128495697D01*
X72782611Y-128531983D01*
X72564897Y-128531983D01*
X72492326Y-128495697D01*
X72456040Y-128459412D01*
X72419754Y-128386840D01*
X72419754Y-128241697D01*
X72456040Y-128169126D01*
X72419754Y-127479697D02*
X72927754Y-127479697D01*
X72129469Y-127661126D02*
X72673754Y-127842554D01*
X72673754Y-127370840D01*
X78344486Y-88787514D02*
X78090486Y-88424657D01*
X77909058Y-88787514D02*
X77909058Y-88025514D01*
X78199343Y-88025514D01*
X78271915Y-88061800D01*
X78308200Y-88098086D01*
X78344486Y-88170657D01*
X78344486Y-88279514D01*
X78308200Y-88352086D01*
X78271915Y-88388371D01*
X78199343Y-88424657D01*
X77909058Y-88424657D01*
X79070200Y-88787514D02*
X78634772Y-88787514D01*
X78852486Y-88787514D02*
X78852486Y-88025514D01*
X78779915Y-88134371D01*
X78707343Y-88206943D01*
X78634772Y-88243229D01*
X79541914Y-88025514D02*
X79614486Y-88025514D01*
X79687057Y-88061800D01*
X79723343Y-88098086D01*
X79759629Y-88170657D01*
X79795914Y-88315800D01*
X79795914Y-88497229D01*
X79759629Y-88642371D01*
X79723343Y-88714943D01*
X79687057Y-88751229D01*
X79614486Y-88787514D01*
X79541914Y-88787514D01*
X79469343Y-88751229D01*
X79433057Y-88714943D01*
X79396772Y-88642371D01*
X79360486Y-88497229D01*
X79360486Y-88315800D01*
X79396772Y-88170657D01*
X79433057Y-88098086D01*
X79469343Y-88061800D01*
X79541914Y-88025514D01*
X80521628Y-88787514D02*
X80086200Y-88787514D01*
X80303914Y-88787514D02*
X80303914Y-88025514D01*
X80231343Y-88134371D01*
X80158771Y-88206943D01*
X80086200Y-88243229D01*
X79258886Y-94248514D02*
X79004886Y-93885657D01*
X78823458Y-94248514D02*
X78823458Y-93486514D01*
X79113743Y-93486514D01*
X79186315Y-93522800D01*
X79222600Y-93559086D01*
X79258886Y-93631657D01*
X79258886Y-93740514D01*
X79222600Y-93813086D01*
X79186315Y-93849371D01*
X79113743Y-93885657D01*
X78823458Y-93885657D01*
X79984600Y-94248514D02*
X79549172Y-94248514D01*
X79766886Y-94248514D02*
X79766886Y-93486514D01*
X79694315Y-93595371D01*
X79621743Y-93667943D01*
X79549172Y-93704229D01*
X80456314Y-93486514D02*
X80528886Y-93486514D01*
X80601457Y-93522800D01*
X80637743Y-93559086D01*
X80674029Y-93631657D01*
X80710314Y-93776800D01*
X80710314Y-93958229D01*
X80674029Y-94103371D01*
X80637743Y-94175943D01*
X80601457Y-94212229D01*
X80528886Y-94248514D01*
X80456314Y-94248514D01*
X80383743Y-94212229D01*
X80347457Y-94175943D01*
X80311172Y-94103371D01*
X80274886Y-93958229D01*
X80274886Y-93776800D01*
X80311172Y-93631657D01*
X80347457Y-93559086D01*
X80383743Y-93522800D01*
X80456314Y-93486514D01*
X81000600Y-93559086D02*
X81036886Y-93522800D01*
X81109457Y-93486514D01*
X81290886Y-93486514D01*
X81363457Y-93522800D01*
X81399743Y-93559086D01*
X81436028Y-93631657D01*
X81436028Y-93704229D01*
X81399743Y-93813086D01*
X80964314Y-94248514D01*
X81436028Y-94248514D01*
X79084714Y-84418714D02*
X78721857Y-84672714D01*
X79084714Y-84854142D02*
X78322714Y-84854142D01*
X78322714Y-84563857D01*
X78359000Y-84491285D01*
X78395286Y-84455000D01*
X78467857Y-84418714D01*
X78576714Y-84418714D01*
X78649286Y-84455000D01*
X78685571Y-84491285D01*
X78721857Y-84563857D01*
X78721857Y-84854142D01*
X79084714Y-83693000D02*
X79084714Y-84128428D01*
X79084714Y-83910714D02*
X78322714Y-83910714D01*
X78431571Y-83983285D01*
X78504143Y-84055857D01*
X78540429Y-84128428D01*
X78322714Y-83221286D02*
X78322714Y-83148714D01*
X78359000Y-83076143D01*
X78395286Y-83039857D01*
X78467857Y-83003571D01*
X78613000Y-82967286D01*
X78794429Y-82967286D01*
X78939571Y-83003571D01*
X79012143Y-83039857D01*
X79048429Y-83076143D01*
X79084714Y-83148714D01*
X79084714Y-83221286D01*
X79048429Y-83293857D01*
X79012143Y-83330143D01*
X78939571Y-83366428D01*
X78794429Y-83402714D01*
X78613000Y-83402714D01*
X78467857Y-83366428D01*
X78395286Y-83330143D01*
X78359000Y-83293857D01*
X78322714Y-83221286D01*
X78322714Y-82713286D02*
X78322714Y-82241572D01*
X78613000Y-82495572D01*
X78613000Y-82386714D01*
X78649286Y-82314143D01*
X78685571Y-82277857D01*
X78758143Y-82241572D01*
X78939571Y-82241572D01*
X79012143Y-82277857D01*
X79048429Y-82314143D01*
X79084714Y-82386714D01*
X79084714Y-82604429D01*
X79048429Y-82677000D01*
X79012143Y-82713286D01*
X71156286Y-88990714D02*
X70902286Y-88627857D01*
X70720858Y-88990714D02*
X70720858Y-88228714D01*
X71011143Y-88228714D01*
X71083715Y-88265000D01*
X71120000Y-88301286D01*
X71156286Y-88373857D01*
X71156286Y-88482714D01*
X71120000Y-88555286D01*
X71083715Y-88591571D01*
X71011143Y-88627857D01*
X70720858Y-88627857D01*
X71446572Y-88301286D02*
X71482858Y-88265000D01*
X71555429Y-88228714D01*
X71736858Y-88228714D01*
X71809429Y-88265000D01*
X71845715Y-88301286D01*
X71882000Y-88373857D01*
X71882000Y-88446429D01*
X71845715Y-88555286D01*
X71410286Y-88990714D01*
X71882000Y-88990714D01*
X72353714Y-88228714D02*
X72426286Y-88228714D01*
X72498857Y-88265000D01*
X72535143Y-88301286D01*
X72571429Y-88373857D01*
X72607714Y-88519000D01*
X72607714Y-88700429D01*
X72571429Y-88845571D01*
X72535143Y-88918143D01*
X72498857Y-88954429D01*
X72426286Y-88990714D01*
X72353714Y-88990714D01*
X72281143Y-88954429D01*
X72244857Y-88918143D01*
X72208572Y-88845571D01*
X72172286Y-88700429D01*
X72172286Y-88519000D01*
X72208572Y-88373857D01*
X72244857Y-88301286D01*
X72281143Y-88265000D01*
X72353714Y-88228714D01*
X73333428Y-88990714D02*
X72898000Y-88990714D01*
X73115714Y-88990714D02*
X73115714Y-88228714D01*
X73043143Y-88337571D01*
X72970571Y-88410143D01*
X72898000Y-88446429D01*
X70521286Y-101563714D02*
X70267286Y-101200857D01*
X70085858Y-101563714D02*
X70085858Y-100801714D01*
X70376143Y-100801714D01*
X70448715Y-100838000D01*
X70485000Y-100874286D01*
X70521286Y-100946857D01*
X70521286Y-101055714D01*
X70485000Y-101128286D01*
X70448715Y-101164571D01*
X70376143Y-101200857D01*
X70085858Y-101200857D01*
X70775286Y-100801714D02*
X71247000Y-100801714D01*
X70993000Y-101092000D01*
X71101858Y-101092000D01*
X71174429Y-101128286D01*
X71210715Y-101164571D01*
X71247000Y-101237143D01*
X71247000Y-101418571D01*
X71210715Y-101491143D01*
X71174429Y-101527429D01*
X71101858Y-101563714D01*
X70884143Y-101563714D01*
X70811572Y-101527429D01*
X70775286Y-101491143D01*
X71718714Y-100801714D02*
X71791286Y-100801714D01*
X71863857Y-100838000D01*
X71900143Y-100874286D01*
X71936429Y-100946857D01*
X71972714Y-101092000D01*
X71972714Y-101273429D01*
X71936429Y-101418571D01*
X71900143Y-101491143D01*
X71863857Y-101527429D01*
X71791286Y-101563714D01*
X71718714Y-101563714D01*
X71646143Y-101527429D01*
X71609857Y-101491143D01*
X71573572Y-101418571D01*
X71537286Y-101273429D01*
X71537286Y-101092000D01*
X71573572Y-100946857D01*
X71609857Y-100874286D01*
X71646143Y-100838000D01*
X71718714Y-100801714D01*
X72698428Y-101563714D02*
X72263000Y-101563714D01*
X72480714Y-101563714D02*
X72480714Y-100801714D01*
X72408143Y-100910571D01*
X72335571Y-100983143D01*
X72263000Y-101019429D01*
X72756486Y-112536514D02*
X72502486Y-112173657D01*
X72321058Y-112536514D02*
X72321058Y-111774514D01*
X72611343Y-111774514D01*
X72683915Y-111810800D01*
X72720200Y-111847086D01*
X72756486Y-111919657D01*
X72756486Y-112028514D01*
X72720200Y-112101086D01*
X72683915Y-112137371D01*
X72611343Y-112173657D01*
X72321058Y-112173657D01*
X73409629Y-112028514D02*
X73409629Y-112536514D01*
X73228200Y-111738229D02*
X73046772Y-112282514D01*
X73518486Y-112282514D01*
X73953914Y-111774514D02*
X74026486Y-111774514D01*
X74099057Y-111810800D01*
X74135343Y-111847086D01*
X74171629Y-111919657D01*
X74207914Y-112064800D01*
X74207914Y-112246229D01*
X74171629Y-112391371D01*
X74135343Y-112463943D01*
X74099057Y-112500229D01*
X74026486Y-112536514D01*
X73953914Y-112536514D01*
X73881343Y-112500229D01*
X73845057Y-112463943D01*
X73808772Y-112391371D01*
X73772486Y-112246229D01*
X73772486Y-112064800D01*
X73808772Y-111919657D01*
X73845057Y-111847086D01*
X73881343Y-111810800D01*
X73953914Y-111774514D01*
X74933628Y-112536514D02*
X74498200Y-112536514D01*
X74715914Y-112536514D02*
X74715914Y-111774514D01*
X74643343Y-111883371D01*
X74570771Y-111955943D01*
X74498200Y-111992229D01*
X73188286Y-126201714D02*
X72934286Y-125838857D01*
X72752858Y-126201714D02*
X72752858Y-125439714D01*
X73043143Y-125439714D01*
X73115715Y-125476000D01*
X73152000Y-125512286D01*
X73188286Y-125584857D01*
X73188286Y-125693714D01*
X73152000Y-125766286D01*
X73115715Y-125802571D01*
X73043143Y-125838857D01*
X72752858Y-125838857D01*
X73877715Y-125439714D02*
X73514858Y-125439714D01*
X73478572Y-125802571D01*
X73514858Y-125766286D01*
X73587429Y-125730000D01*
X73768858Y-125730000D01*
X73841429Y-125766286D01*
X73877715Y-125802571D01*
X73914000Y-125875143D01*
X73914000Y-126056571D01*
X73877715Y-126129143D01*
X73841429Y-126165429D01*
X73768858Y-126201714D01*
X73587429Y-126201714D01*
X73514858Y-126165429D01*
X73478572Y-126129143D01*
X74385714Y-125439714D02*
X74458286Y-125439714D01*
X74530857Y-125476000D01*
X74567143Y-125512286D01*
X74603429Y-125584857D01*
X74639714Y-125730000D01*
X74639714Y-125911429D01*
X74603429Y-126056571D01*
X74567143Y-126129143D01*
X74530857Y-126165429D01*
X74458286Y-126201714D01*
X74385714Y-126201714D01*
X74313143Y-126165429D01*
X74276857Y-126129143D01*
X74240572Y-126056571D01*
X74204286Y-125911429D01*
X74204286Y-125730000D01*
X74240572Y-125584857D01*
X74276857Y-125512286D01*
X74313143Y-125476000D01*
X74385714Y-125439714D01*
X75365428Y-126201714D02*
X74930000Y-126201714D01*
X75147714Y-126201714D02*
X75147714Y-125439714D01*
X75075143Y-125548571D01*
X75002571Y-125621143D01*
X74930000Y-125657429D01*
X86069714Y-84364285D02*
X86686571Y-84364285D01*
X86759143Y-84328000D01*
X86795429Y-84291714D01*
X86831714Y-84219143D01*
X86831714Y-84074000D01*
X86795429Y-84001428D01*
X86759143Y-83965143D01*
X86686571Y-83928857D01*
X86069714Y-83928857D01*
X86831714Y-83166857D02*
X86831714Y-83602285D01*
X86831714Y-83384571D02*
X86069714Y-83384571D01*
X86178571Y-83457142D01*
X86251143Y-83529714D01*
X86287429Y-83602285D01*
X86069714Y-82695143D02*
X86069714Y-82622571D01*
X86106000Y-82550000D01*
X86142286Y-82513714D01*
X86214857Y-82477428D01*
X86360000Y-82441143D01*
X86541429Y-82441143D01*
X86686571Y-82477428D01*
X86759143Y-82513714D01*
X86795429Y-82550000D01*
X86831714Y-82622571D01*
X86831714Y-82695143D01*
X86795429Y-82767714D01*
X86759143Y-82804000D01*
X86686571Y-82840285D01*
X86541429Y-82876571D01*
X86360000Y-82876571D01*
X86214857Y-82840285D01*
X86142286Y-82804000D01*
X86106000Y-82767714D01*
X86069714Y-82695143D01*
X86831714Y-81715429D02*
X86831714Y-82150857D01*
X86831714Y-81933143D02*
X86069714Y-81933143D01*
X86178571Y-82005714D01*
X86251143Y-82078286D01*
X86287429Y-82150857D01*
X84164714Y-107224285D02*
X84781571Y-107224285D01*
X84854143Y-107188000D01*
X84890429Y-107151714D01*
X84926714Y-107079143D01*
X84926714Y-106934000D01*
X84890429Y-106861428D01*
X84854143Y-106825143D01*
X84781571Y-106788857D01*
X84164714Y-106788857D01*
X84237286Y-106462285D02*
X84201000Y-106425999D01*
X84164714Y-106353428D01*
X84164714Y-106171999D01*
X84201000Y-106099428D01*
X84237286Y-106063142D01*
X84309857Y-106026857D01*
X84382429Y-106026857D01*
X84491286Y-106063142D01*
X84926714Y-106498571D01*
X84926714Y-106026857D01*
X84164714Y-105555143D02*
X84164714Y-105482571D01*
X84201000Y-105410000D01*
X84237286Y-105373714D01*
X84309857Y-105337428D01*
X84455000Y-105301143D01*
X84636429Y-105301143D01*
X84781571Y-105337428D01*
X84854143Y-105373714D01*
X84890429Y-105410000D01*
X84926714Y-105482571D01*
X84926714Y-105555143D01*
X84890429Y-105627714D01*
X84854143Y-105664000D01*
X84781571Y-105700285D01*
X84636429Y-105736571D01*
X84455000Y-105736571D01*
X84309857Y-105700285D01*
X84237286Y-105664000D01*
X84201000Y-105627714D01*
X84164714Y-105555143D01*
X84926714Y-104575429D02*
X84926714Y-105010857D01*
X84926714Y-104793143D02*
X84164714Y-104793143D01*
X84273571Y-104865714D01*
X84346143Y-104938286D01*
X84382429Y-105010857D01*
X76392315Y-110758514D02*
X76392315Y-111375371D01*
X76428600Y-111447943D01*
X76464886Y-111484229D01*
X76537457Y-111520514D01*
X76682600Y-111520514D01*
X76755172Y-111484229D01*
X76791457Y-111447943D01*
X76827743Y-111375371D01*
X76827743Y-110758514D01*
X77154315Y-110831086D02*
X77190601Y-110794800D01*
X77263172Y-110758514D01*
X77444601Y-110758514D01*
X77517172Y-110794800D01*
X77553458Y-110831086D01*
X77589743Y-110903657D01*
X77589743Y-110976229D01*
X77553458Y-111085086D01*
X77118029Y-111520514D01*
X77589743Y-111520514D01*
X78061457Y-110758514D02*
X78134029Y-110758514D01*
X78206600Y-110794800D01*
X78242886Y-110831086D01*
X78279172Y-110903657D01*
X78315457Y-111048800D01*
X78315457Y-111230229D01*
X78279172Y-111375371D01*
X78242886Y-111447943D01*
X78206600Y-111484229D01*
X78134029Y-111520514D01*
X78061457Y-111520514D01*
X77988886Y-111484229D01*
X77952600Y-111447943D01*
X77916315Y-111375371D01*
X77880029Y-111230229D01*
X77880029Y-111048800D01*
X77916315Y-110903657D01*
X77952600Y-110831086D01*
X77988886Y-110794800D01*
X78061457Y-110758514D01*
X78605743Y-110831086D02*
X78642029Y-110794800D01*
X78714600Y-110758514D01*
X78896029Y-110758514D01*
X78968600Y-110794800D01*
X79004886Y-110831086D01*
X79041171Y-110903657D01*
X79041171Y-110976229D01*
X79004886Y-111085086D01*
X78569457Y-111520514D01*
X79041171Y-111520514D01*
X78525915Y-122569514D02*
X78271915Y-122206657D01*
X78090487Y-122569514D02*
X78090487Y-121807514D01*
X78380772Y-121807514D01*
X78453344Y-121843800D01*
X78489629Y-121880086D01*
X78525915Y-121952657D01*
X78525915Y-122061514D01*
X78489629Y-122134086D01*
X78453344Y-122170371D01*
X78380772Y-122206657D01*
X78090487Y-122206657D01*
X78743629Y-121807514D02*
X78997629Y-122569514D01*
X79251629Y-121807514D01*
X79469344Y-121880086D02*
X79505630Y-121843800D01*
X79578201Y-121807514D01*
X79759630Y-121807514D01*
X79832201Y-121843800D01*
X79868487Y-121880086D01*
X79904772Y-121952657D01*
X79904772Y-122025229D01*
X79868487Y-122134086D01*
X79433058Y-122569514D01*
X79904772Y-122569514D01*
X80376486Y-121807514D02*
X80449058Y-121807514D01*
X80521629Y-121843800D01*
X80557915Y-121880086D01*
X80594201Y-121952657D01*
X80630486Y-122097800D01*
X80630486Y-122279229D01*
X80594201Y-122424371D01*
X80557915Y-122496943D01*
X80521629Y-122533229D01*
X80449058Y-122569514D01*
X80376486Y-122569514D01*
X80303915Y-122533229D01*
X80267629Y-122496943D01*
X80231344Y-122424371D01*
X80195058Y-122279229D01*
X80195058Y-122097800D01*
X80231344Y-121952657D01*
X80267629Y-121880086D01*
X80303915Y-121843800D01*
X80376486Y-121807514D01*
X81356200Y-122569514D02*
X80920772Y-122569514D01*
X81138486Y-122569514D02*
X81138486Y-121807514D01*
X81065915Y-121916371D01*
X80993343Y-121988943D01*
X80920772Y-122025229D01*
X85526154Y-112067703D02*
X86288154Y-111813703D01*
X85526154Y-111559703D01*
X86288154Y-111305702D02*
X85780154Y-111305702D01*
X85925297Y-111305702D02*
X85852726Y-111269417D01*
X85816440Y-111233131D01*
X85780154Y-111160560D01*
X85780154Y-111087988D01*
X86251869Y-110543703D02*
X86288154Y-110616274D01*
X86288154Y-110761417D01*
X86251869Y-110833988D01*
X86179297Y-110870274D01*
X85889011Y-110870274D01*
X85816440Y-110833988D01*
X85780154Y-110761417D01*
X85780154Y-110616274D01*
X85816440Y-110543703D01*
X85889011Y-110507417D01*
X85961583Y-110507417D01*
X86034154Y-110870274D01*
X85780154Y-110289703D02*
X85780154Y-109999417D01*
X86288154Y-110180845D02*
X85635011Y-110180845D01*
X85562440Y-110144560D01*
X85526154Y-110071988D01*
X85526154Y-109999417D01*
%LPC*%
D13*
X85578000Y-86360000D03*
X83078000Y-86360000D03*
X69997000Y-84455000D03*
X72497000Y-84455000D03*
D14*
X83870800Y-92182000D03*
X83870800Y-89682000D03*
X85661500Y-115590000D03*
X85661500Y-118090000D03*
D13*
X69997000Y-96774000D03*
X72497000Y-96774000D03*
X69870000Y-107899200D03*
X72370000Y-107899200D03*
X69806500Y-121539000D03*
X72306500Y-121539000D03*
D15*
X82804000Y-77978000D03*
D16*
X85344000Y-77978000D03*
D17*
X69977000Y-77978000D03*
X75539600Y-77978000D03*
X79121000Y-77978000D03*
D18*
X82550000Y-133096000D03*
D19*
X80010000Y-133096000D03*
X77470000Y-133096000D03*
X74930000Y-133096000D03*
X72390000Y-133096000D03*
D17*
X69977000Y-91059000D03*
X69977000Y-103632000D03*
X69977000Y-116205000D03*
X69977000Y-128397000D03*
D20*
X81512400Y-90017600D03*
X78812400Y-90017600D03*
X78761600Y-92252800D03*
X81461600Y-92252800D03*
D21*
X80518000Y-82216000D03*
X80518000Y-84916000D03*
D22*
X70136000Y-86868000D03*
X74136000Y-86868000D03*
X70136000Y-99187000D03*
X74136000Y-99187000D03*
X70085200Y-110286800D03*
X74085200Y-110286800D03*
X70072500Y-124015500D03*
X74072500Y-124015500D03*
D23*
X85024000Y-81958000D03*
X84074000Y-81958000D03*
X83124000Y-81958000D03*
X83124000Y-84158000D03*
X85024000Y-84158000D03*
D24*
X77437000Y-98806000D03*
X77437000Y-100076000D03*
X77437000Y-101346000D03*
X77437000Y-102616000D03*
X77437000Y-103886000D03*
X77437000Y-105156000D03*
X77437000Y-106426000D03*
X82837000Y-106426000D03*
X82837000Y-105156000D03*
X82837000Y-103886000D03*
X82837000Y-102616000D03*
X82837000Y-101346000D03*
X82837000Y-100076000D03*
X82837000Y-98806000D03*
X80551000Y-120269000D03*
X80551000Y-118999000D03*
X80551000Y-117729000D03*
X80551000Y-116459000D03*
X80551000Y-115189000D03*
X80551000Y-113919000D03*
X80551000Y-112649000D03*
X75151000Y-112649000D03*
X75151000Y-113919000D03*
X75151000Y-115189000D03*
X75151000Y-116459000D03*
X75151000Y-117729000D03*
X75151000Y-118999000D03*
X75151000Y-120269000D03*
D25*
X83566000Y-123992000D03*
X81066000Y-126392000D03*
X83566000Y-128992000D03*
D17*
X83705700Y-110947200D03*
M02*
