M48
;DRILL file {KiCad 0.201505262310+5684~23~ubuntu14.04.1-product} date Mon 01 Jun 2015 21:55:17 CEST
;FORMAT={-:-/ absolute / inch / decimal}
FMAT,2
INCH,TZ
T1C0.013
T2C0.018
T3C0.020
T4C0.040
%
G90
G05
M72
T1
X2.8025Y-4.175
X2.8375Y-4.715
X2.875Y-4.545
X2.88Y-4.7245
X2.9175Y-4.955
X2.945Y-3.33
X2.965Y-3.8125
X2.98Y-4.226
X2.995Y-4.3225
X3.03Y-3.831
X3.0775Y-4.535
X3.1065Y-4.2555
X3.1385Y-4.016
X3.175Y-4.374
X3.2065Y-4.2495
X3.244Y-4.522
X3.2615Y-4.247
X3.359Y-3.94
T2
X2.845Y-3.98
X2.85Y-3.49
X2.8625Y-4.4975
X2.8675Y-4.9925
X2.9775Y-3.99
X2.9775Y-4.0925
X2.98Y-4.04
X3.Y-3.54
X3.065Y-4.6375
X3.0875Y-4.5925
X3.134Y-4.9116
X3.18Y-3.435
X3.1925Y-3.99
X3.1925Y-4.09
X3.2285Y-3.4735
X3.3Y-3.7
X3.35Y-4.04
X3.3726Y-4.7224
X3.3775Y-4.48
X3.38Y-5.05
X3.3848Y-3.5124
X3.3998Y-3.3134
T3
X3.1916Y-4.9761
X3.29Y-4.8816
X3.29Y-5.0784
T4
X2.755Y-3.07
X2.755Y-3.585
X2.755Y-4.08
X2.755Y-4.575
X2.755Y-5.055
X2.85Y-5.24
X2.95Y-5.24
X2.974Y-3.07
X3.05Y-5.24
X3.115Y-3.07
X3.15Y-5.24
X3.25Y-5.24
X3.26Y-3.07
X3.2955Y-4.368
X3.36Y-3.07
T0
M30
